<?xml version="1.0" standalone="no"?>
<!DOCTYPE svg PUBLIC "-//W3C//DTD SVG 1.1//EN" "http://www.w3.org/Graphics/SVG/1.1/DTD/svg11.dtd" >
<svg xmlns="http://www.w3.org/2000/svg" xmlns:xlink="http://www.w3.org/1999/xlink" version="1.1">
<metadata>
Created by FontForge 20170731 at Thu Aug 22 00:06:30 2019
 By Aleksey,,,
Copyright (c) 2019 by Martin Va'cha. All rights reserved.
</metadata>
<defs>
<font id="RoobertTWHINT-SemiBold" horiz-adv-x="0" >
  <font-face 
    font-family="Roobert TWHINT SemiBold"
    font-weight="600"
    font-stretch="normal"
    units-per-em="975"
    panose-1="0 0 7 0 0 0 0 0 0 0"
    ascent="780"
    descent="-195"
    x-height="504"
    cap-height="700"
    bbox="-752 -246 1067 1122"
    underline-thickness="50"
    underline-position="-200"
    unicode-range="U+000D-FEFF"
  />
<missing-glyph horiz-adv-x="1072" 
d="M519 796v-1000q-132 4 -243 72.5t-175.5 181.5t-64.5 245q0 131 65 244.5t176 183t242 73.5zM553 -201v994q41 -12 76 -82.5t55.5 -180.5t20.5 -235t-20.5 -234.5t-55.5 -179.5t-76 -82zM737 295q0 106 -14 200.5t-39.5 167.5t-59.5 115q73 -28 131 -99.5t90.5 -171.5
t32.5 -212q0 -113 -32.5 -213t-90.5 -170.5t-131 -97.5q34 42 59.5 114.5t39.5 166.5t14 200zM722 -168q57 46 100 118t66 160.5t23 184.5t-23.5 185t-66.5 161t-102 119q93 -37 165 -107.5t112 -163.5t40 -194t-39.5 -193.5t-111 -162.5t-163.5 -107z" />
    <glyph glyph-name="f_f.liga" unicode="ff" horiz-adv-x="729" 
d="M18 401v103h99v47q0 51 22.5 89t63 59t94.5 21h90v-104h-76q-32 0 -51.5 -19t-19.5 -52v-41h147v-103h-147v-401h-123v401h-99zM337 401v103h99v47q0 51 22.5 89t63 59t94.5 21h90v-104h-76q-32 0 -51.5 -19t-19.5 -52v-41h147v-103h-147v-401h-123v401h-99z" />
    <glyph glyph-name="f_f_i.liga" unicode="ffi" horiz-adv-x="932" 
d="M881 0h-122v401h-200v-401h-123v401h-196v-401h-123v401h-99v103h99v47q0 51 22.5 89t63 59t94.5 21h90v-104h-76q-32 0 -51.5 -19t-19.5 -52v-41h196v47q0 51 22.5 89t63 59t94.5 21h90v-104h-76q-32 0 -51.5 -19t-19.5 -52v-41h322v-504z" />
    <glyph glyph-name="f_f_l.liga" unicode="ffl" horiz-adv-x="940" 
d="M878 0h-122v401h-197v-401h-123v401h-196v-401h-123v401h-99v103h99v47q0 51 22.5 89t63 59t94.5 21h90v-104h-76q-32 0 -51.5 -19t-19.5 -52v-41h196v47q0 51 22.5 89t63 59t94.5 21h64v-104h-50q-32 0 -51.5 -19t-19.5 -52v-41h197v216h122v-720z" />
    <glyph glyph-name="f_i.liga" unicode="fi" horiz-adv-x="609" 
d="M559 0h-123v401h-196v-401h-123v401h-99v103h99v47q0 51 22.5 89t63 59t94.5 21h90v-104h-76q-32 0 -51.5 -19t-19.5 -52v-41h319v-504z" />
    <glyph glyph-name="f_l.liga" unicode="fl" horiz-adv-x="621" 
d="M559 0h-123v401h-196v-401h-123v401h-99v103h99v47q0 51 22.5 89t63 59t94.5 21h64v-104h-50q-32 0 -51.5 -19t-19.5 -52v-41h196v216h123v-720z" />
    <glyph glyph-name="r_f.liga" unicode="rf" horiz-adv-x="682" 
d="M411.5 640q22.5 38 63 59t94.5 21h90v-104h-76q-32 0 -51.5 -19t-19.5 -52v-41h147v-103h-147v-401h-123v551q0 51 22.5 89zM204.5 357.5q-26.5 -43.5 -26.5 -119.5v-238h-123v504h123v-89q19 48 49.5 68.5t79.5 20.5h41v-103h-61q-56 0 -82.5 -43.5z" />
    <glyph glyph-name="r_t.liga" unicode="rt" horiz-adv-x="675" 
d="M512 504h140v-103h-140v-220q0 -38 19 -57.5t54 -19.5h67v-104h-81q-55 0 -96 21t-63.5 60.5t-22.5 94.5v480h123v-152zM204.5 357.5q-26.5 -43.5 -26.5 -119.5v-238h-123v504h123v-89q19 48 49.5 68.5t79.5 20.5h41v-103h-61q-56 0 -82.5 -43.5z" />
    <glyph glyph-name="t_t.liga" unicode="tt" horiz-adv-x="746" 
d="M240 504h140v-103h-140v-220q0 -38 19 -57.5t54 -19.5h67v-104h-81q-55 0 -96 21t-63.5 60.5t-22.5 94.5v225h-99v103h99v152h123v-152zM583 504h140v-103h-140v-220q0 -38 19 -57.5t54 -19.5h67v-104h-81q-55 0 -96 21t-63.5 60.5t-22.5 94.5v225h-99v103h99v152h123
v-152z" />
    <glyph glyph-name=".notdef" horiz-adv-x="1072" 
d="M519 796v-1000q-132 4 -243 72.5t-175.5 181.5t-64.5 245q0 131 65 244.5t176 183t242 73.5zM553 -201v994q41 -12 76 -82.5t55.5 -180.5t20.5 -235t-20.5 -234.5t-55.5 -179.5t-76 -82zM737 295q0 106 -14 200.5t-39.5 167.5t-59.5 115q73 -28 131 -99.5t90.5 -171.5
t32.5 -212q0 -113 -32.5 -213t-90.5 -170.5t-131 -97.5q34 42 59.5 114.5t39.5 166.5t14 200zM722 -168q57 46 100 118t66 160.5t23 184.5t-23.5 185t-66.5 161t-102 119q93 -37 165 -107.5t112 -163.5t40 -194t-39.5 -193.5t-111 -162.5t-163.5 -107z" />
    <glyph glyph-name=".null" 
 />
    <glyph glyph-name="nonmarkingreturn" unicode="&#xd;" horiz-adv-x="219" 
d="M0 0z" />
    <glyph glyph-name="space" unicode=" " horiz-adv-x="219" 
d="M0 0z" />
    <glyph glyph-name="exclam" unicode="!" horiz-adv-x="286" 
d="M221 700l-30 -513h-96l-30 513h156zM77 0v129h133v-129h-133z" />
    <glyph glyph-name="quotedbl" unicode="&#x22;" horiz-adv-x="445" 
d="M383 720l-26 -244h-75l-27 244h128zM189 720l-26 -244h-75l-27 244h128z" />
    <glyph glyph-name="numbersign" unicode="#" horiz-adv-x="732" 
d="M50 196v91h140l29 126h-126v91h145l42 196h96l-43 -196h132l43 196h96l-44 -196h122v-91h-140l-28 -126h126v-91h-146l-43 -196h-94l42 196h-132l-44 -196h-95l44 196h-122zM447 413h-134l-27 -126h132z" />
    <glyph glyph-name="dollar" unicode="$" horiz-adv-x="599" 
d="M533 102q-25 -43 -70.5 -70t-106.5 -36v-105l-114 1v104q-64 10 -111 42t-74 82.5t-30 114.5h127q5 -59 43 -93.5t100 -34.5q58 0 92.5 23.5t34.5 68.5q0 30 -19 49t-48.5 29.5t-80.5 23.5q-72 18 -117.5 37.5t-78 61.5t-32.5 113q0 50 24 91t68 67t102 34v96h114v-99
q55 -11 96.5 -39.5t65 -72t25.5 -98.5h-126q-5 46 -39 74t-89 28q-52 0 -82 -22t-30 -59q0 -31 19.5 -50t49 -29.5t82.5 -22.5q73 -17 118.5 -35.5t78.5 -60.5t33 -114q0 -56 -25 -99z" />
    <glyph glyph-name="percent" unicode="%" horiz-adv-x="752" 
d="M684 700l-508 -700h-109l508 700h109zM124 409q-35 21 -54.5 57.5t-19.5 81.5t19.5 81.5t54.5 57.5t79 21t78.5 -21t54 -57.5t19.5 -81.5t-19.5 -81.5t-54 -57.5t-78.5 -21t-79 21zM251.5 490.5q18.5 22.5 18.5 57.5t-18.5 57.5t-48.5 22.5t-48 -22.5t-18 -57.5t18 -57.5
t48 -22.5t48.5 22.5zM472 13q-35 21 -54.5 57.5t-19.5 81.5t19.5 81.5t54.5 57.5t79 21t78.5 -21t54 -57.5t19.5 -81.5t-19.5 -81.5t-54 -57.5t-78.5 -21t-79 21zM599.5 94.5q18.5 22.5 18.5 57.5t-18.5 57.5t-48.5 22.5t-48 -22.5t-18 -57.5t18 -57.5t48 -22.5t48.5 22.5z
" />
    <glyph glyph-name="ampersand" unicode="&#x26;" horiz-adv-x="677" 
d="M524 0l-60 66q-78 -74 -191 -74q-69 0 -121 25t-81 71.5t-29 110.5q0 69 35 111.5t97 74.5q-32 41 -50 76t-18 69q0 52 23.5 92.5t66 63t97.5 22.5q54 0 96 -22t65.5 -61.5t23.5 -90.5q0 -48 -18.5 -83t-48 -58.5t-70.5 -44.5l117 -129l50 62q21 29 42 45t44 21.5t53 5.5
v-114q-29 0 -53 -17t-42 -43l-25 -36l131 -143h-134zM229 485q15 -27 39 -56q51 24 77.5 48.5t26.5 60.5q0 34 -22 55t-57 21t-57 -22t-22 -58q0 -22 15 -49zM334.5 110.5q30.5 10.5 58.5 33.5l-146 159q-43 -21 -65.5 -45.5t-22.5 -59.5q0 -46 30.5 -72t83.5 -26
q31 0 61.5 10.5z" />
    <glyph glyph-name="quotesingle" unicode="'" horiz-adv-x="251" 
d="M189 720l-26 -244h-75l-27 244h128z" />
    <glyph glyph-name="parenleft" unicode="(" horiz-adv-x="292" 
d="M74.5 91q-41.5 115 -41.5 244t41.5 244t121.5 210l84 -63q-67 -90 -99.5 -187t-32.5 -204t32.5 -204t99.5 -187l-84 -63q-80 95 -121.5 210z" />
    <glyph glyph-name="parenright" unicode=")" horiz-adv-x="292" 
d="M111.5 131q32.5 97 32.5 204t-32.5 204t-99.5 187l84 63q80 -95 121.5 -210t41.5 -244t-41.5 -244t-121.5 -210l-84 63q67 90 99.5 187z" />
    <glyph glyph-name="asterisk" unicode="*" horiz-adv-x="464" 
d="M163 507l-125 42l27 81l124 -42v132h86v-132l124 42l27 -81l-125 -42l78 -106l-69 -50l-78 107l-78 -107l-69 50z" />
    <glyph glyph-name="plus" unicode="+" horiz-adv-x="640" 
d="M573 265h-201v-200h-105v200h-200v105h200v200h105v-200h201v-105z" />
    <glyph glyph-name="comma" unicode="," horiz-adv-x="285" 
d="M91 -39.5q14 16.5 14 42.5v126h125v-137q0 -44 -18 -78t-51 -53t-75 -19h-51v102h20q22 0 36 16.5z" />
    <glyph glyph-name="hyphen" unicode="-" horiz-adv-x="482" 
d="M434 370v-105h-386v105h386z" />
    <glyph glyph-name="period" unicode="." horiz-adv-x="244" 
d="M189 0h-134v129h134v-129z" />
    <glyph glyph-name="slash" unicode="/" horiz-adv-x="449" 
d="M437 700l-315 -701h-110l314 701h111z" />
    <glyph glyph-name="zero" unicode="0" horiz-adv-x="634" 
d="M106.5 77.5q-62.5 85.5 -62.5 248.5v48q0 163 62.5 248.5t190.5 85.5h40q128 0 191 -85.5t63 -248.5v-48q0 -163 -63 -248.5t-191 -85.5h-40q-128 0 -190.5 85.5zM425 153.5q34 46.5 34 137.5v118q0 91 -33.5 138t-94.5 47h-28q-60 0 -93.5 -47t-33.5 -138v-118
q0 -91 33.5 -137.5t93.5 -46.5h28q60 0 94 46.5z" />
    <glyph glyph-name="one" unicode="1" horiz-adv-x="379" 
d="M181 0v515q-9 -13 -34 -20t-49 -7h-55v114h50q43 0 65.5 21.5t28.5 76.5h126v-700h-132z" />
    <glyph glyph-name="two" unicode="2" horiz-adv-x="571" 
d="M78 590.5q30 56.5 86.5 87t132.5 30.5q71 0 126.5 -27t86.5 -76t31 -114q0 -142 -166 -224l-108 -54q-37 -19 -62.5 -44t-25.5 -54h362v-115h-492l-1 97q0 53 25 96.5t61.5 74t75.5 49.5l112 56q86 42 86 119q0 49 -30 78t-81 29q-37 0 -63 -17.5t-39.5 -49.5t-12.5 -75
h-133q-1 77 29 133.5z" />
    <glyph glyph-name="three" unicode="3" horiz-adv-x="613" 
d="M180.5 20q-59.5 28 -94 80t-34.5 121h128q0 -36 17.5 -61.5t47.5 -39t67 -13.5q58 0 92.5 27t34.5 74q0 46 -34.5 72t-92.5 26h-64v110h62q31 0 54.5 11.5t36 32.5t12.5 47q0 40 -30 63.5t-80 23.5q-49 0 -79 -26.5t-31 -77.5h-125q1 66 33.5 115.5t86.5 76t118 26.5
q66 0 120 -25t84.5 -68.5t30.5 -94.5q0 -49 -24 -89.5t-64 -61.5q53 -19 85 -62.5t32 -101.5q0 -65 -35 -113.5t-94 -74t-129 -25.5q-72 0 -131.5 28z" />
    <glyph glyph-name="four" unicode="4" horiz-adv-x="650" 
d="M32 148v115l346 437h144v-437h90v-115h-90v-148h-132v148h-358zM390 542l-227 -279h227v279z" />
    <glyph glyph-name="five" unicode="5" horiz-adv-x="607" 
d="M178 20q-55 28 -88.5 77t-36.5 109h125q6 -47 38 -73t83 -26q40 0 69.5 15.5t46 43.5t16.5 67q0 38 -16.5 67.5t-46 45.5t-68.5 16q-44 0 -74.5 -16t-46.5 -46h-114l58 400h393v-114h-295l-24 -158q22 20 55 32t73 12q68 0 122.5 -31.5t85.5 -86t31 -121.5
q0 -69 -34.5 -124t-95 -86t-135.5 -31q-66 0 -121 28z" />
    <glyph glyph-name="six" unicode="6" horiz-adv-x="643" 
d="M465.5 436q55.5 -31 86.5 -84.5t31 -120.5t-34.5 -121.5t-93.5 -86t-132 -31.5q-85 0 -146.5 43t-93 118.5t-31.5 171.5q0 120 35.5 206.5t99.5 131.5t147 45q70 0 126 -26t89.5 -71.5t41.5 -101.5h-124q-8 40 -43 64.5t-85 24.5q-46 0 -82 -28t-57.5 -77t-24.5 -110
q14 24 40.5 43t58.5 30t64 11q72 0 127.5 -31zM391 122.5q28 15.5 43.5 44t15.5 64.5t-15.5 64t-44 43.5t-64.5 15.5q-37 0 -65.5 -15.5t-44.5 -43.5t-16 -64t16 -64.5t44.5 -44t65.5 -15.5t65 15.5z" />
    <glyph glyph-name="seven" unicode="7" horiz-adv-x="566" 
d="M166.5 120q8.5 55 30.5 111.5t61 118.5l149 236h-369v114h515v-104l-182 -290q-32 -51 -50 -98.5t-24.5 -96.5t-7.5 -111h-131q0 65 8.5 120z" />
    <glyph glyph-name="eight" unicode="8" horiz-adv-x="617" 
d="M175.5 18q-59.5 26 -93.5 74.5t-34 112.5q0 59 33 104t86 68q-40 24 -64.5 61t-24.5 82q0 54 29.5 97t82 67t119.5 24t119.5 -24t82 -67t29.5 -97q0 -45 -24.5 -82t-65.5 -61q55 -22 87 -67t32 -105q0 -64 -34 -112.5t-93 -74.5t-133 -26t-133.5 26zM387.5 452
q29.5 23 29.5 63t-29.5 63t-78.5 23t-78 -23t-29 -63t29 -63t78 -23t78.5 23zM404 133q35 27 35 75q0 31 -16 54.5t-45 36t-69 12.5q-39 0 -69 -12.5t-46.5 -36t-16.5 -54.5q0 -47 36 -74.5t96 -27.5t95 27z" />
    <glyph glyph-name="nine" unicode="9" horiz-adv-x="642" 
d="M176 264q-56 31 -86.5 84.5t-30.5 120.5t34 121.5t93.5 86t131.5 31.5q85 0 146.5 -43t93.5 -118.5t32 -171.5q0 -120 -35.5 -206.5t-99.5 -131.5t-148 -45q-70 0 -125.5 26t-89 71.5t-41.5 101.5h124q8 -40 43 -64.5t85 -24.5q46 0 82 28t57.5 77t24.5 110
q-14 -24 -40.5 -43t-58.5 -30t-64 -11q-72 0 -128 31zM251.5 578q-28.5 -16 -44 -44.5t-15.5 -64.5t15.5 -63.5t43.5 -43t65 -15.5t65.5 15.5t44.5 43t16 63.5t-16 64.5t-44.5 44.5t-65.5 16q-36 0 -64.5 -16z" />
    <glyph glyph-name="colon" unicode=":" horiz-adv-x="244" 
d="M189 357h-134v129h134v-129zM189 0h-134v129h134v-129z" />
    <glyph glyph-name="semicolon" unicode=";" horiz-adv-x="289" 
d="M91 -39.5q14 16.5 14 42.5v126h125v-137q0 -44 -18 -78t-51 -53t-75 -19h-51v102h20q22 0 36 16.5zM234 357h-134v129h134v-129z" />
    <glyph glyph-name="less" unicode="&#x3c;" horiz-adv-x="475" 
d="M36 363l400 200v-124l-271 -129l271 -129v-123l-400 199v106z" />
    <glyph glyph-name="equal" unicode="=" horiz-adv-x="640" 
d="M573 238v-105h-506v105h506zM573 462v-105h-506v105h506z" />
    <glyph glyph-name="greater" unicode="&#x3e;" horiz-adv-x="475" 
d="M309 310l-269 129v124l399 -200v-106l-399 -199v123z" />
    <glyph glyph-name="question" unicode="?" horiz-adv-x="591" 
d="M223.5 300.5q15.5 29.5 37 48t58.5 42.5q30 19 47.5 33t29.5 34.5t12 47.5t-13.5 48t-39 33.5t-58.5 12.5q-36 0 -62 -16.5t-39.5 -47t-12.5 -70.5h-133q0 77 31 131.5t87 82.5t129 28q71 0 126.5 -26t86.5 -72t31 -104q0 -49 -17.5 -82.5t-41.5 -52.5t-64 -44
q-30 -18 -47 -30.5t-28.5 -30.5t-11.5 -42v-19h-123v24q0 42 15.5 71.5zM203 0v129h134v-129h-134z" />
    <glyph glyph-name="at" unicode="@" horiz-adv-x="922" 
d="M707 681q80 -43 124.5 -119t44.5 -173v-77q0 -64 -19.5 -111.5t-55.5 -73.5t-85 -26t-86 19t-47 50q-14 -33 -50 -53.5t-93 -20.5q-60 0 -103 26t-65.5 73t-22.5 109t22.5 108.5t65 72.5t101.5 26q38 0 69 -14t49 -38v45h102v-251q0 -22 15.5 -36.5t38.5 -14.5
q29 0 44 26.5t15 83.5v77q0 67 -31 120.5t-87.5 83.5t-128.5 30h-115q-75 0 -133.5 -31.5t-91 -87t-32.5 -126.5v-132q0 -77 31.5 -137t88.5 -93.5t129 -33.5h231v-101l-231 -1q-103 0 -183.5 46.5t-126 129.5t-45.5 190v132q0 100 46.5 179t129 123t187.5 44h115
q103 0 183 -43zM511.5 197.5q24.5 15.5 37.5 43t13 63.5t-13 63t-37.5 42t-56.5 15t-56 -15t-37.5 -42t-13.5 -63t13.5 -63.5t37.5 -43t56 -15.5t56.5 15.5z" />
    <glyph glyph-name="A" unicode="A" horiz-adv-x="675" 
d="M472 163h-270l-60 -163h-136l269 700h124l270 -700h-137zM432 275l-94 256l-94 -256h188z" />
    <glyph glyph-name="B" unicode="B" horiz-adv-x="627" 
d="M338 700q64 0 114 -21t77.5 -61.5t27.5 -97.5q0 -46 -25 -83t-60 -55q54 -20 87 -64t33 -111q0 -64 -30 -111t-85.5 -71.5t-128.5 -24.5h-281v700h271zM407.5 447.5q26.5 21.5 26.5 62.5t-27 62.5t-80 21.5h-130v-168h132q52 0 78.5 21.5zM465 214q0 49 -32.5 74.5
t-98.5 25.5h-137v-199h137q131 0 131 99z" />
    <glyph glyph-name="C" unicode="C" horiz-adv-x="727" 
d="M209 33q-79 41 -126 121.5t-47 195.5q0 114 47.5 195t126.5 122t173 41q84 0 152.5 -30.5t111.5 -86t52 -127.5h-138q-5 38 -29.5 67.5t-63 46t-85.5 16.5q-62 0 -110.5 -28.5t-76 -83.5t-27.5 -132t27.5 -132t76 -83t110.5 -28q47 0 86.5 16.5t64.5 45.5t31 67h132
q-7 -72 -49 -127.5t-111 -86t-154 -30.5q-95 0 -174 41z" />
    <glyph glyph-name="D" unicode="D" horiz-adv-x="689" 
d="M294 700q100 0 181.5 -39.5t129.5 -118.5t48 -192t-48 -192t-129.5 -118.5t-181.5 -39.5h-227v700h227zM401 138.5q53 23.5 85.5 76.5t32.5 135t-32.5 135t-86 77t-117.5 24h-84v-471h84q65 0 118 23.5z" />
    <glyph glyph-name="E" unicode="E" horiz-adv-x="580" 
d="M533 700v-114h-334v-170h268v-114h-268v-187h345v-115h-477v700h466z" />
    <glyph glyph-name="F" unicode="F" horiz-adv-x="569" 
d="M533 700v-114h-334v-178h268v-114h-268v-294h-132v700h466z" />
    <glyph glyph-name="G" unicode="G" horiz-adv-x="741" 
d="M209 33q-78 41 -125.5 121.5t-47.5 195.5t48 195.5t128 121.5t174 41q85 0 153.5 -31t109.5 -87t46 -128h-133q-6 39 -30 69t-62 46.5t-85 16.5q-63 0 -113.5 -29t-79.5 -84t-29 -131t29 -132.5t79 -86.5t112 -30q47 0 90 19t69.5 50.5t26.5 68.5q0 17 -9.5 26.5
t-26.5 9.5h-142v101h186q30 0 57 -15t43 -41t16 -59v-261h-118v111q-13 -35 -41.5 -62t-69 -42t-86.5 -15q-91 0 -169 41z" />
    <glyph glyph-name="H" unicode="H" horiz-adv-x="710" 
d="M643 700v-700h-132v301h-312v-301h-132v700h132v-284h312v284h132z" />
    <glyph glyph-name="I" unicode="I" horiz-adv-x="267" 
d="M200 700v-700h-133v700h133z" />
    <glyph glyph-name="J" unicode="J" horiz-adv-x="349" 
d="M150 136.5q15 21.5 15 68.5v495h132v-500q0 -100 -45.5 -150t-129.5 -50h-100v115h76q37 0 52 21.5z" />
    <glyph glyph-name="K" unicode="K" horiz-adv-x="679" 
d="M298 324l-98 -106v-218h-133v700h133v-305l281 305h165l-257 -278l283 -422h-164z" />
    <glyph glyph-name="L" unicode="L" horiz-adv-x="539" 
d="M200 700v-585h327v-115h-460v700h133z" />
    <glyph glyph-name="M" unicode="M" horiz-adv-x="863" 
d="M220 700l212 -517l212 517h152v-700h-124v464l-190 -464h-100l-191 464v-464h-124v700h153z" />
    <glyph glyph-name="N" unicode="N" horiz-adv-x="712" 
d="M210 700l303 -494v494h132v-700h-142l-304 493v-493h-132v700h143z" />
    <glyph glyph-name="O" unicode="O" horiz-adv-x="779" 
d="M208.5 38.5q-80.5 46.5 -126.5 128t-46 183.5t46 183.5t126.5 128t181.5 46.5q100 0 180.5 -46.5t126.5 -128t46 -183.5t-46 -183.5t-126.5 -128t-180.5 -46.5q-101 0 -181.5 46.5zM502.5 138.5q50.5 31.5 79 87t28.5 124.5t-28.5 125t-79 87.5t-113.5 31.5t-113 -31.5
t-78.5 -87.5t-28.5 -125t28.5 -124.5t78.5 -87t113 -31.5t113.5 31.5z" />
    <glyph glyph-name="P" unicode="P" horiz-adv-x="600" 
d="M348 700q72 0 124.5 -27.5t80.5 -76.5t28 -113t-28 -113t-80.5 -76.5t-124.5 -27.5h-148v-266h-133v700h281zM424.5 407q27.5 30 27.5 76t-27.5 76t-82.5 30h-142v-212h142q55 0 82.5 30z" />
    <glyph glyph-name="Q" unicode="Q" horiz-adv-x="779" 
d="M705.5 183q-37.5 -76 -104.5 -125t-152 -62v-31q0 -39 18 -55t58 -16h88v-98h-94q-97 0 -141.5 38.5t-44.5 124.5v37q-86 13 -153.5 61.5t-105.5 124.5t-38 168q0 102 46 183.5t126.5 128t181.5 46.5q100 0 180.5 -46.5t126.5 -128t46 -183.5q0 -91 -37.5 -167z
M197.5 225.5q28.5 -55.5 78.5 -87t113 -31.5t113.5 31.5t79 87t28.5 124.5t-28.5 125t-79 87.5t-113.5 31.5t-113 -31.5t-78.5 -87.5t-28.5 -125t28.5 -124.5z" />
    <glyph glyph-name="R" unicode="R" horiz-adv-x="662" 
d="M593 0h-131l-17 172q-4 40 -29.5 65.5t-64.5 25.5h-151v-263h-133v700h287q72 0 124.5 -27.5t80 -76t27.5 -112.5q0 -52 -24.5 -90t-69.5 -61q36 -23 58 -60.5t26 -85.5zM200 377h148q55 0 82.5 30.5t27.5 76.5t-27.5 75.5t-82.5 29.5h-148v-212z" />
    <glyph glyph-name="S" unicode="S" horiz-adv-x="586" 
d="M158.5 22q-59.5 30 -94 85t-37.5 128h127q5 -59 43 -93.5t100 -34.5q58 0 92.5 23.5t34.5 68.5q0 30 -19 49t-48.5 29.5t-80.5 23.5q-72 18 -117.5 37.5t-78 61.5t-32.5 113q0 57 30.5 101.5t85.5 69t125 24.5q73 0 129.5 -26.5t89 -75.5t35.5 -114h-126q-5 46 -39 74
t-89 28q-52 0 -82 -22t-30 -59q0 -31 19.5 -50t49 -29.5t82.5 -22.5q73 -17 118.5 -35.5t78.5 -60.5t33 -114q0 -64 -33 -111t-92 -72.5t-136 -25.5q-79 0 -138.5 30z" />
    <glyph glyph-name="T" unicode="T" horiz-adv-x="573" 
d="M9 586v114h555v-114h-211v-586h-132v586h-212z" />
    <glyph glyph-name="U" unicode="U" horiz-adv-x="658" 
d="M185 22q-62 30 -96.5 89t-34.5 142v447h125v-448q0 -70 40.5 -107t109.5 -37t110 37t41 107v448h124v-447q0 -83 -34 -142t-96 -89t-145 -30q-82 0 -144 30z" />
    <glyph glyph-name="V" unicode="V" horiz-adv-x="651" 
d="M139 700l186 -537l188 537h132l-255 -700h-129l-255 700h133z" />
    <glyph glyph-name="W" unicode="W" horiz-adv-x="1012" 
d="M152 700l145 -505l152 505h113l153 -505l146 505h133l-209 -700h-130l-149 495l-149 -495h-129l-210 700h134z" />
    <glyph glyph-name="X" unicode="X" horiz-adv-x="619" 
d="M456 0l-146 239l-147 -239h-139l217 351l-214 349h137l146 -237l146 237h137l-214 -349l216 -351h-139z" />
    <glyph glyph-name="Y" unicode="Y" horiz-adv-x="618" 
d="M2 700h143l164 -286l165 286h142l-241 -409v-291h-132v291z" />
    <glyph glyph-name="Z" unicode="Z" horiz-adv-x="593" 
d="M415 587h-368v113h516v-113l-388 -474h388v-113h-536v113z" />
    <glyph glyph-name="bracketleft" unicode="[" horiz-adv-x="313" 
d="M287 753v-99h-109v-608h109v-99h-218v806h218z" />
    <glyph glyph-name="backslash" unicode="\" horiz-adv-x="449" 
d="M327 -1l-315 701h112l314 -701h-111z" />
    <glyph glyph-name="bracketright" unicode="]" horiz-adv-x="313" 
d="M26 -53v99h109v608h-109v99h219v-806h-219z" />
    <glyph glyph-name="asciicircum" unicode="^" horiz-adv-x="579" 
d="M340 700l202 -286h-122l-130 181l-131 -181h-122l203 286h100z" />
    <glyph glyph-name="underscore" unicode="_" horiz-adv-x="640" 
d="M573 0v-105h-506v105h506z" />
    <glyph glyph-name="grave" unicode="`" horiz-adv-x="307" 
d="M50 708h133l74 -148h-105z" />
    <glyph glyph-name="a" unicode="a" horiz-adv-x="525" 
d="M373.5 488.5q49.5 -23.5 77 -66t27.5 -98.5v-324h-121v75q-16 -38 -56.5 -60.5t-94.5 -22.5q-49 0 -87.5 19.5t-59.5 54t-21 77.5q0 48 23.5 84t66.5 55.5t99 19.5h93q18 0 27.5 9t9.5 25q0 37 -27.5 60.5t-75.5 23.5q-31 0 -55 -12t-37 -31.5t-14 -42.5h-110
q3 50 31 90.5t77.5 64t113.5 23.5t113.5 -23.5zM300.5 99.5q27.5 16.5 42 46t14.5 67.5v8h-113q-39 0 -63 -20t-24 -53q0 -29 21.5 -47t56.5 -18q38 0 65.5 16.5z" />
    <glyph glyph-name="b" unicode="b" horiz-adv-x="599" 
d="M245 11q-39 19 -61 52v-63h-122v720h122v-277q22 32 61 50.5t87 18.5q73 0 127 -32.5t82.5 -91.5t28.5 -136t-28.5 -136t-83 -91.5t-128.5 -32.5q-46 0 -85 19zM383.5 117q30.5 19 47.5 54t17 81t-17 81t-47.5 54t-71.5 19t-71.5 -19t-47.5 -54t-17 -81t17 -81t47.5 -54
t71.5 -19t71.5 19z" />
    <glyph glyph-name="c" unicode="c" horiz-adv-x="552" 
d="M149 26.5q-58 34.5 -89.5 94t-31.5 131.5t31.5 131.5t89.5 94t135 34.5q63 0 116 -24t86.5 -67.5t38.5 -100.5h-122q-4 25 -21 44.5t-41.5 30.5t-53.5 11q-41 0 -71 -20t-45 -54.5t-15 -79.5q0 -44 15.5 -79t45.5 -55t72 -20q43 0 74.5 22.5t40.5 60.5h124
q-8 -55 -41.5 -98t-86 -67t-116.5 -24q-77 0 -135 34.5z" />
    <glyph glyph-name="d" unicode="d" horiz-adv-x="598" 
d="M139.5 24.5q-54.5 32.5 -83 91.5t-28.5 136t28.5 136t82.5 91.5t127 32.5q48 0 87 -18.5t61 -50.5v277h122v-720h-122v63q-22 -33 -61 -52t-85 -19q-74 0 -128.5 32.5zM357.5 117q30.5 19 47.5 54t17 81t-17 81t-47.5 54t-71.5 19t-71.5 -19t-47.5 -54t-17 -81t17 -81
t47.5 -54t71.5 -19t71.5 19z" />
    <glyph glyph-name="e" unicode="e" horiz-adv-x="550" 
d="M522 168q-9 -53 -42 -93t-83.5 -61.5t-111.5 -21.5q-79 0 -137.5 37t-89 97t-30.5 128q0 69 28 127.5t84 94.5t135 36q80 0 135.5 -34.5t82.5 -90t27 -118.5q0 -22 -2 -42h-372q7 -61 44 -97t95 -36q47 0 77 19t40 55h120zM191 392q-32 -28 -42 -84h248q-3 32 -18 57.5
t-41.5 40t-62.5 14.5q-52 0 -84 -28z" />
    <glyph glyph-name="f" unicode="f" horiz-adv-x="410" 
d="M18 401v103h99v47q0 51 22.5 89t63 59t94.5 21h90v-104h-76q-32 0 -51.5 -19t-19.5 -52v-41h147v-103h-147v-401h-123v401h-99z" />
    <glyph glyph-name="g" unicode="g" horiz-adv-x="605" 
d="M543 504v-532q0 -52 -23.5 -92t-66.5 -62t-99 -22h-249v98h232q24 0 43 11.5t30 32t11 46.5v72q-19 -29 -59 -46.5t-87 -17.5q-75 0 -129 32.5t-82.5 91.5t-28.5 136t28.5 136t82 91.5t127.5 32.5q47 0 86 -17.5t61 -47.5v57h123zM364 117q31 19 48 54t17 81t-17 81
t-48 54t-72 19t-71.5 -19t-47 -54t-16.5 -81t16.5 -81t47 -54t71.5 -19t72 19z" />
    <glyph glyph-name="h" unicode="h" horiz-adv-x="584" 
d="M184 720v-294q21 41 62.5 63.5t95.5 22.5q56 0 98.5 -25.5t65.5 -70.5t23 -104v-312h-122v286q0 34 -13.5 60.5t-37.5 41.5t-55 15q-34 0 -60.5 -16.5t-41.5 -45.5t-15 -66v-275h-122v720h122z" />
    <glyph glyph-name="i" unicode="i" horiz-adv-x="233" 
d="M178 504v-504h-123v504h123zM182 583h-132v137h132v-137z" />
    <glyph glyph-name="j" unicode="j" horiz-adv-x="233" 
d="M177 504v-540q0 -80 -42 -124t-125 -44h-54v98h36q35 0 49 20t14 62v528h122zM183 583h-132v137h132v-137z" />
    <glyph glyph-name="k" unicode="k" horiz-adv-x="558" 
d="M245 225l-60 -58v-167h-123v720h123v-400l193 184h156l-205 -198l222 -306h-149z" />
    <glyph glyph-name="l" unicode="l" horiz-adv-x="246" 
d="M184 720v-720h-122v720h122z" />
    <glyph glyph-name="m" unicode="m" horiz-adv-x="882" 
d="M178 504v-79q20 40 57.5 63.5t88.5 23.5q60 0 100 -24.5t57 -71.5q12 26 36 48t58 35t73 13q53 0 94 -24t63 -66.5t22 -95.5v-326h-122v289q0 54 -26 86t-70 32q-49 0 -78 -32t-29 -86v-289h-122v289q0 54 -26 86t-70 32q-32 0 -56 -14.5t-37 -41.5t-13 -62v-289h-123
v504h123z" />
    <glyph glyph-name="n" unicode="n" horiz-adv-x="578" 
d="M178 504v-78q21 41 62 63.5t95 22.5q56 0 98.5 -25.5t66 -70.5t23.5 -104v-312h-123v286q0 34 -13 60.5t-37 41.5t-55 15q-34 0 -60.5 -16.5t-41.5 -45.5t-15 -66v-275h-123v504h123z" />
    <glyph glyph-name="o" unicode="o" horiz-adv-x="583" 
d="M156 25.5q-60 33.5 -94 93t-34 133.5t34 133.5t94 93t136 33.5q75 0 135 -33.5t94 -93t34 -133.5t-34 -133.5t-94 -93t-135 -33.5q-76 0 -136 33.5zM364.5 117.5q31.5 19.5 49 54.5t17.5 80t-17.5 80t-49 54.5t-72.5 19.5t-73 -19.5t-49.5 -54.5t-17.5 -80t17.5 -80
t49.5 -54.5t73 -19.5t72.5 19.5z" />
    <glyph glyph-name="p" unicode="p" horiz-adv-x="598" 
d="M184 504v-63q23 33 63 52t89 19q71 0 124 -32.5t81.5 -91.5t28.5 -136t-30 -136t-85 -91.5t-128 -32.5q-46 0 -84 17t-59 46v-259h-122v708h122zM383.5 117q30.5 19 47.5 54t17 81t-17 81t-47.5 54t-70.5 19q-41 0 -72 -19t-48 -54t-17 -81t17 -81t48 -54t72 -19
q40 0 70.5 19z" />
    <glyph glyph-name="q" unicode="q" horiz-adv-x="599" 
d="M414 -204v259q-21 -29 -58.5 -46t-83.5 -17q-73 0 -128.5 32.5t-85.5 91.5t-30 136t28.5 136t81.5 91.5t125 32.5q49 0 88.5 -19t62.5 -52v63h122v-708h-122zM357.5 117q30.5 19 47.5 54t17 81t-17 81t-47.5 54t-71.5 19t-71.5 -19t-47.5 -54t-17 -81t17 -81t47.5 -54
t71.5 -19t71.5 19z" />
    <glyph glyph-name="r" unicode="r" horiz-adv-x="382" 
d="M204.5 357.5q-26.5 -43.5 -26.5 -119.5v-238h-123v504h123v-89q19 48 49.5 68.5t79.5 20.5h59v-103h-79q-56 0 -82.5 -43.5z" />
    <glyph glyph-name="s" unicode="s" horiz-adv-x="463" 
d="M130 13.5q-46 21.5 -72.5 61t-29.5 93.5h112q4 -36 30 -57t67 -21q23 0 41.5 7t28.5 19.5t10 27.5q0 22 -13.5 34.5t-34 18t-57.5 12.5q-54 10 -88 22t-58.5 43t-24.5 88q0 43 23.5 77.5t65 53.5t92.5 19q58 0 103.5 -20.5t72 -57t28.5 -85.5h-112q-3 22 -16.5 38.5
t-33 24.5t-39.5 8q-33 0 -53 -14.5t-20 -39.5q0 -21 13 -32.5t33 -16t56 -9.5q56 -8 91 -19.5t61 -44t26 -95.5q0 -47 -24 -82.5t-68.5 -55t-102.5 -19.5q-61 0 -107 21.5z" />
    <glyph glyph-name="t" unicode="t" horiz-adv-x="403" 
d="M240 504h140v-103h-140v-220q0 -38 19 -57.5t54 -19.5h67v-104h-81q-55 0 -96 21t-63.5 60.5t-22.5 94.5v225h-99v103h99v152h123v-152z" />
    <glyph glyph-name="u" unicode="u" horiz-adv-x="578" 
d="M400 78q-21 -41 -62 -63.5t-95 -22.5q-56 0 -98.5 25.5t-65.5 70.5t-23 104v312h122v-286q0 -34 13.5 -60.5t37 -41.5t54.5 -15q34 0 60.5 16.5t41.5 45.5t15 66v275h123v-504h-123v78z" />
    <glyph glyph-name="v" unicode="v" horiz-adv-x="500" 
d="M133 504l117 -348l116 348h126l-185 -504h-115l-184 504h125z" />
    <glyph glyph-name="w" unicode="w" horiz-adv-x="767" 
d="M136 504l92 -337l99 337h113l99 -337l93 337h122l-160 -504h-109l-101 339l-102 -339h-108l-161 504h123z" />
    <glyph glyph-name="x" unicode="x" horiz-adv-x="517" 
d="M377 0l-118 168l-118 -168h-131l182 263l-168 241h134l101 -145l100 145h135l-169 -241l182 -263h-130z" />
    <glyph glyph-name="y" unicode="y" horiz-adv-x="500" 
d="M316 24l-78 -228h-117l71 204l-184 504h125l117 -346l116 346h126z" />
    <glyph glyph-name="z" unicode="z" horiz-adv-x="498" 
d="M312 401h-261v103h401v-103l-275 -297h290v-104h-433v104z" />
    <glyph glyph-name="braceleft" unicode="{" horiz-adv-x="331" 
d="M172.5 -37.5q-23.5 12.5 -36.5 35.5t-13 54v173q0 42 -18.5 60t-61.5 18v94q43 0 61.5 18t18.5 60v173q0 31 13 54t36.5 35.5t54.5 12.5h85v-101h-28q-27 0 -38 -10.5t-11 -37.5v-153q0 -46 -18.5 -68.5t-54.5 -29.5q36 -7 54.5 -29.5t18.5 -68.5v-153q0 -26 10.5 -36.5
t38.5 -10.5h28v-102h-85q-31 0 -54.5 12.5z" />
    <glyph glyph-name="bar" unicode="|" horiz-adv-x="255" 
d="M188 750v-800h-121v800h121z" />
    <glyph glyph-name="braceright" unicode="}" horiz-adv-x="331" 
d="M19 52h29q27 0 37.5 10.5t10.5 36.5v153q0 46 18.5 68.5t54.5 29.5q-36 7 -54.5 29.5t-18.5 68.5v153q0 26 -10.5 37t-37.5 11h-29v101h85q31 0 54.5 -12.5t36.5 -35.5t13 -54v-173q0 -42 18.5 -60t61.5 -18v-94q-43 0 -61.5 -18t-18.5 -60v-173q0 -31 -13 -54
t-36.5 -35.5t-54.5 -12.5h-85v102z" />
    <glyph glyph-name="asciitilde" unicode="~" horiz-adv-x="677" 
d="M393.5 240q-20.5 6 -35.5 14.5t-37 22.5q-24 16 -40.5 24t-35.5 8q-27 0 -43.5 -20.5t-19.5 -55.5h-115q3 58 26.5 102t62 68t85.5 24q35 0 61.5 -11.5t57.5 -32.5q26 -16 41 -23.5t33 -7.5q25 0 41.5 19t20.5 57h114q-3 -59 -26.5 -103t-61.5 -67.5t-84 -23.5
q-24 0 -44.5 6z" />
    <glyph glyph-name="uni00A0" unicode="&#xa0;" horiz-adv-x="219" 
d="M0 0z" />
    <glyph glyph-name="exclamdown" unicode="&#xa1;" horiz-adv-x="304" 
d="M69 367v129h133v-129h-133zM183 309l30 -513h-156l30 513h96z" />
    <glyph glyph-name="cent" unicode="&#xa2;" horiz-adv-x="552" 
d="M497 97.5q-25 -37.5 -64 -63.5t-88 -36v-106h-113v105q-62 11 -108.5 47t-71 90t-24.5 118t24.5 118t71 90t108.5 47v105h113v-106q49 -10 88.5 -35.5t63.5 -64t28 -86.5h-122q-4 25 -21 44.5t-41.5 30.5t-53.5 11q-41 0 -71 -20t-45 -54.5t-15 -79.5q0 -44 15.5 -79
t45.5 -55t72 -20q43 0 74.5 22.5t40.5 60.5h124q-6 -46 -31 -83.5z" />
    <glyph glyph-name="sterling" unicode="&#xa3;" horiz-adv-x="614" 
d="M578 196v-70q0 -61 -32.5 -93.5t-94.5 -32.5h-394v108q50 32 72 74.5t22 95.5q0 7 -2 23h-115v102h75q-23 51 -23 95q0 64 29 111.5t81 73t121 25.5q68 0 120 -26.5t82 -74t34 -110.5h-131q-4 48 -32.5 72.5t-72.5 24.5q-29 0 -51.5 -12t-35.5 -35.5t-13 -55.5
q0 -23 6 -43.5t18 -44.5h216v-102h-176q2 -14 2 -23q0 -42 -20 -85.5t-52 -77.5h200q17 0 26 9.5t9 25.5v46h132z" />
    <glyph glyph-name="currency" unicode="&#xa4;" horiz-adv-x="655" 
d="M581 174q-11 -37 -31 -68l70 -70l-77 -77l-71 71q-65 -38 -144 -38q-82 0 -144 39l-71 -72l-78 77l71 71q-41 65 -41 145t41 145l-71 71l77 77l71 -72q64 39 145 39q82 0 144 -39l72 72l76 -77l-69 -70q20 -31 30.5 -68t10.5 -78t-11 -78zM401 117.5q32 19.5 49.5 54.5
t17.5 80t-17.5 80t-49.5 54.5t-73 19.5t-72.5 -19.5t-49 -54.5t-17.5 -80t17.5 -80t49 -54.5t72.5 -19.5t73 19.5z" />
    <glyph glyph-name="yen" unicode="&#xa5;" horiz-adv-x="618" 
d="M424 375h133v-87h-182v-80h182v-87h-182v-121h-132v121h-180v87h180v80h-180v87h131l-192 325h143l164 -286l165 286h142z" />
    <glyph glyph-name="brokenbar" unicode="&#xa6;" horiz-adv-x="255" 
d="M188 750v-349h-121v349h121zM188 299v-349h-121v349h121z" />
    <glyph glyph-name="section" unicode="&#xa7;" horiz-adv-x="568" 
d="M524.5 166q-15.5 -31 -42.5 -57q42 -45 42 -117q0 -63 -30 -109t-85 -70.5t-128 -24.5t-129 28.5t-88 80.5t-35 121h125q5 -53 38.5 -84t88.5 -31q51 0 81 21t30 61q0 27 -18 43.5t-44.5 25.5t-75.5 21q-70 17 -114 35.5t-76 58.5t-32 109q0 33 17 63.5t45 55.5
q-22 23 -34 53.5t-12 72.5q0 54 28.5 96t80 65.5t116.5 23.5q69 0 122 -25t83 -71.5t32 -108.5h-122q-5 42 -35.5 66t-79.5 24q-45 0 -71 -19t-26 -51q0 -28 18.5 -45t46 -26.5t76.5 -20.5q71 -16 115 -33t76 -56.5t32 -109.5q0 -35 -15.5 -66zM178.5 233
q18.5 -17 46.5 -26.5t77 -20.5q36 -8 71 -18q34 26 34 62q0 27 -18 43.5t-45 26t-74 20.5q-12 3 -32.5 8.5t-34.5 9.5q-20 -11 -31.5 -26.5t-11.5 -33.5q0 -28 18.5 -45z" />
    <glyph glyph-name="dieresis" unicode="&#xa8;" horiz-adv-x="398" 
d="M348 584h-109v114h109v-114zM159 584h-109v113h109v-113z" />
    <glyph glyph-name="copyright" unicode="&#xa9;" horiz-adv-x="905" 
d="M257.5 11q-89.5 51 -140 140t-50.5 199t50.5 199t140 140t199.5 51t199 -51t140 -140t51 -199t-51 -199t-140 -140t-199 -51t-199.5 51zM618.5 71q72.5 42 114 115t41.5 164t-41.5 164t-114 115t-161.5 42q-90 0 -163 -42t-114 -115t-41 -164t41 -164t114 -115t163 -42
q89 0 161.5 42zM351.5 162.5q-47.5 24.5 -76 73t-28.5 117.5q0 68 28.5 117t76.5 73.5t105 24.5q51 0 93.5 -18.5t69 -52.5t32.5 -80h-94q-5 33 -33 53t-68 20q-34 0 -61.5 -16t-43 -47t-15.5 -74q0 -44 15.5 -75t42.5 -47t62 -16q41 0 69 19.5t35 53.5h89q-4 -45 -29.5 -79
t-68 -52.5t-95.5 -18.5q-58 0 -105.5 24.5z" />
    <glyph glyph-name="ordfeminine" unicode="&#xaa;" horiz-adv-x="309" 
d="M219 694q30 -14 47 -39t17 -58v-196h-78v43q-8 -21 -32 -34.5t-54 -13.5q-28 0 -51 12t-35.5 33t-12.5 46q0 45 29.5 70t81.5 25h54q9 0 14.5 5t5.5 15v1q0 19 -15.5 32t-39.5 13q-26 0 -41 -14.5t-15 -34.5h-74q2 30 18 55t45 39.5t66 14.5q40 0 70 -14zM187.5 475.5
q17.5 18.5 17.5 49.5v6h-58q-24 0 -36 -10.5t-12 -29.5q0 -15 11.5 -24.5t28.5 -9.5q31 0 48.5 18.5z" />
    <glyph glyph-name="guillemotleft" unicode="&#xab;" horiz-adv-x="648" 
d="M302 346l314 215v-124l-190 -127l190 -127v-124l-314 215v72zM17 346l314 215v-124l-190 -127l190 -127v-124l-314 215v72z" />
    <glyph glyph-name="logicalnot" unicode="&#xac;" horiz-adv-x="593" 
d="M45 297v109h495v-277h-123v168h-372z" />
    <glyph glyph-name="uni00AD" unicode="&#xad;" horiz-adv-x="600" 
d="M434 370v-105h-386v105h386z" />
    <glyph glyph-name="registered" unicode="&#xae;" horiz-adv-x="903" 
d="M257.5 11q-89.5 51 -140 140t-50.5 199t50.5 199t140 140t199.5 51t199 -51t140 -140t51 -199t-51 -199t-140 -140t-199 -51t-199.5 51zM618.5 71q72.5 42 114 115t41.5 164t-41.5 164t-114 115t-161.5 42q-90 0 -163 -42t-114 -115t-41 -164t41 -164t114 -115t163 -42
q89 0 161.5 42zM475 565q44 0 76 -17t49 -46.5t17 -68.5q0 -31 -14 -53t-39 -35q42 -29 47 -84l11 -116h-88l-11 104q-2 22 -16.5 35.5t-35.5 13.5h-82v-153h-90v420h176zM515.5 391.5q15.5 16.5 15.5 41.5q0 24 -15.5 41t-45.5 17h-81v-116h81q30 0 45.5 16.5z" />
    <glyph glyph-name="macron" unicode="&#xaf;" horiz-adv-x="377" 
d="M327 679v-94h-276v94h276z" />
    <glyph glyph-name="degree" unicode="&#xb0;" horiz-adv-x="358" 
d="M109.5 469q-30.5 17 -48 46t-17.5 66t17.5 66t48 46t69.5 17q38 0 69 -17t48.5 -46t17.5 -66t-17.5 -66t-48.5 -46t-69 -17q-39 0 -69.5 17zM219.5 542q15.5 15 15.5 39t-15.5 38.5t-40.5 14.5t-41 -14.5t-16 -38.5t16 -39t41 -15t40.5 15z" />
    <glyph glyph-name="plusminus" unicode="&#xb1;" horiz-adv-x="598" 
d="M573 403h-201v-200h-105v200h-200v105h200v200h105v-200h201v-105zM573 105v-105h-506v105h506z" />
    <glyph glyph-name="uni00B2" unicode="&#xb2;" horiz-adv-x="350" 
d="M44.5 673q18.5 35 53 53.5t81.5 18.5q44 0 78 -16.5t53 -46.5t19 -69q0 -42 -24 -74.5t-76 -59.5l-48 -25q-54 -29 -56 -57h203v-77h-299l-1 62q-1 46 28.5 79.5t68.5 52.5l67 34q23 11 35.5 28t12.5 38q0 27 -17 42.5t-44 15.5q-30 0 -47 -22t-15 -59h-90q-1 47 17.5 82
z" />
    <glyph glyph-name="uni00B3" unicode="&#xb3;" horiz-adv-x="372" 
d="M108 331.5q-36 16.5 -57 48t-21 73.5h86q0 -29 20.5 -45t51.5 -16q32 0 50 15t18 40t-18 39t-50 14h-39v73h37q25 0 40 14.5t15 37.5q0 22 -16 34.5t-43 12.5q-25 0 -42.5 -14.5t-17.5 -41.5h-81q0 38 19.5 67t52 45.5t71.5 16.5q40 0 73 -15.5t52 -41.5t19 -57
q0 -26 -14 -50t-36 -39q68 -32 68 -98q0 -39 -21.5 -68.5t-57.5 -45t-79 -15.5q-44 0 -80 16.5z" />
    <glyph glyph-name="acute" unicode="&#xb4;" horiz-adv-x="307" 
d="M257 708l-101 -148h-106l75 148h132z" />
    <glyph glyph-name="uni00B5" unicode="&#xb5;" horiz-adv-x="578" 
d="M523 504v-504h-123v78q-16 -41 -52 -63.5t-82 -22.5q-45 0 -88 30v-226h-123v708h123v-286q0 -34 13 -60.5t37 -41.5t55 -15q34 0 60.5 16.5t41.5 45.5t15 66v275h123z" />
    <glyph glyph-name="paragraph" unicode="&#xb6;" horiz-adv-x="721" 
d="M151.5 301q-51.5 29 -81.5 78t-30 107t30 107t81.5 78t111.5 29h413v-98h-64v-806h-111v806h-127v-806h-111v476q-60 0 -111.5 29z" />
    <glyph glyph-name="periodcentered" unicode="&#xb7;" horiz-adv-x="270" 
d="M179 281h-132v137h132v-137z" />
    <glyph glyph-name="cedilla" unicode="&#xb8;" horiz-adv-x="320" 
d="M184 17l-36 -78q6 1 19 1q31 0 54.5 -12t36 -32.5t12.5 -43.5q0 -28 -18 -50t-50 -35t-71 -13q-33 0 -81 14v64q43 -14 80 -14q25 0 41 9t16 24q0 16 -15.5 25.5t-39.5 9.5q-17 0 -32 -4l-30 27l45 108h69z" />
    <glyph glyph-name="uni00B9" unicode="&#xb9;" horiz-adv-x="241" 
d="M108 320v301q-6 -8 -22.5 -13t-32.5 -5h-30v77h29q27 0 41.5 13t19.5 47h84v-420h-89z" />
    <glyph glyph-name="ordmasculine" unicode="&#xba;" horiz-adv-x="359" 
d="M97 416q-36 20 -56.5 55.5t-20.5 80.5t20.5 80.5t56.5 55.5t82 20t82.5 -20t57 -56t20.5 -80t-20.5 -80t-57 -56t-82.5 -20t-82 20zM234 490.5q21 23.5 21 61.5t-21 61.5t-55 23.5t-55 -23.5t-21 -61.5t21 -61.5t55 -23.5t55 23.5z" />
    <glyph glyph-name="guillemotright" unicode="&#xbb;" horiz-adv-x="649" 
d="M317 183l189 127l-189 127v124l313 -215v-72l-313 -215v124zM32 183l189 127l-189 127v124l313 -215v-72l-313 -215v124z" />
    <glyph glyph-name="onequarter" unicode="&#xbc;" horiz-adv-x="848" 
d="M108 280v301q-6 -8 -22.5 -13t-32.5 -5h-30v77h29q27 0 41.5 13t19.5 47h84v-420h-89zM705 700l-508 -700h-109l508 700h109zM471 84v76l205 260h96v-260h48v-76h-48v-84h-90v84h-211zM682 311l-123 -151h123v151z" />
    <glyph glyph-name="onehalf" unicode="&#xbd;" horiz-adv-x="859" 
d="M108 280v301q-6 -8 -22.5 -13t-32.5 -5h-30v77h29q27 0 41.5 13t19.5 47h84v-420h-89zM705 700l-508 -700h-109l508 700h109zM570.5 353q18.5 35 53 53.5t81.5 18.5q44 0 78 -16.5t53 -46.5t19 -69q0 -42 -24 -74.5t-76 -59.5l-48 -25q-54 -29 -56 -57h203v-77h-299
l-1 62q-1 46 28.5 79.5t68.5 52.5l67 34q23 11 35.5 28t12.5 38q0 27 -17 42.5t-44 15.5q-30 0 -47 -22t-15 -59h-90q-1 47 17.5 82z" />
    <glyph glyph-name="threequarters" unicode="&#xbe;" horiz-adv-x="952" 
d="M108 291.5q-36 16.5 -57 48t-21 73.5h86q0 -29 20.5 -45t51.5 -16q32 0 50 15t18 40t-18 39t-50 14h-39v73h37q25 0 40 14.5t15 37.5q0 22 -16 34.5t-43 12.5q-25 0 -42.5 -14.5t-17.5 -41.5h-81q0 38 19.5 67t52 45.5t71.5 16.5q40 0 73 -15.5t52 -41.5t19 -57
q0 -26 -14 -50t-36 -39q68 -32 68 -98q0 -39 -21.5 -68.5t-57.5 -45t-79 -15.5q-44 0 -80 16.5zM810 700l-508 -700h-109l508 700h109zM576 84v76l205 260h96v-260h48v-76h-48v-84h-90v84h-211zM787 311l-123 -151h123v151z" />
    <glyph glyph-name="questiondown" unicode="&#xbf;" horiz-adv-x="460" 
d="M278 367h-133v129h133v-129zM257.5 195.5q-15.5 -29.5 -37 -48t-58.5 -42.5q-30 -19 -47.5 -33t-29.5 -34.5t-12 -47.5q0 -26 14 -47.5t39.5 -34t58.5 -12.5q54 0 84 36.5t30 97.5h133q-1 -77 -32 -131.5t-86.5 -82.5t-128.5 -28q-72 0 -127.5 26t-86.5 72t-31 104
q0 49 17.5 82.5t41.5 52.5t64 44q30 18 47 30.5t28.5 30.5t11.5 42v19h123v-24q0 -42 -15.5 -71.5z" />
    <glyph glyph-name="Agrave" unicode="&#xc0;" horiz-adv-x="675" 
d="M472 163h-270l-60 -163h-136l269 700h124l270 -700h-137zM432 275l-94 256l-94 -256h188zM182 904h133l74 -148h-105z" />
    <glyph glyph-name="Aacute" unicode="&#xc1;" horiz-adv-x="675" 
d="M472 163h-270l-60 -163h-136l269 700h124l270 -700h-137zM432 275l-94 256l-94 -256h188zM492 904l-101 -148h-106l75 148h132z" />
    <glyph glyph-name="Acircumflex" unicode="&#xc2;" horiz-adv-x="675" 
d="M472 163h-270l-60 -163h-136l269 700h124l270 -700h-137zM432 275l-94 256l-94 -256h188zM500 756h-106l-56 66l-57 -66h-104l108 140h107z" />
    <glyph glyph-name="Atilde" unicode="&#xc3;" horiz-adv-x="675" 
d="M472 163h-270l-60 -163h-136l269 700h124l270 -700h-137zM432 275l-94 256l-94 -256h188zM361 774q-15 6 -35 17q-12 7 -21 11t-19 4q-15 0 -25.5 -9.5t-12.5 -25.5h-80q0 36 14.5 65t40 45.5t55.5 16.5q21 0 36.5 -6t33.5 -17q13 -8 22 -12t19 -4q15 0 26 10t14 26h79
q-1 -38 -16 -67t-40 -44.5t-55 -15.5q-21 0 -36 6z" />
    <glyph glyph-name="Adieresis" unicode="&#xc4;" horiz-adv-x="675" 
d="M472 163h-270l-60 -163h-136l269 700h124l270 -700h-137zM432 275l-94 256l-94 -256h188zM484 780h-109v114h109v-114zM295 780h-109v113h109v-113z" />
    <glyph glyph-name="Aring" unicode="&#xc5;" horiz-adv-x="675" 
d="M472 163h-270l-60 -163h-136l269 700h124l270 -700h-137zM432 275l-94 256l-94 -256h188zM269 757.5q-30 15.5 -47 43t-17 62.5q0 34 17 61.5t47.5 43.5t67.5 16q38 0 69 -16t48 -43.5t17 -61.5q0 -35 -17 -62.5t-48 -43t-69 -15.5t-68 15.5zM380.5 823q16.5 15 16.5 40
q0 24 -16.5 39t-43.5 15q-26 0 -42 -15t-16 -39q0 -25 16 -40t42 -15q27 0 43.5 15z" />
    <glyph glyph-name="AE" unicode="&#xc6;" horiz-adv-x="960" 
d="M924 115v-115h-427v164h-253l-97 -164h-141l434 700h473v-114h-284v-170h218v-114h-218v-187h295zM497 279v314l-185 -314h185z" />
    <glyph glyph-name="Ccedilla" unicode="&#xc7;" horiz-adv-x="727" 
d="M209 33q-79 41 -126 121.5t-47 195.5q0 114 47.5 195t126.5 122t173 41q84 0 152.5 -30.5t111.5 -86t52 -127.5h-138q-5 38 -29.5 67.5t-63 46t-85.5 16.5q-62 0 -110.5 -28.5t-76 -83.5t-27.5 -132t27.5 -132t76 -83t110.5 -28q47 0 86.5 16.5t64.5 45.5t31 67h132
q-7 -72 -49 -127.5t-111 -86t-154 -30.5q-95 0 -174 41zM401 17l-36 -78q6 1 19 1q31 0 54.5 -12t36 -32.5t12.5 -43.5q0 -28 -18 -50t-50 -35t-71 -13q-33 0 -81 14v64q43 -14 80 -14q25 0 41 9t16 24q0 16 -15.5 25.5t-39.5 9.5q-17 0 -32 -4l-30 27l45 108h69z" />
    <glyph glyph-name="Egrave" unicode="&#xc8;" horiz-adv-x="580" 
d="M533 700v-114h-334v-170h268v-114h-268v-187h345v-115h-477v700h466zM148 904h133l74 -148h-105z" />
    <glyph glyph-name="Eacute" unicode="&#xc9;" horiz-adv-x="580" 
d="M533 700v-114h-334v-170h268v-114h-268v-187h345v-115h-477v700h466zM458 904l-101 -148h-106l75 148h132z" />
    <glyph glyph-name="Ecircumflex" unicode="&#xca;" horiz-adv-x="580" 
d="M533 700v-114h-334v-170h268v-114h-268v-187h345v-115h-477v700h466zM466 756h-106l-56 66l-57 -66h-104l108 140h107z" />
    <glyph glyph-name="Edieresis" unicode="&#xcb;" horiz-adv-x="580" 
d="M533 700v-114h-334v-170h268v-114h-268v-187h345v-115h-477v700h466zM450 780h-109v114h109v-114zM261 780h-109v113h109v-113z" />
    <glyph glyph-name="Igrave" unicode="&#xcc;" horiz-adv-x="267" 
d="M200 700v-700h-133v700h133zM-22 904h133l74 -148h-105z" />
    <glyph glyph-name="Iacute" unicode="&#xcd;" horiz-adv-x="267" 
d="M200 700v-700h-133v700h133zM288 904l-101 -148h-106l75 148h132z" />
    <glyph glyph-name="Icircumflex" unicode="&#xce;" horiz-adv-x="267" 
d="M200 700v-700h-133v700h133zM296 756h-106l-56 66l-57 -66h-104l108 140h107z" />
    <glyph glyph-name="Idieresis" unicode="&#xcf;" horiz-adv-x="267" 
d="M200 700v-700h-133v700h133zM280 780h-109v114h109v-114zM91 780h-109v113h109v-113z" />
    <glyph glyph-name="Eth" unicode="&#xd0;" horiz-adv-x="769" 
d="M555.5 660.5q81.5 -39.5 129.5 -118.5t48 -192t-48 -192t-129.5 -118.5t-181.5 -39.5h-227v303h-99v98h99v299h227q100 0 181.5 -39.5zM481 138.5q53 23.5 85.5 76.5t32.5 135t-32.5 135t-86 77t-117.5 24h-84v-185h160v-98h-160v-188h84q65 0 118 23.5z" />
    <glyph glyph-name="Ntilde" unicode="&#xd1;" horiz-adv-x="712" 
d="M210 700l303 -494v494h132v-700h-142l-304 493v-493h-132v700h143zM380 774q-15 6 -35 17q-12 7 -21 11t-19 4q-15 0 -25.5 -9.5t-12.5 -25.5h-80q0 36 14.5 65t40 45.5t55.5 16.5q21 0 36.5 -6t33.5 -17q13 -8 22 -12t19 -4q15 0 26 10t14 26h79q-1 -38 -16 -67
t-40 -44.5t-55 -15.5q-21 0 -36 6z" />
    <glyph glyph-name="Ograve" unicode="&#xd2;" horiz-adv-x="779" 
d="M208.5 38.5q-80.5 46.5 -126.5 128t-46 183.5t46 183.5t126.5 128t181.5 46.5q100 0 180.5 -46.5t126.5 -128t46 -183.5t-46 -183.5t-126.5 -128t-180.5 -46.5q-101 0 -181.5 46.5zM502.5 138.5q50.5 31.5 79 87t28.5 124.5t-28.5 125t-79 87.5t-113.5 31.5t-113 -31.5
t-78.5 -87.5t-28.5 -125t28.5 -124.5t78.5 -87t113 -31.5t113.5 31.5zM235 904h133l74 -148h-105z" />
    <glyph glyph-name="Oacute" unicode="&#xd3;" horiz-adv-x="779" 
d="M208.5 38.5q-80.5 46.5 -126.5 128t-46 183.5t46 183.5t126.5 128t181.5 46.5q100 0 180.5 -46.5t126.5 -128t46 -183.5t-46 -183.5t-126.5 -128t-180.5 -46.5q-101 0 -181.5 46.5zM502.5 138.5q50.5 31.5 79 87t28.5 124.5t-28.5 125t-79 87.5t-113.5 31.5t-113 -31.5
t-78.5 -87.5t-28.5 -125t28.5 -124.5t78.5 -87t113 -31.5t113.5 31.5zM545 904l-101 -148h-106l75 148h132z" />
    <glyph glyph-name="Ocircumflex" unicode="&#xd4;" horiz-adv-x="779" 
d="M208.5 38.5q-80.5 46.5 -126.5 128t-46 183.5t46 183.5t126.5 128t181.5 46.5q100 0 180.5 -46.5t126.5 -128t46 -183.5t-46 -183.5t-126.5 -128t-180.5 -46.5q-101 0 -181.5 46.5zM502.5 138.5q50.5 31.5 79 87t28.5 124.5t-28.5 125t-79 87.5t-113.5 31.5t-113 -31.5
t-78.5 -87.5t-28.5 -125t28.5 -124.5t78.5 -87t113 -31.5t113.5 31.5zM553 756h-106l-56 66l-57 -66h-104l108 140h107z" />
    <glyph glyph-name="Otilde" unicode="&#xd5;" horiz-adv-x="779" 
d="M208.5 38.5q-80.5 46.5 -126.5 128t-46 183.5t46 183.5t126.5 128t181.5 46.5q100 0 180.5 -46.5t126.5 -128t46 -183.5t-46 -183.5t-126.5 -128t-180.5 -46.5q-101 0 -181.5 46.5zM502.5 138.5q50.5 31.5 79 87t28.5 124.5t-28.5 125t-79 87.5t-113.5 31.5t-113 -31.5
t-78.5 -87.5t-28.5 -125t28.5 -124.5t78.5 -87t113 -31.5t113.5 31.5zM413 774q-15 6 -35 17q-12 7 -21 11t-19 4q-15 0 -25.5 -9.5t-12.5 -25.5h-80q0 36 14.5 65t40 45.5t55.5 16.5q21 0 36.5 -6t33.5 -17q13 -8 22 -12t19 -4q15 0 26 10t14 26h79q-1 -38 -16 -67
t-40 -44.5t-55 -15.5q-21 0 -36 6z" />
    <glyph glyph-name="Odieresis" unicode="&#xd6;" horiz-adv-x="779" 
d="M208.5 38.5q-80.5 46.5 -126.5 128t-46 183.5t46 183.5t126.5 128t181.5 46.5q100 0 180.5 -46.5t126.5 -128t46 -183.5t-46 -183.5t-126.5 -128t-180.5 -46.5q-101 0 -181.5 46.5zM502.5 138.5q50.5 31.5 79 87t28.5 124.5t-28.5 125t-79 87.5t-113.5 31.5t-113 -31.5
t-78.5 -87.5t-28.5 -125t28.5 -124.5t78.5 -87t113 -31.5t113.5 31.5zM537 780h-109v114h109v-114zM348 780h-109v113h109v-113z" />
    <glyph glyph-name="multiply" unicode="&#xd7;" horiz-adv-x="595" 
d="M453 108l-155 155l-155 -155l-75 75l155 155l-156 156l76 75l155 -155l154 155l75 -75l-154 -155l155 -155z" />
    <glyph glyph-name="Oslash" unicode="&#xd8;" horiz-adv-x="779" 
d="M719.5 484.5q23.5 -63.5 23.5 -134.5q0 -102 -46 -183.5t-126.5 -128t-180.5 -46.5q-103 0 -185 48l-59 -73l-77 65l58 72q-44 48 -67.5 111t-23.5 135q0 102 46 183.5t126.5 128t181.5 46.5q52 0 98.5 -12.5t85.5 -36.5l59 73l77 -65l-57 -71q43 -48 66.5 -111.5z
M179 272q10 -37 30 -66l289 359q-47 29 -109 29q-63 0 -113 -31.5t-78.5 -87.5t-28.5 -125q0 -41 10 -78zM502.5 138.5q50.5 31.5 79 87t28.5 124.5q0 82 -39 144l-289 -359q48 -28 107 -28q63 0 113.5 31.5z" />
    <glyph glyph-name="Ugrave" unicode="&#xd9;" horiz-adv-x="658" 
d="M185 22q-62 30 -96.5 89t-34.5 142v447h125v-448q0 -70 40.5 -107t109.5 -37t110 37t41 107v448h124v-447q0 -83 -34 -142t-96 -89t-145 -30q-82 0 -144 30zM174 904h133l74 -148h-105z" />
    <glyph glyph-name="Uacute" unicode="&#xda;" horiz-adv-x="658" 
d="M185 22q-62 30 -96.5 89t-34.5 142v447h125v-448q0 -70 40.5 -107t109.5 -37t110 37t41 107v448h124v-447q0 -83 -34 -142t-96 -89t-145 -30q-82 0 -144 30zM484 904l-101 -148h-106l75 148h132z" />
    <glyph glyph-name="Ucircumflex" unicode="&#xdb;" horiz-adv-x="658" 
d="M185 22q-62 30 -96.5 89t-34.5 142v447h125v-448q0 -70 40.5 -107t109.5 -37t110 37t41 107v448h124v-447q0 -83 -34 -142t-96 -89t-145 -30q-82 0 -144 30zM492 756h-106l-56 66l-57 -66h-104l108 140h107z" />
    <glyph glyph-name="Udieresis" unicode="&#xdc;" horiz-adv-x="658" 
d="M185 22q-62 30 -96.5 89t-34.5 142v447h125v-448q0 -70 40.5 -107t109.5 -37t110 37t41 107v448h124v-447q0 -83 -34 -142t-96 -89t-145 -30q-82 0 -144 30zM476 780h-109v114h109v-114zM287 780h-109v113h109v-113z" />
    <glyph glyph-name="Yacute" unicode="&#xdd;" horiz-adv-x="618" 
d="M2 700h143l164 -286l165 286h142l-241 -409v-291h-132v291zM464 904l-101 -148h-106l75 148h132z" />
    <glyph glyph-name="Thorn" unicode="&#xde;" horiz-adv-x="600" 
d="M200 700v-143h148q72 0 124.5 -25t80.5 -72t28 -110t-28 -110t-80.5 -72t-124.5 -25h-148v-143h-133v700h133zM425 280q27 26 27 70t-27 70t-83 26h-142v-192h142q56 0 83 26z" />
    <glyph glyph-name="germandbls" unicode="&#xdf;" horiz-adv-x="609" 
d="M542.5 317.5q31.5 -44.5 31.5 -110.5q0 -64 -29.5 -110.5t-83 -71.5t-124.5 -25h-76v115h63q126 0 126 99q0 50 -32.5 75.5t-93.5 25.5h-63v110h58q49 0 74.5 23t25.5 67q0 39 -25 63.5t-74 24.5q-37 0 -64.5 -18t-42 -51t-14.5 -77v-457h-127v315h-63v110h63v37
q0 74 30.5 129.5t87 86t130.5 30.5q67 0 117 -22.5t77 -64t27 -96.5q0 -50 -24 -87.5t-58 -55.5q52 -20 83.5 -64.5z" />
    <glyph glyph-name="agrave" unicode="&#xe0;" horiz-adv-x="525" 
d="M373.5 488.5q49.5 -23.5 77 -66t27.5 -98.5v-324h-121v75q-16 -38 -56.5 -60.5t-94.5 -22.5q-49 0 -87.5 19.5t-59.5 54t-21 77.5q0 48 23.5 84t66.5 55.5t99 19.5h93q18 0 27.5 9t9.5 25q0 37 -27.5 60.5t-75.5 23.5q-31 0 -55 -12t-37 -31.5t-14 -42.5h-110
q3 50 31 90.5t77.5 64t113.5 23.5t113.5 -23.5zM300.5 99.5q27.5 16.5 42 46t14.5 67.5v8h-113q-39 0 -63 -20t-24 -53q0 -29 21.5 -47t56.5 -18q38 0 65.5 16.5zM110 708h133l74 -148h-105z" />
    <glyph glyph-name="aacute" unicode="&#xe1;" horiz-adv-x="525" 
d="M373.5 488.5q49.5 -23.5 77 -66t27.5 -98.5v-324h-121v75q-16 -38 -56.5 -60.5t-94.5 -22.5q-49 0 -87.5 19.5t-59.5 54t-21 77.5q0 48 23.5 84t66.5 55.5t99 19.5h93q18 0 27.5 9t9.5 25q0 37 -27.5 60.5t-75.5 23.5q-31 0 -55 -12t-37 -31.5t-14 -42.5h-110
q3 50 31 90.5t77.5 64t113.5 23.5t113.5 -23.5zM300.5 99.5q27.5 16.5 42 46t14.5 67.5v8h-113q-39 0 -63 -20t-24 -53q0 -29 21.5 -47t56.5 -18q38 0 65.5 16.5zM420 708l-101 -148h-106l75 148h132z" />
    <glyph glyph-name="acircumflex" unicode="&#xe2;" horiz-adv-x="525" 
d="M373.5 488.5q49.5 -23.5 77 -66t27.5 -98.5v-324h-121v75q-16 -38 -56.5 -60.5t-94.5 -22.5q-49 0 -87.5 19.5t-59.5 54t-21 77.5q0 48 23.5 84t66.5 55.5t99 19.5h93q18 0 27.5 9t9.5 25q0 37 -27.5 60.5t-75.5 23.5q-31 0 -55 -12t-37 -31.5t-14 -42.5h-110
q3 50 31 90.5t77.5 64t113.5 23.5t113.5 -23.5zM300.5 99.5q27.5 16.5 42 46t14.5 67.5v8h-113q-39 0 -63 -20t-24 -53q0 -29 21.5 -47t56.5 -18q38 0 65.5 16.5zM428 560h-106l-56 66l-57 -66h-104l108 140h107z" />
    <glyph glyph-name="atilde" unicode="&#xe3;" horiz-adv-x="525" 
d="M373.5 488.5q49.5 -23.5 77 -66t27.5 -98.5v-324h-121v75q-16 -38 -56.5 -60.5t-94.5 -22.5q-49 0 -87.5 19.5t-59.5 54t-21 77.5q0 48 23.5 84t66.5 55.5t99 19.5h93q18 0 27.5 9t9.5 25q0 37 -27.5 60.5t-75.5 23.5q-31 0 -55 -12t-37 -31.5t-14 -42.5h-110
q3 50 31 90.5t77.5 64t113.5 23.5t113.5 -23.5zM300.5 99.5q27.5 16.5 42 46t14.5 67.5v8h-113q-39 0 -63 -20t-24 -53q0 -29 21.5 -47t56.5 -18q38 0 65.5 16.5zM288 578q-15 6 -35 17q-12 7 -21 11t-19 4q-15 0 -25.5 -9.5t-12.5 -25.5h-80q0 36 14.5 65t40 45.5
t55.5 16.5q21 0 36.5 -6t33.5 -17q13 -8 22 -12t19 -4q15 0 26 10t14 26h79q-1 -38 -16 -67t-40 -44.5t-55 -15.5q-21 0 -36 6z" />
    <glyph glyph-name="adieresis" unicode="&#xe4;" horiz-adv-x="525" 
d="M373.5 488.5q49.5 -23.5 77 -66t27.5 -98.5v-324h-121v75q-16 -38 -56.5 -60.5t-94.5 -22.5q-49 0 -87.5 19.5t-59.5 54t-21 77.5q0 48 23.5 84t66.5 55.5t99 19.5h93q18 0 27.5 9t9.5 25q0 37 -27.5 60.5t-75.5 23.5q-31 0 -55 -12t-37 -31.5t-14 -42.5h-110
q3 50 31 90.5t77.5 64t113.5 23.5t113.5 -23.5zM300.5 99.5q27.5 16.5 42 46t14.5 67.5v8h-113q-39 0 -63 -20t-24 -53q0 -29 21.5 -47t56.5 -18q38 0 65.5 16.5zM412 584h-109v114h109v-114zM223 584h-109v113h109v-113z" />
    <glyph glyph-name="aring" unicode="&#xe5;" horiz-adv-x="525" 
d="M373.5 488.5q49.5 -23.5 77 -66t27.5 -98.5v-324h-121v75q-16 -38 -56.5 -60.5t-94.5 -22.5q-49 0 -87.5 19.5t-59.5 54t-21 77.5q0 48 23.5 84t66.5 55.5t99 19.5h93q18 0 27.5 9t9.5 25q0 37 -27.5 60.5t-75.5 23.5q-31 0 -55 -12t-37 -31.5t-14 -42.5h-110
q3 50 31 90.5t77.5 64t113.5 23.5t113.5 -23.5zM300.5 99.5q27.5 16.5 42 46t14.5 67.5v8h-113q-39 0 -63 -20t-24 -53q0 -29 21.5 -47t56.5 -18q38 0 65.5 16.5zM196 561.5q-30 15.5 -47 43t-17 62.5q0 34 17 61.5t47.5 43.5t67.5 16q38 0 69 -16t48 -43.5t17 -61.5
q0 -35 -17 -62.5t-48 -43t-69 -15.5t-68 15.5zM307.5 627q16.5 15 16.5 40q0 24 -16.5 39t-43.5 15q-26 0 -42 -15t-16 -39q0 -25 16 -40t42 -15q27 0 43.5 15z" />
    <glyph glyph-name="ae" unicode="&#xe6;" horiz-adv-x="877" 
d="M849 168q-9 -53 -42 -93t-83.5 -61.5t-111.5 -21.5q-65 0 -116 25.5t-86 69.5q-56 -95 -185 -95q-59 0 -101.5 19.5t-64 53.5t-21.5 78q0 50 22.5 86.5t64.5 55.5t102 19h97q16 0 24.5 8.5t8.5 23.5v2q0 24 -13 42.5t-37 29t-54 10.5q-31 0 -54.5 -12t-36.5 -32t-14 -43
h-110q4 50 31.5 91t74.5 64.5t107 23.5q56 0 101.5 -17.5t75.5 -49.5q32 32 75.5 49.5t98.5 17.5q80 0 135.5 -34.5t82.5 -90t27 -118.5q0 -22 -2 -42h-372q7 -61 44 -97t95 -36q47 0 77 19t40 55h120zM518 392q-32 -28 -42 -84h248q-3 32 -18 57.5t-41.5 40t-62.5 14.5
q-52 0 -84 -28zM300 99.5q28 16.5 42.5 46t14.5 67.5v7v3h-113q-43 0 -65 -19.5t-22 -55.5q0 -28 22 -46.5t55 -18.5q38 0 66 16.5z" />
    <glyph glyph-name="ccedilla" unicode="&#xe7;" horiz-adv-x="552" 
d="M149 26.5q-58 34.5 -89.5 94t-31.5 131.5t31.5 131.5t89.5 94t135 34.5q63 0 116 -24t86.5 -67.5t38.5 -100.5h-122q-4 25 -21 44.5t-41.5 30.5t-53.5 11q-41 0 -71 -20t-45 -54.5t-15 -79.5q0 -44 15.5 -79t45.5 -55t72 -20q43 0 74.5 22.5t40.5 60.5h124
q-8 -55 -41.5 -98t-86 -67t-116.5 -24q-77 0 -135 34.5zM305 17l-36 -78q6 1 19 1q31 0 54.5 -12t36 -32.5t12.5 -43.5q0 -28 -18 -50t-50 -35t-71 -13q-33 0 -81 14v64q43 -14 80 -14q25 0 41 9t16 24q0 16 -15.5 25.5t-39.5 9.5q-17 0 -32 -4l-30 27l45 108h69z" />
    <glyph glyph-name="egrave" unicode="&#xe8;" horiz-adv-x="550" 
d="M522 168q-9 -53 -42 -93t-83.5 -61.5t-111.5 -21.5q-79 0 -137.5 37t-89 97t-30.5 128q0 69 28 127.5t84 94.5t135 36q80 0 135.5 -34.5t82.5 -90t27 -118.5q0 -22 -2 -42h-372q7 -61 44 -97t95 -36q47 0 77 19t40 55h120zM191 392q-32 -28 -42 -84h248q-3 32 -18 57.5
t-41.5 40t-62.5 14.5q-52 0 -84 -28zM123 708h133l74 -148h-105z" />
    <glyph glyph-name="eacute" unicode="&#xe9;" horiz-adv-x="550" 
d="M522 168q-9 -53 -42 -93t-83.5 -61.5t-111.5 -21.5q-79 0 -137.5 37t-89 97t-30.5 128q0 69 28 127.5t84 94.5t135 36q80 0 135.5 -34.5t82.5 -90t27 -118.5q0 -22 -2 -42h-372q7 -61 44 -97t95 -36q47 0 77 19t40 55h120zM191 392q-32 -28 -42 -84h248q-3 32 -18 57.5
t-41.5 40t-62.5 14.5q-52 0 -84 -28zM433 708l-101 -148h-106l75 148h132z" />
    <glyph glyph-name="ecircumflex" unicode="&#xea;" horiz-adv-x="550" 
d="M522 168q-9 -53 -42 -93t-83.5 -61.5t-111.5 -21.5q-79 0 -137.5 37t-89 97t-30.5 128q0 69 28 127.5t84 94.5t135 36q80 0 135.5 -34.5t82.5 -90t27 -118.5q0 -22 -2 -42h-372q7 -61 44 -97t95 -36q47 0 77 19t40 55h120zM191 392q-32 -28 -42 -84h248q-3 32 -18 57.5
t-41.5 40t-62.5 14.5q-52 0 -84 -28zM441 560h-106l-56 66l-57 -66h-104l108 140h107z" />
    <glyph glyph-name="edieresis" unicode="&#xeb;" horiz-adv-x="550" 
d="M522 168q-9 -53 -42 -93t-83.5 -61.5t-111.5 -21.5q-79 0 -137.5 37t-89 97t-30.5 128q0 69 28 127.5t84 94.5t135 36q80 0 135.5 -34.5t82.5 -90t27 -118.5q0 -22 -2 -42h-372q7 -61 44 -97t95 -36q47 0 77 19t40 55h120zM191 392q-32 -28 -42 -84h248q-3 32 -18 57.5
t-41.5 40t-62.5 14.5q-52 0 -84 -28zM425 584h-109v114h109v-114zM236 584h-109v113h109v-113z" />
    <glyph glyph-name="igrave" unicode="&#xec;" horiz-adv-x="233" 
d="M178 504v-504h-123v504h123zM-39 708h133l74 -148h-105z" />
    <glyph glyph-name="iacute" unicode="&#xed;" horiz-adv-x="233" 
d="M178 504v-504h-123v504h123zM271 708l-101 -148h-106l75 148h132z" />
    <glyph glyph-name="icircumflex" unicode="&#xee;" horiz-adv-x="233" 
d="M178 504v-504h-123v504h123zM279 560h-106l-56 66l-57 -66h-104l108 140h107z" />
    <glyph glyph-name="idieresis" unicode="&#xef;" horiz-adv-x="233" 
d="M178 504v-504h-123v504h123zM263 584h-109v114h109v-114zM74 584h-109v113h109v-113z" />
    <glyph glyph-name="eth" unicode="&#xf0;" horiz-adv-x="573" 
d="M490.5 458.5q49.5 -90.5 49.5 -198.5q0 -76 -31 -137t-88.5 -96t-134.5 -35q-78 0 -136 33t-88 88.5t-30 122.5q0 64 30.5 120t84.5 90t121 34q34 0 65.5 -9.5t55.5 -29.5q-45 66 -115 132l-80 -57l-48 62l68 48q-67 53 -126 90h146q19 -12 55 -38l71 50l49 -60l-57 -40
q89 -79 138.5 -169.5zM357.5 116q29.5 19 44 50.5t14.5 69.5q0 37 -14.5 69t-44 51t-71.5 19t-71 -19t-43.5 -51t-14.5 -69q0 -38 14.5 -69.5t43.5 -50.5t71 -19t71.5 19z" />
    <glyph glyph-name="ntilde" unicode="&#xf1;" horiz-adv-x="578" 
d="M178 504v-78q21 41 62 63.5t95 22.5q56 0 98.5 -25.5t66 -70.5t23.5 -104v-312h-123v286q0 34 -13 60.5t-37 41.5t-55 15q-34 0 -60.5 -16.5t-41.5 -45.5t-15 -66v-275h-123v504h123zM310 578q-15 6 -35 17q-12 7 -21 11t-19 4q-15 0 -25.5 -9.5t-12.5 -25.5h-80
q0 36 14.5 65t40 45.5t55.5 16.5q21 0 36.5 -6t33.5 -17q13 -8 22 -12t19 -4q15 0 26 10t14 26h79q-1 -38 -16 -67t-40 -44.5t-55 -15.5q-21 0 -36 6z" />
    <glyph glyph-name="ograve" unicode="&#xf2;" horiz-adv-x="583" 
d="M156 25.5q-60 33.5 -94 93t-34 133.5t34 133.5t94 93t136 33.5q75 0 135 -33.5t94 -93t34 -133.5t-34 -133.5t-94 -93t-135 -33.5q-76 0 -136 33.5zM364.5 117.5q31.5 19.5 49 54.5t17.5 80t-17.5 80t-49 54.5t-72.5 19.5t-73 -19.5t-49.5 -54.5t-17.5 -80t17.5 -80
t49.5 -54.5t73 -19.5t72.5 19.5zM137 708h133l74 -148h-105z" />
    <glyph glyph-name="oacute" unicode="&#xf3;" horiz-adv-x="583" 
d="M156 25.5q-60 33.5 -94 93t-34 133.5t34 133.5t94 93t136 33.5q75 0 135 -33.5t94 -93t34 -133.5t-34 -133.5t-94 -93t-135 -33.5q-76 0 -136 33.5zM364.5 117.5q31.5 19.5 49 54.5t17.5 80t-17.5 80t-49 54.5t-72.5 19.5t-73 -19.5t-49.5 -54.5t-17.5 -80t17.5 -80
t49.5 -54.5t73 -19.5t72.5 19.5zM446 708l-101 -148h-106l75 148h132z" />
    <glyph glyph-name="ocircumflex" unicode="&#xf4;" horiz-adv-x="583" 
d="M156 25.5q-60 33.5 -94 93t-34 133.5t34 133.5t94 93t136 33.5q75 0 135 -33.5t94 -93t34 -133.5t-34 -133.5t-94 -93t-135 -33.5q-76 0 -136 33.5zM364.5 117.5q31.5 19.5 49 54.5t17.5 80t-17.5 80t-49 54.5t-72.5 19.5t-73 -19.5t-49.5 -54.5t-17.5 -80t17.5 -80
t49.5 -54.5t73 -19.5t72.5 19.5zM455 560h-106l-56 66l-57 -66h-104l108 140h107z" />
    <glyph glyph-name="otilde" unicode="&#xf5;" horiz-adv-x="583" 
d="M156 25.5q-60 33.5 -94 93t-34 133.5t34 133.5t94 93t136 33.5q75 0 135 -33.5t94 -93t34 -133.5t-34 -133.5t-94 -93t-135 -33.5q-76 0 -136 33.5zM364.5 117.5q31.5 19.5 49 54.5t17.5 80t-17.5 80t-49 54.5t-72.5 19.5t-73 -19.5t-49.5 -54.5t-17.5 -80t17.5 -80
t49.5 -54.5t73 -19.5t72.5 19.5zM315 578q-15 6 -35 17q-12 7 -21 11t-19 4q-15 0 -25.5 -9.5t-12.5 -25.5h-80q0 36 14.5 65t40 45.5t55.5 16.5q21 0 36.5 -6t33.5 -17q13 -8 22 -12t19 -4q15 0 26 10t14 26h79q-1 -38 -16 -67t-40 -44.5t-55 -15.5q-21 0 -36 6z" />
    <glyph glyph-name="odieresis" unicode="&#xf6;" horiz-adv-x="583" 
d="M156 25.5q-60 33.5 -94 93t-34 133.5t34 133.5t94 93t136 33.5q75 0 135 -33.5t94 -93t34 -133.5t-34 -133.5t-94 -93t-135 -33.5q-76 0 -136 33.5zM364.5 117.5q31.5 19.5 49 54.5t17.5 80t-17.5 80t-49 54.5t-72.5 19.5t-73 -19.5t-49.5 -54.5t-17.5 -80t17.5 -80
t49.5 -54.5t73 -19.5t72.5 19.5zM438 584h-109v114h109v-114zM249 584h-109v113h109v-113z" />
    <glyph glyph-name="divide" unicode="&#xf7;" horiz-adv-x="640" 
d="M573 370v-105h-506v105h506zM372 38h-134v129h134v-129zM372 464h-134v129h134v-129z" />
    <glyph glyph-name="oslash" unicode="&#xf8;" horiz-adv-x="583" 
d="M536.5 353q18.5 -47 18.5 -101q0 -74 -34 -133.5t-94 -93t-135 -33.5q-77 0 -137 34l-46 -56l-55 45l44 55q-34 35 -52 81.5t-18 100.5q0 74 34 133.5t94 93t136 33.5t136 -34l46 56l54 -45l-44 -54q34 -35 52.5 -82zM174 163l184 227q-30 16 -66 16q-41 0 -73 -19.5
t-49.5 -54.5t-17.5 -80q0 -50 22 -89zM364.5 117.5q31.5 19.5 49 54.5t17.5 80q0 51 -22 89l-184 -227q30 -16 67 -16q41 0 72.5 19.5z" />
    <glyph glyph-name="ugrave" unicode="&#xf9;" horiz-adv-x="578" 
d="M400 78q-21 -41 -62 -63.5t-95 -22.5q-56 0 -98.5 25.5t-65.5 70.5t-23 104v312h122v-286q0 -34 13.5 -60.5t37 -41.5t54.5 -15q34 0 60.5 16.5t41.5 45.5t15 66v275h123v-504h-123v78zM135 708h133l74 -148h-105z" />
    <glyph glyph-name="uacute" unicode="&#xfa;" horiz-adv-x="578" 
d="M400 78q-21 -41 -62 -63.5t-95 -22.5q-56 0 -98.5 25.5t-65.5 70.5t-23 104v312h122v-286q0 -34 13.5 -60.5t37 -41.5t54.5 -15q34 0 60.5 16.5t41.5 45.5t15 66v275h123v-504h-123v78zM445 708l-101 -148h-106l75 148h132z" />
    <glyph glyph-name="ucircumflex" unicode="&#xfb;" horiz-adv-x="578" 
d="M400 78q-21 -41 -62 -63.5t-95 -22.5q-56 0 -98.5 25.5t-65.5 70.5t-23 104v312h122v-286q0 -34 13.5 -60.5t37 -41.5t54.5 -15q34 0 60.5 16.5t41.5 45.5t15 66v275h123v-504h-123v78zM453 560h-106l-56 66l-57 -66h-104l108 140h107z" />
    <glyph glyph-name="udieresis" unicode="&#xfc;" horiz-adv-x="578" 
d="M400 78q-21 -41 -62 -63.5t-95 -22.5q-56 0 -98.5 25.5t-65.5 70.5t-23 104v312h122v-286q0 -34 13.5 -60.5t37 -41.5t54.5 -15q34 0 60.5 16.5t41.5 45.5t15 66v275h123v-504h-123v78zM437 584h-109v114h109v-114zM248 584h-109v113h109v-113z" />
    <glyph glyph-name="yacute" unicode="&#xfd;" horiz-adv-x="500" 
d="M316 24l-78 -228h-117l71 204l-184 504h125l117 -346l116 346h126zM410 708l-101 -148h-106l75 148h132z" />
    <glyph glyph-name="thorn" unicode="&#xfe;" horiz-adv-x="605" 
d="M185 703v-254q27 30 66.5 46.5t84.5 16.5q71 0 124 -32.5t81.5 -91.5t28.5 -136t-30 -136t-85 -91.5t-128 -32.5q-46 0 -84 14.5t-58 38.5v-249h-123v907h123zM385 116.5q31 18.5 47.5 53t16.5 82.5q0 47 -16.5 82t-47.5 53.5t-73 18.5q-63 0 -99 -41t-36 -113t35.5 -113
t99.5 -41q42 0 73 18.5z" />
    <glyph glyph-name="ydieresis" unicode="&#xff;" horiz-adv-x="500" 
d="M316 24l-78 -228h-117l71 204l-184 504h125l117 -346l116 346h126zM402 584h-109v114h109v-114zM213 584h-109v113h109v-113z" />
    <glyph glyph-name="Amacron" unicode="&#x100;" horiz-adv-x="675" 
d="M472 163h-270l-60 -163h-136l269 700h124l270 -700h-137zM432 275l-94 256l-94 -256h188zM475 875v-94h-276v94h276z" />
    <glyph glyph-name="amacron" unicode="&#x101;" horiz-adv-x="525" 
d="M373.5 488.5q49.5 -23.5 77 -66t27.5 -98.5v-324h-121v75q-16 -38 -56.5 -60.5t-94.5 -22.5q-49 0 -87.5 19.5t-59.5 54t-21 77.5q0 48 23.5 84t66.5 55.5t99 19.5h93q18 0 27.5 9t9.5 25q0 37 -27.5 60.5t-75.5 23.5q-31 0 -55 -12t-37 -31.5t-14 -42.5h-110
q3 50 31 90.5t77.5 64t113.5 23.5t113.5 -23.5zM300.5 99.5q27.5 16.5 42 46t14.5 67.5v8h-113q-39 0 -63 -20t-24 -53q0 -29 21.5 -47t56.5 -18q38 0 65.5 16.5zM402 679v-94h-276v94h276z" />
    <glyph glyph-name="Abreve" unicode="&#x102;" horiz-adv-x="675" 
d="M472 163h-270l-60 -163h-136l269 700h124l270 -700h-137zM432 275l-94 256l-94 -256h188zM260 772.5q-34 19.5 -53 52t-19 71.5h96q0 -28 15 -44t39 -16t39 16t15 44h96q0 -39 -19 -71.5t-53 -52t-78 -19.5t-78 19.5z" />
    <glyph glyph-name="abreve" unicode="&#x103;" horiz-adv-x="525" 
d="M373.5 488.5q49.5 -23.5 77 -66t27.5 -98.5v-324h-121v75q-16 -38 -56.5 -60.5t-94.5 -22.5q-49 0 -87.5 19.5t-59.5 54t-21 77.5q0 48 23.5 84t66.5 55.5t99 19.5h93q18 0 27.5 9t9.5 25q0 37 -27.5 60.5t-75.5 23.5q-31 0 -55 -12t-37 -31.5t-14 -42.5h-110
q3 50 31 90.5t77.5 64t113.5 23.5t113.5 -23.5zM300.5 99.5q27.5 16.5 42 46t14.5 67.5v8h-113q-39 0 -63 -20t-24 -53q0 -29 21.5 -47t56.5 -18q38 0 65.5 16.5zM187 576.5q-34 19.5 -53 52t-19 71.5h96q0 -28 15 -44t39 -16t39 16t15 44h96q0 -39 -19 -71.5t-53 -52
t-78 -19.5t-78 19.5z" />
    <glyph glyph-name="Aogonek" unicode="&#x104;" horiz-adv-x="675" 
d="M472 163h-270l-60 -163h-136l269 700h124l270 -700h-137zM432 275l-94 256l-94 -256h188zM620 -194q-30 0 -53 11t-35.5 31t-12.5 45q0 32 19.5 61.5t52.5 45.5h78q-32 -23 -45 -41t-13 -35q0 -14 7.5 -21t21.5 -7q12 0 22 6.5t20 19.5l47 -58q-42 -58 -109 -58z" />
    <glyph glyph-name="aogonek" unicode="&#x105;" horiz-adv-x="525" 
d="M373.5 488.5q49.5 -23.5 77 -66t27.5 -98.5v-324h-121v75q-16 -38 -56.5 -60.5t-94.5 -22.5q-49 0 -87.5 19.5t-59.5 54t-21 77.5q0 48 23.5 84t66.5 55.5t99 19.5h93q18 0 27.5 9t9.5 25q0 37 -27.5 60.5t-75.5 23.5q-31 0 -55 -12t-37 -31.5t-14 -42.5h-110
q3 50 31 90.5t77.5 64t113.5 23.5t113.5 -23.5zM300.5 99.5q27.5 16.5 42 46t14.5 67.5v8h-113q-39 0 -63 -20t-24 -53q0 -29 21.5 -47t56.5 -18q38 0 65.5 16.5zM429 -194q-30 0 -53 11t-35.5 31t-12.5 45q0 32 19.5 61.5t52.5 45.5h78q-32 -23 -45 -41t-13 -35
q0 -14 7.5 -21t21.5 -7q12 0 22 6.5t20 19.5l47 -58q-42 -58 -109 -58z" />
    <glyph glyph-name="Cacute" unicode="&#x106;" horiz-adv-x="727" 
d="M209 33q-79 41 -126 121.5t-47 195.5q0 114 47.5 195t126.5 122t173 41q84 0 152.5 -30.5t111.5 -86t52 -127.5h-138q-5 38 -29.5 67.5t-63 46t-85.5 16.5q-62 0 -110.5 -28.5t-76 -83.5t-27.5 -132t27.5 -132t76 -83t110.5 -28q47 0 86.5 16.5t64.5 45.5t31 67h132
q-7 -72 -49 -127.5t-111 -86t-154 -30.5q-95 0 -174 41zM532 904l-101 -148h-106l75 148h132z" />
    <glyph glyph-name="cacute" unicode="&#x107;" horiz-adv-x="552" 
d="M149 26.5q-58 34.5 -89.5 94t-31.5 131.5t31.5 131.5t89.5 94t135 34.5q63 0 116 -24t86.5 -67.5t38.5 -100.5h-122q-4 25 -21 44.5t-41.5 30.5t-53.5 11q-41 0 -71 -20t-45 -54.5t-15 -79.5q0 -44 15.5 -79t45.5 -55t72 -20q43 0 74.5 22.5t40.5 60.5h124
q-8 -55 -41.5 -98t-86 -67t-116.5 -24q-77 0 -135 34.5zM432 708l-101 -148h-106l75 148h132z" />
    <glyph glyph-name="Ccircumflex" unicode="&#x108;" horiz-adv-x="727" 
d="M209 33q-79 41 -126 121.5t-47 195.5q0 114 47.5 195t126.5 122t173 41q84 0 152.5 -30.5t111.5 -86t52 -127.5h-138q-5 38 -29.5 67.5t-63 46t-85.5 16.5q-62 0 -110.5 -28.5t-76 -83.5t-27.5 -132t27.5 -132t76 -83t110.5 -28q47 0 86.5 16.5t64.5 45.5t31 67h132
q-7 -72 -49 -127.5t-111 -86t-154 -30.5q-95 0 -174 41zM541 756h-106l-56 66l-57 -66h-104l108 140h107z" />
    <glyph glyph-name="ccircumflex" unicode="&#x109;" horiz-adv-x="552" 
d="M149 26.5q-58 34.5 -89.5 94t-31.5 131.5t31.5 131.5t89.5 94t135 34.5q63 0 116 -24t86.5 -67.5t38.5 -100.5h-122q-4 25 -21 44.5t-41.5 30.5t-53.5 11q-41 0 -71 -20t-45 -54.5t-15 -79.5q0 -44 15.5 -79t45.5 -55t72 -20q43 0 74.5 22.5t40.5 60.5h124
q-8 -55 -41.5 -98t-86 -67t-116.5 -24q-77 0 -135 34.5zM440 560h-106l-56 66l-57 -66h-104l108 140h107z" />
    <glyph glyph-name="Cdotaccent" unicode="&#x10a;" horiz-adv-x="727" 
d="M209 33q-79 41 -126 121.5t-47 195.5q0 114 47.5 195t126.5 122t173 41q84 0 152.5 -30.5t111.5 -86t52 -127.5h-138q-5 38 -29.5 67.5t-63 46t-85.5 16.5q-62 0 -110.5 -28.5t-76 -83.5t-27.5 -132t27.5 -132t76 -83t110.5 -28q47 0 86.5 16.5t64.5 45.5t31 67h132
q-7 -72 -49 -127.5t-111 -86t-154 -30.5q-95 0 -174 41zM444 779h-132v137h132v-137z" />
    <glyph glyph-name="cdotaccent" unicode="&#x10b;" horiz-adv-x="552" 
d="M149 26.5q-58 34.5 -89.5 94t-31.5 131.5t31.5 131.5t89.5 94t135 34.5q63 0 116 -24t86.5 -67.5t38.5 -100.5h-122q-4 25 -21 44.5t-41.5 30.5t-53.5 11q-41 0 -71 -20t-45 -54.5t-15 -79.5q0 -44 15.5 -79t45.5 -55t72 -20q43 0 74.5 22.5t40.5 60.5h124
q-8 -55 -41.5 -98t-86 -67t-116.5 -24q-77 0 -135 34.5zM343 583h-132v137h132v-137z" />
    <glyph glyph-name="Ccaron" unicode="&#x10c;" horiz-adv-x="727" 
d="M209 33q-79 41 -126 121.5t-47 195.5q0 114 47.5 195t126.5 122t173 41q84 0 152.5 -30.5t111.5 -86t52 -127.5h-138q-5 38 -29.5 67.5t-63 46t-85.5 16.5q-62 0 -110.5 -28.5t-76 -83.5t-27.5 -132t27.5 -132t76 -83t110.5 -28q47 0 86.5 16.5t64.5 45.5t31 67h132
q-7 -72 -49 -127.5t-111 -86t-154 -30.5q-95 0 -174 41zM320 896l57 -67l56 67h106l-108 -140h-107l-108 140h104z" />
    <glyph glyph-name="ccaron" unicode="&#x10d;" horiz-adv-x="552" 
d="M149 26.5q-58 34.5 -89.5 94t-31.5 131.5t31.5 131.5t89.5 94t135 34.5q63 0 116 -24t86.5 -67.5t38.5 -100.5h-122q-4 25 -21 44.5t-41.5 30.5t-53.5 11q-41 0 -71 -20t-45 -54.5t-15 -79.5q0 -44 15.5 -79t45.5 -55t72 -20q43 0 74.5 22.5t40.5 60.5h124
q-8 -55 -41.5 -98t-86 -67t-116.5 -24q-77 0 -135 34.5zM219 700l57 -67l56 67h106l-108 -140h-107l-108 140h104z" />
    <glyph glyph-name="Dcaron" unicode="&#x10e;" horiz-adv-x="689" 
d="M294 700q100 0 181.5 -39.5t129.5 -118.5t48 -192t-48 -192t-129.5 -118.5t-181.5 -39.5h-227v700h227zM401 138.5q53 23.5 85.5 76.5t32.5 135t-32.5 135t-86 77t-117.5 24h-84v-471h84q65 0 118 23.5zM233 896l57 -67l56 67h106l-108 -140h-107l-108 140h104z" />
    <glyph glyph-name="dcaron" unicode="&#x10f;" horiz-adv-x="713" 
d="M139.5 24.5q-54.5 32.5 -83 91.5t-28.5 136t28.5 136t82.5 91.5t127 32.5q48 0 87 -18.5t61 -50.5v277h122v-720h-122v63q-22 -33 -61 -52t-85 -19q-74 0 -128.5 32.5zM357.5 117q30.5 19 47.5 54t17 81t-17 81t-47.5 54t-71.5 19t-71.5 -19t-47.5 -54t-17 -81t17 -81
t47.5 -54t71.5 -19t71.5 19zM726 745l-55 -185h-92l31 185h116z" />
    <glyph glyph-name="Dcroat" unicode="&#x110;" horiz-adv-x="769" 
d="M555.5 660.5q81.5 -39.5 129.5 -118.5t48 -192t-48 -192t-129.5 -118.5t-181.5 -39.5h-227v303h-99v98h99v299h227q100 0 181.5 -39.5zM481 138.5q53 23.5 85.5 76.5t32.5 135t-32.5 135t-86 77t-117.5 24h-84v-185h160v-98h-160v-188h84q65 0 118 23.5z" />
    <glyph glyph-name="dcroat" unicode="&#x111;" horiz-adv-x="598" 
d="M612 564h-76v-564h-122v63q-22 -33 -61 -52t-85 -19q-74 0 -128.5 32.5t-83 91.5t-28.5 136t28.5 136t82.5 91.5t127 32.5q48 0 87 -18.5t61 -50.5v121h-165v86h165v70h122v-70h76v-86zM357.5 117q30.5 19 47.5 54t17 81t-17 81t-47.5 54t-71.5 19t-71.5 -19t-47.5 -54
t-17 -81t17 -81t47.5 -54t71.5 -19t71.5 19z" />
    <glyph glyph-name="Emacron" unicode="&#x112;" horiz-adv-x="580" 
d="M533 700v-114h-334v-170h268v-114h-268v-187h345v-115h-477v700h466zM440 875v-94h-276v94h276z" />
    <glyph glyph-name="emacron" unicode="&#x113;" horiz-adv-x="550" 
d="M522 168q-9 -53 -42 -93t-83.5 -61.5t-111.5 -21.5q-79 0 -137.5 37t-89 97t-30.5 128q0 69 28 127.5t84 94.5t135 36q80 0 135.5 -34.5t82.5 -90t27 -118.5q0 -22 -2 -42h-372q7 -61 44 -97t95 -36q47 0 77 19t40 55h120zM191 392q-32 -28 -42 -84h248q-3 32 -18 57.5
t-41.5 40t-62.5 14.5q-52 0 -84 -28zM415 679v-94h-276v94h276z" />
    <glyph glyph-name="Ebreve" unicode="&#x114;" horiz-adv-x="580" 
d="M533 700v-114h-334v-170h268v-114h-268v-187h345v-115h-477v700h466zM225 772.5q-34 19.5 -53 52t-19 71.5h96q0 -28 15 -44t39 -16t39 16t15 44h96q0 -39 -19 -71.5t-53 -52t-78 -19.5t-78 19.5z" />
    <glyph glyph-name="ebreve" unicode="&#x115;" horiz-adv-x="550" 
d="M522 168q-9 -53 -42 -93t-83.5 -61.5t-111.5 -21.5q-79 0 -137.5 37t-89 97t-30.5 128q0 69 28 127.5t84 94.5t135 36q80 0 135.5 -34.5t82.5 -90t27 -118.5q0 -22 -2 -42h-372q7 -61 44 -97t95 -36q47 0 77 19t40 55h120zM191 392q-32 -28 -42 -84h248q-3 32 -18 57.5
t-41.5 40t-62.5 14.5q-52 0 -84 -28zM200 576.5q-34 19.5 -53 52t-19 71.5h96q0 -28 15 -44t39 -16t39 16t15 44h96q0 -39 -19 -71.5t-53 -52t-78 -19.5t-78 19.5z" />
    <glyph glyph-name="Edotaccent" unicode="&#x116;" horiz-adv-x="580" 
d="M533 700v-114h-334v-170h268v-114h-268v-187h345v-115h-477v700h466zM369 779h-132v137h132v-137z" />
    <glyph glyph-name="edotaccent" unicode="&#x117;" horiz-adv-x="550" 
d="M522 168q-9 -53 -42 -93t-83.5 -61.5t-111.5 -21.5q-79 0 -137.5 37t-89 97t-30.5 128q0 69 28 127.5t84 94.5t135 36q80 0 135.5 -34.5t82.5 -90t27 -118.5q0 -22 -2 -42h-372q7 -61 44 -97t95 -36q47 0 77 19t40 55h120zM191 392q-32 -28 -42 -84h248q-3 32 -18 57.5
t-41.5 40t-62.5 14.5q-52 0 -84 -28zM344 583h-132v137h132v-137z" />
    <glyph glyph-name="Eogonek" unicode="&#x118;" horiz-adv-x="580" 
d="M533 700v-114h-334v-170h268v-114h-268v-187h345v-115h-477v700h466zM495 -194q-30 0 -53 11t-35.5 31t-12.5 45q0 32 19.5 61.5t52.5 45.5h78q-32 -23 -45 -41t-13 -35q0 -14 7.5 -21t21.5 -7q12 0 22 6.5t20 19.5l47 -58q-42 -58 -109 -58z" />
    <glyph glyph-name="eogonek" unicode="&#x119;" horiz-adv-x="550" 
d="M522 168q-9 -53 -42 -93t-83.5 -61.5t-111.5 -21.5q-79 0 -137.5 37t-89 97t-30.5 128q0 69 28 127.5t84 94.5t135 36q80 0 135.5 -34.5t82.5 -90t27 -118.5q0 -22 -2 -42h-372q7 -61 44 -97t95 -36q47 0 77 19t40 55h120zM191 392q-32 -28 -42 -84h248q-3 32 -18 57.5
t-41.5 40t-62.5 14.5q-52 0 -84 -28zM303 -194q-30 0 -53 11t-35.5 31t-12.5 45q0 32 19.5 61.5t52.5 45.5h78q-32 -23 -45 -41t-13 -35q0 -14 7.5 -21t21.5 -7q12 0 22 6.5t20 19.5l47 -58q-42 -58 -109 -58z" />
    <glyph glyph-name="Ecaron" unicode="&#x11a;" horiz-adv-x="580" 
d="M533 700v-114h-334v-170h268v-114h-268v-187h345v-115h-477v700h466zM245 896l57 -67l56 67h106l-108 -140h-107l-108 140h104z" />
    <glyph glyph-name="ecaron" unicode="&#x11b;" horiz-adv-x="550" 
d="M522 168q-9 -53 -42 -93t-83.5 -61.5t-111.5 -21.5q-79 0 -137.5 37t-89 97t-30.5 128q0 69 28 127.5t84 94.5t135 36q80 0 135.5 -34.5t82.5 -90t27 -118.5q0 -22 -2 -42h-372q7 -61 44 -97t95 -36q47 0 77 19t40 55h120zM191 392q-32 -28 -42 -84h248q-3 32 -18 57.5
t-41.5 40t-62.5 14.5q-52 0 -84 -28zM220 700l57 -67l56 67h106l-108 -140h-107l-108 140h104z" />
    <glyph glyph-name="Gcircumflex" unicode="&#x11c;" horiz-adv-x="741" 
d="M209 33q-78 41 -125.5 121.5t-47.5 195.5t48 195.5t128 121.5t174 41q85 0 153.5 -31t109.5 -87t46 -128h-133q-6 39 -30 69t-62 46.5t-85 16.5q-63 0 -113.5 -29t-79.5 -84t-29 -131t29 -132.5t79 -86.5t112 -30q47 0 90 19t69.5 50.5t26.5 68.5q0 17 -9.5 26.5
t-26.5 9.5h-142v101h186q30 0 57 -15t43 -41t16 -59v-261h-118v111q-13 -35 -41.5 -62t-69 -42t-86.5 -15q-91 0 -169 41zM535 756h-106l-56 66l-57 -66h-104l108 140h107z" />
    <glyph glyph-name="gcircumflex" unicode="&#x11d;" horiz-adv-x="605" 
d="M543 504v-532q0 -52 -23.5 -92t-66.5 -62t-99 -22h-249v98h232q24 0 43 11.5t30 32t11 46.5v72q-19 -29 -59 -46.5t-87 -17.5q-75 0 -129 32.5t-82.5 91.5t-28.5 136t28.5 136t82 91.5t127.5 32.5q47 0 86 -17.5t61 -47.5v57h123zM364 117q31 19 48 54t17 81t-17 81
t-48 54t-72 19t-71.5 -19t-47 -54t-16.5 -81t16.5 -81t47 -54t71.5 -19t72 19zM457 560h-106l-56 66l-57 -66h-104l108 140h107z" />
    <glyph glyph-name="Gbreve" unicode="&#x11e;" horiz-adv-x="741" 
d="M209 33q-78 41 -125.5 121.5t-47.5 195.5t48 195.5t128 121.5t174 41q85 0 153.5 -31t109.5 -87t46 -128h-133q-6 39 -30 69t-62 46.5t-85 16.5q-63 0 -113.5 -29t-79.5 -84t-29 -131t29 -132.5t79 -86.5t112 -30q47 0 90 19t69.5 50.5t26.5 68.5q0 17 -9.5 26.5
t-26.5 9.5h-142v101h186q30 0 57 -15t43 -41t16 -59v-261h-118v111q-13 -35 -41.5 -62t-69 -42t-86.5 -15q-91 0 -169 41zM294 772.5q-34 19.5 -53 52t-19 71.5h96q0 -28 15 -44t39 -16t39 16t15 44h96q0 -39 -19 -71.5t-53 -52t-78 -19.5t-78 19.5z" />
    <glyph glyph-name="gbreve" unicode="&#x11f;" horiz-adv-x="605" 
d="M543 504v-532q0 -52 -23.5 -92t-66.5 -62t-99 -22h-249v98h232q24 0 43 11.5t30 32t11 46.5v72q-19 -29 -59 -46.5t-87 -17.5q-75 0 -129 32.5t-82.5 91.5t-28.5 136t28.5 136t82 91.5t127.5 32.5q47 0 86 -17.5t61 -47.5v57h123zM364 117q31 19 48 54t17 81t-17 81
t-48 54t-72 19t-71.5 -19t-47 -54t-16.5 -81t16.5 -81t47 -54t71.5 -19t72 19zM217 576.5q-34 19.5 -53 52t-19 71.5h96q0 -28 15 -44t39 -16t39 16t15 44h96q0 -39 -19 -71.5t-53 -52t-78 -19.5t-78 19.5z" />
    <glyph glyph-name="Gdotaccent" unicode="&#x120;" horiz-adv-x="741" 
d="M209 33q-78 41 -125.5 121.5t-47.5 195.5t48 195.5t128 121.5t174 41q85 0 153.5 -31t109.5 -87t46 -128h-133q-6 39 -30 69t-62 46.5t-85 16.5q-63 0 -113.5 -29t-79.5 -84t-29 -131t29 -132.5t79 -86.5t112 -30q47 0 90 19t69.5 50.5t26.5 68.5q0 17 -9.5 26.5
t-26.5 9.5h-142v101h186q30 0 57 -15t43 -41t16 -59v-261h-118v111q-13 -35 -41.5 -62t-69 -42t-86.5 -15q-91 0 -169 41zM438 779h-132v137h132v-137z" />
    <glyph glyph-name="gdotaccent" unicode="&#x121;" horiz-adv-x="605" 
d="M543 504v-532q0 -52 -23.5 -92t-66.5 -62t-99 -22h-249v98h232q24 0 43 11.5t30 32t11 46.5v72q-19 -29 -59 -46.5t-87 -17.5q-75 0 -129 32.5t-82.5 91.5t-28.5 136t28.5 136t82 91.5t127.5 32.5q47 0 86 -17.5t61 -47.5v57h123zM364 117q31 19 48 54t17 81t-17 81
t-48 54t-72 19t-71.5 -19t-47 -54t-16.5 -81t16.5 -81t47 -54t71.5 -19t72 19zM360 583h-132v137h132v-137z" />
    <glyph glyph-name="uni0122" unicode="&#x122;" horiz-adv-x="741" 
d="M209 33q-78 41 -125.5 121.5t-47.5 195.5t48 195.5t128 121.5t174 41q85 0 153.5 -31t109.5 -87t46 -128h-133q-6 39 -30 69t-62 46.5t-85 16.5q-63 0 -113.5 -29t-79.5 -84t-29 -131t29 -132.5t79 -86.5t112 -30q47 0 90 19t69.5 50.5t26.5 68.5q0 17 -9.5 26.5
t-26.5 9.5h-142v101h186q30 0 57 -15t43 -41t16 -59v-261h-118v111q-13 -35 -41.5 -62t-69 -42t-86.5 -15q-91 0 -169 41zM447 -68l-82 -162h-107l51 162h138z" />
    <glyph glyph-name="uni0123" unicode="&#x123;" horiz-adv-x="605" 
d="M543 504v-532q0 -52 -23.5 -92t-66.5 -62t-99 -22h-249v98h232q24 0 43 11.5t30 32t11 46.5v72q-19 -29 -59 -46.5t-87 -17.5q-75 0 -129 32.5t-82.5 91.5t-28.5 136t28.5 136t82 91.5t127.5 32.5q47 0 86 -17.5t61 -47.5v57h123zM364 117q31 19 48 54t17 81t-17 81
t-48 54t-72 19t-71.5 -19t-47 -54t-16.5 -81t16.5 -81t47 -54t71.5 -19t72 19zM235 568l62 155h107l-29 -155h-140z" />
    <glyph glyph-name="Hcircumflex" unicode="&#x124;" horiz-adv-x="710" 
d="M643 700v-700h-132v301h-312v-301h-132v700h132v-284h312v284h132zM518 756h-106l-56 66l-57 -66h-104l108 140h107z" />
    <glyph glyph-name="hcircumflex" unicode="&#x125;" horiz-adv-x="584" 
d="M184 720v-294q21 41 62.5 63.5t95.5 22.5q56 0 98.5 -25.5t65.5 -70.5t23 -104v-312h-122v286q0 34 -13.5 60.5t-37.5 41.5t-55 15q-34 0 -60.5 -16.5t-41.5 -45.5t-15 -66v-275h-122v720h122zM286 756h-106l-56 66l-57 -66h-104l108 140h107z" />
    <glyph glyph-name="Hbar" unicode="&#x126;" horiz-adv-x="710" 
d="M706 538h-63v-538h-132v301h-312v-301h-132v538h-64v99h64v63h132v-63h312v63h132v-63h63v-99zM511 538h-312v-122h312v122z" />
    <glyph glyph-name="hbar" unicode="&#x127;" horiz-adv-x="584" 
d="M440.5 486.5q42.5 -25.5 65.5 -70.5t23 -104v-312h-122v286q0 34 -13.5 60.5t-37.5 41.5t-55 15q-34 0 -60.5 -16.5t-41.5 -45.5t-15 -66v-275h-122v564h-76v86h76v70h122v-70h165v-86h-165v-138q21 41 62.5 63.5t95.5 22.5q56 0 98.5 -25.5z" />
    <glyph glyph-name="Itilde" unicode="&#x128;" horiz-adv-x="267" 
d="M200 700v-700h-133v700h133zM156 774q-15 6 -35 17q-12 7 -21 11t-19 4q-15 0 -25.5 -9.5t-12.5 -25.5h-80q0 36 14.5 65t40 45.5t55.5 16.5q21 0 36.5 -6t33.5 -17q13 -8 22 -12t19 -4q15 0 26 10t14 26h79q-1 -38 -16 -67t-40 -44.5t-55 -15.5q-21 0 -36 6z" />
    <glyph glyph-name="itilde" unicode="&#x129;" horiz-adv-x="233" 
d="M178 504v-504h-123v504h123zM139 578q-15 6 -35 17q-12 7 -21 11t-19 4q-15 0 -25.5 -9.5t-12.5 -25.5h-80q0 36 14.5 65t40 45.5t55.5 16.5q21 0 36.5 -6t33.5 -17q13 -8 22 -12t19 -4q15 0 26 10t14 26h79q-1 -38 -16 -67t-40 -44.5t-55 -15.5q-21 0 -36 6z" />
    <glyph glyph-name="Imacron" unicode="&#x12a;" horiz-adv-x="267" 
d="M200 700v-700h-133v700h133zM270 875v-94h-276v94h276z" />
    <glyph glyph-name="imacron" unicode="&#x12b;" horiz-adv-x="233" 
d="M178 504v-504h-123v504h123zM253 679v-94h-276v94h276z" />
    <glyph glyph-name="Ibreve" unicode="&#x12c;" horiz-adv-x="267" 
d="M200 700v-700h-133v700h133zM55 772.5q-34 19.5 -53 52t-19 71.5h96q0 -28 15 -44t39 -16t39 16t15 44h96q0 -39 -19 -71.5t-53 -52t-78 -19.5t-78 19.5z" />
    <glyph glyph-name="ibreve" unicode="&#x12d;" horiz-adv-x="233" 
d="M178 504v-504h-123v504h123zM38 576.5q-34 19.5 -53 52t-19 71.5h96q0 -28 15 -44t39 -16t39 16t15 44h96q0 -39 -19 -71.5t-53 -52t-78 -19.5t-78 19.5z" />
    <glyph glyph-name="Iogonek" unicode="&#x12e;" horiz-adv-x="267" 
d="M200 700v-700h-133v700h133zM136 -194q-30 0 -53 11t-35.5 31t-12.5 45q0 32 19.5 61.5t52.5 45.5h78q-32 -23 -45 -41t-13 -35q0 -14 7.5 -21t21.5 -7q12 0 22 6.5t20 19.5l47 -58q-42 -58 -109 -58z" />
    <glyph glyph-name="iogonek" unicode="&#x12f;" horiz-adv-x="233" 
d="M178 504v-504h-123v504h123zM182 583h-132v137h132v-137zM130 -194q-30 0 -53 11t-35.5 31t-12.5 45q0 32 19.5 61.5t52.5 45.5h78q-32 -23 -45 -41t-13 -35q0 -14 7.5 -21t21.5 -7q12 0 22 6.5t20 19.5l47 -58q-42 -58 -109 -58z" />
    <glyph glyph-name="Idotaccent" unicode="&#x130;" horiz-adv-x="267" 
d="M200 700v-700h-133v700h133zM199 779h-132v137h132v-137z" />
    <glyph glyph-name="dotlessi" unicode="&#x131;" horiz-adv-x="233" 
d="M178 504v-504h-123v504h123z" />
    <glyph glyph-name="IJ" unicode="&#x132;" horiz-adv-x="616" 
d="M200 700v-700h-133v700h133zM417 136.5q15 21.5 15 68.5v495h132v-500q0 -100 -45.5 -150t-129.5 -50h-100v115h76q37 0 52 21.5z" />
    <glyph glyph-name="ij" unicode="&#x133;" horiz-adv-x="466" 
d="M178 504v-504h-123v504h123zM182 583h-132v137h132v-137zM410 504v-540q0 -80 -42 -124t-125 -44h-54v98h36q35 0 49 20t14 62v528h122zM416 583h-132v137h132v-137z" />
    <glyph glyph-name="Jcircumflex" unicode="&#x134;" horiz-adv-x="349" 
d="M150 136.5q15 21.5 15 68.5v495h132v-500q0 -100 -45.5 -150t-129.5 -50h-100v115h76q37 0 52 21.5zM393 756h-106l-56 66l-57 -66h-104l108 140h107z" />
    <glyph glyph-name="jcircumflex" unicode="&#x135;" horiz-adv-x="233" 
d="M177 504v-540q0 -80 -42 -124t-125 -44h-54v98h36q35 0 49 20t14 62v528h122zM279 560h-106l-56 66l-57 -66h-104l108 140h107z" />
    <glyph glyph-name="uni0136" unicode="&#x136;" horiz-adv-x="679" 
d="M298 324l-98 -106v-218h-133v700h133v-305l281 305h165l-257 -278l283 -422h-164zM399 -68l-82 -162h-107l51 162h138z" />
    <glyph glyph-name="uni0137" unicode="&#x137;" horiz-adv-x="558" 
d="M245 225l-60 -58v-167h-123v720h123v-400l193 184h156l-205 -198l222 -306h-149zM339 -68l-82 -162h-107l51 162h138z" />
    <glyph glyph-name="kgreenlandic" unicode="&#x138;" horiz-adv-x="558" 
d="M245 225l-60 -58v-167h-123v504h123v-183l195 183h154l-205 -198l222 -306h-149z" />
    <glyph glyph-name="Lacute" unicode="&#x139;" horiz-adv-x="539" 
d="M200 700v-585h327v-115h-460v700h133zM301 904l-101 -148h-106l75 148h132z" />
    <glyph glyph-name="lacute" unicode="&#x13a;" horiz-adv-x="246" 
d="M184 720v-720h-122v720h122zM276 904l-101 -148h-106l75 148h132z" />
    <glyph glyph-name="uni013B" unicode="&#x13b;" horiz-adv-x="539" 
d="M200 700v-585h327v-115h-460v700h133zM367 -68l-82 -162h-107l51 162h138z" />
    <glyph glyph-name="uni013C" unicode="&#x13c;" horiz-adv-x="246" 
d="M184 720v-720h-122v720h122zM197 -68l-82 -162h-107l51 162h138z" />
    <glyph glyph-name="Lcaron" unicode="&#x13d;" horiz-adv-x="539" 
d="M200 700v-585h327v-115h-460v700h133zM477 745l-55 -185h-92l31 185h116z" />
    <glyph glyph-name="lcaron" unicode="&#x13e;" horiz-adv-x="338" 
d="M175 720v-720h-122v720h122zM360 745l-55 -185h-92l31 185h116z" />
    <glyph glyph-name="Ldot" unicode="&#x13f;" horiz-adv-x="539" 
d="M200 700v-585h327v-115h-460v700h133zM455 281h-132v137h132v-137z" />
    <glyph glyph-name="ldot" unicode="&#x140;" horiz-adv-x="414" 
d="M184 720v-720h-122v720h122zM374 278h-132v137h132v-137z" />
    <glyph glyph-name="Lslash" unicode="&#x141;" horiz-adv-x="539" 
d="M527 115v-115h-460v301l-71 -18v97l71 18v302h133v-268l75 19v-97l-75 -19v-220h327z" />
    <glyph glyph-name="lslash" unicode="&#x142;" horiz-adv-x="246" 
d="M260 335l-76 -19v-316h-122v285l-81 -21v98l81 21v337h122v-306l76 19v-98z" />
    <glyph glyph-name="Nacute" unicode="&#x143;" horiz-adv-x="712" 
d="M210 700l303 -494v494h132v-700h-142l-304 493v-493h-132v700h143zM511 904l-101 -148h-106l75 148h132z" />
    <glyph glyph-name="nacute" unicode="&#x144;" horiz-adv-x="578" 
d="M178 504v-78q21 41 62 63.5t95 22.5q56 0 98.5 -25.5t66 -70.5t23.5 -104v-312h-123v286q0 34 -13 60.5t-37 41.5t-55 15q-34 0 -60.5 -16.5t-41.5 -45.5t-15 -66v-275h-123v504h123zM442 708l-101 -148h-106l75 148h132z" />
    <glyph glyph-name="uni0145" unicode="&#x145;" horiz-adv-x="712" 
d="M210 700l303 -494v494h132v-700h-142l-304 493v-493h-132v700h143zM432 -68l-82 -162h-107l51 162h138z" />
    <glyph glyph-name="uni0146" unicode="&#x146;" horiz-adv-x="578" 
d="M178 504v-78q21 41 62 63.5t95 22.5q56 0 98.5 -25.5t66 -70.5t23.5 -104v-312h-123v286q0 34 -13 60.5t-37 41.5t-55 15q-34 0 -60.5 -16.5t-41.5 -45.5t-15 -66v-275h-123v504h123zM362 -68l-82 -162h-107l51 162h138z" />
    <glyph glyph-name="Ncaron" unicode="&#x147;" horiz-adv-x="712" 
d="M210 700l303 -494v494h132v-700h-142l-304 493v-493h-132v700h143zM299 896l57 -67l56 67h106l-108 -140h-107l-108 140h104z" />
    <glyph glyph-name="ncaron" unicode="&#x148;" horiz-adv-x="578" 
d="M178 504v-78q21 41 62 63.5t95 22.5q56 0 98.5 -25.5t66 -70.5t23.5 -104v-312h-123v286q0 34 -13 60.5t-37 41.5t-55 15q-34 0 -60.5 -16.5t-41.5 -45.5t-15 -66v-275h-123v504h123zM229 700l57 -67l56 67h106l-108 -140h-107l-108 140h104z" />
    <glyph glyph-name="napostrophe" unicode="&#x149;" horiz-adv-x="584" 
d="M178 504v-78q21 41 62 63.5t95 22.5q56 0 98.5 -25.5t66 -70.5t23.5 -104v-312h-123v286q0 34 -13 60.5t-37 41.5t-55 15q-34 0 -60.5 -16.5t-41.5 -45.5t-15 -66v-275h-123v504h123zM213 745l-55 -185h-92l31 185h116z" />
    <glyph glyph-name="Eng" unicode="&#x14a;" horiz-adv-x="712" 
d="M645 700v-704q0 -100 -45.5 -150t-129.5 -50h-100v114h76q35 0 50 20t17 63l-314 498v-491h-132v700h143l303 -492v492h132z" />
    <glyph glyph-name="eng" unicode="&#x14b;" horiz-adv-x="586" 
d="M433.5 486.5q42.5 -25.5 66 -70.5t23.5 -104v-339q0 -55 -27 -98t-76 -65q-40 -18 -90 -18q-11 0 -23 1v107q7 -1 14 -1q37 0 57 20q23 23 23 77v4h-1v286q0 34 -13 60.5t-37 41.5t-55 15q-34 0 -60.5 -16.5t-41.5 -45.5t-15 -66v-275h-123v504h123v-78q21 41 62 63.5
t95 22.5q56 0 98.5 -25.5z" />
    <glyph glyph-name="Omacron" unicode="&#x14c;" horiz-adv-x="779" 
d="M208.5 38.5q-80.5 46.5 -126.5 128t-46 183.5t46 183.5t126.5 128t181.5 46.5q100 0 180.5 -46.5t126.5 -128t46 -183.5t-46 -183.5t-126.5 -128t-180.5 -46.5q-101 0 -181.5 46.5zM502.5 138.5q50.5 31.5 79 87t28.5 124.5t-28.5 125t-79 87.5t-113.5 31.5t-113 -31.5
t-78.5 -87.5t-28.5 -125t28.5 -124.5t78.5 -87t113 -31.5t113.5 31.5zM527 875v-94h-276v94h276z" />
    <glyph glyph-name="omacron" unicode="&#x14d;" horiz-adv-x="583" 
d="M156 25.5q-60 33.5 -94 93t-34 133.5t34 133.5t94 93t136 33.5q75 0 135 -33.5t94 -93t34 -133.5t-34 -133.5t-94 -93t-135 -33.5q-76 0 -136 33.5zM364.5 117.5q31.5 19.5 49 54.5t17.5 80t-17.5 80t-49 54.5t-72.5 19.5t-73 -19.5t-49.5 -54.5t-17.5 -80t17.5 -80
t49.5 -54.5t73 -19.5t72.5 19.5zM429 679v-94h-276v94h276z" />
    <glyph glyph-name="Obreve" unicode="&#x14e;" horiz-adv-x="779" 
d="M208.5 38.5q-80.5 46.5 -126.5 128t-46 183.5t46 183.5t126.5 128t181.5 46.5q100 0 180.5 -46.5t126.5 -128t46 -183.5t-46 -183.5t-126.5 -128t-180.5 -46.5q-101 0 -181.5 46.5zM502.5 138.5q50.5 31.5 79 87t28.5 124.5t-28.5 125t-79 87.5t-113.5 31.5t-113 -31.5
t-78.5 -87.5t-28.5 -125t28.5 -124.5t78.5 -87t113 -31.5t113.5 31.5zM312 772.5q-34 19.5 -53 52t-19 71.5h96q0 -28 15 -44t39 -16t39 16t15 44h96q0 -39 -19 -71.5t-53 -52t-78 -19.5t-78 19.5z" />
    <glyph glyph-name="obreve" unicode="&#x14f;" horiz-adv-x="583" 
d="M156 25.5q-60 33.5 -94 93t-34 133.5t34 133.5t94 93t136 33.5q75 0 135 -33.5t94 -93t34 -133.5t-34 -133.5t-94 -93t-135 -33.5q-76 0 -136 33.5zM364.5 117.5q31.5 19.5 49 54.5t17.5 80t-17.5 80t-49 54.5t-72.5 19.5t-73 -19.5t-49.5 -54.5t-17.5 -80t17.5 -80
t49.5 -54.5t73 -19.5t72.5 19.5zM214 576.5q-34 19.5 -53 52t-19 71.5h96q0 -28 15 -44t39 -16t39 16t15 44h96q0 -39 -19 -71.5t-53 -52t-78 -19.5t-78 19.5z" />
    <glyph glyph-name="Ohungarumlaut" unicode="&#x150;" horiz-adv-x="779" 
d="M208.5 38.5q-80.5 46.5 -126.5 128t-46 183.5t46 183.5t126.5 128t181.5 46.5q100 0 180.5 -46.5t126.5 -128t46 -183.5t-46 -183.5t-126.5 -128t-180.5 -46.5q-101 0 -181.5 46.5zM502.5 138.5q50.5 31.5 79 87t28.5 124.5t-28.5 125t-79 87.5t-113.5 31.5t-113 -31.5
t-78.5 -87.5t-28.5 -125t28.5 -124.5t78.5 -87t113 -31.5t113.5 31.5zM467 904l-101 -148h-106l75 148h132zM635 904l-101 -148h-106l75 148h132z" />
    <glyph glyph-name="ohungarumlaut" unicode="&#x151;" horiz-adv-x="583" 
d="M156 25.5q-60 33.5 -94 93t-34 133.5t34 133.5t94 93t136 33.5q75 0 135 -33.5t94 -93t34 -133.5t-34 -133.5t-94 -93t-135 -33.5q-76 0 -136 33.5zM364.5 117.5q31.5 19.5 49 54.5t17.5 80t-17.5 80t-49 54.5t-72.5 19.5t-73 -19.5t-49.5 -54.5t-17.5 -80t17.5 -80
t49.5 -54.5t73 -19.5t72.5 19.5zM369 708l-101 -148h-106l75 148h132zM537 708l-101 -148h-106l75 148h132z" />
    <glyph glyph-name="OE" unicode="&#x152;" horiz-adv-x="1002" 
d="M966 115v-115h-572q-99 0 -180.5 39.5t-129.5 118.5t-48 192t48 192t129.5 118.5t180.5 39.5h561v-114h-334v-170h268v-114h-268v-187h345zM490 586h-84q-64 0 -117.5 -24t-86 -77t-32.5 -135t32.5 -135t85.5 -76.5t118 -23.5h84v471z" />
    <glyph glyph-name="oe" unicode="&#x153;" horiz-adv-x="971" 
d="M156 25.5q-60 33.5 -94 93t-34 133.5t34 133.5t94 93t136 33.5q75 0 135 -33.5t94 -93t34 -133.5t-34 -133.5t-94 -93t-135 -33.5q-76 0 -136 33.5zM364.5 117.5q31.5 19.5 49 54.5t17.5 80t-17.5 80t-49 54.5t-72.5 19.5t-73 -19.5t-49.5 -54.5t-17.5 -80t17.5 -80
t49.5 -54.5t73 -19.5t72.5 19.5zM935 168q-9 -53 -42 -93t-83.5 -61.5t-111.5 -21.5q-79 0 -137.5 37t-89 97t-30.5 128q0 69 28 127.5t84 94.5t135 36q80 0 135.5 -34.5t82.5 -90t27 -118.5q0 -22 -2 -42h-372q7 -61 44 -97t95 -36q47 0 77 19t40 55h120zM604 392
q-32 -28 -42 -84h248q-3 32 -18 57.5t-41.5 40t-62.5 14.5q-52 0 -84 -28z" />
    <glyph glyph-name="Racute" unicode="&#x154;" horiz-adv-x="662" 
d="M593 0h-131l-17 172q-4 40 -29.5 65.5t-64.5 25.5h-151v-263h-133v700h287q72 0 124.5 -27.5t80 -76t27.5 -112.5q0 -52 -24.5 -90t-69.5 -61q36 -23 58 -60.5t26 -85.5zM200 377h148q55 0 82.5 30.5t27.5 76.5t-27.5 75.5t-82.5 29.5h-148v-212zM460 904l-101 -148h-106
l75 148h132z" />
    <glyph glyph-name="racute" unicode="&#x155;" horiz-adv-x="382" 
d="M204.5 357.5q-26.5 -43.5 -26.5 -119.5v-238h-123v504h123v-89q19 48 49.5 68.5t79.5 20.5h59v-103h-79q-56 0 -82.5 -43.5zM372 708l-101 -148h-106l75 148h132z" />
    <glyph glyph-name="uni0156" unicode="&#x156;" horiz-adv-x="662" 
d="M593 0h-131l-17 172q-4 40 -29.5 65.5t-64.5 25.5h-151v-263h-133v700h287q72 0 124.5 -27.5t80 -76t27.5 -112.5q0 -52 -24.5 -90t-69.5 -61q36 -23 58 -60.5t26 -85.5zM200 377h148q55 0 82.5 30.5t27.5 76.5t-27.5 75.5t-82.5 29.5h-148v-212zM391 -68l-82 -162h-107
l51 162h138z" />
    <glyph glyph-name="uni0157" unicode="&#x157;" horiz-adv-x="382" 
d="M204.5 357.5q-26.5 -43.5 -26.5 -119.5v-238h-123v504h123v-89q19 48 49.5 68.5t79.5 20.5h59v-103h-79q-56 0 -82.5 -43.5zM187 -68l-82 -162h-107l51 162h138z" />
    <glyph glyph-name="Rcaron" unicode="&#x158;" horiz-adv-x="662" 
d="M593 0h-131l-17 172q-4 40 -29.5 65.5t-64.5 25.5h-151v-263h-133v700h287q72 0 124.5 -27.5t80 -76t27.5 -112.5q0 -52 -24.5 -90t-69.5 -61q36 -23 58 -60.5t26 -85.5zM200 377h148q55 0 82.5 30.5t27.5 76.5t-27.5 75.5t-82.5 29.5h-148v-212zM248 896l57 -67l56 67
h106l-108 -140h-107l-108 140h104z" />
    <glyph glyph-name="rcaron" unicode="&#x159;" horiz-adv-x="382" 
d="M204.5 357.5q-26.5 -43.5 -26.5 -119.5v-238h-123v504h123v-89q19 48 49.5 68.5t79.5 20.5h59v-103h-79q-56 0 -82.5 -43.5zM160 700l57 -67l56 67h106l-108 -140h-107l-108 140h104z" />
    <glyph glyph-name="Sacute" unicode="&#x15a;" horiz-adv-x="586" 
d="M158.5 22q-59.5 30 -94 85t-37.5 128h127q5 -59 43 -93.5t100 -34.5q58 0 92.5 23.5t34.5 68.5q0 30 -19 49t-48.5 29.5t-80.5 23.5q-72 18 -117.5 37.5t-78 61.5t-32.5 113q0 57 30.5 101.5t85.5 69t125 24.5q73 0 129.5 -26.5t89 -75.5t35.5 -114h-126q-5 46 -39 74
t-89 28q-52 0 -82 -22t-30 -59q0 -31 19.5 -50t49 -29.5t82.5 -22.5q73 -17 118.5 -35.5t78.5 -60.5t33 -114q0 -64 -33 -111t-92 -72.5t-136 -25.5q-79 0 -138.5 30zM442 904l-101 -148h-106l75 148h132z" />
    <glyph glyph-name="sacute" unicode="&#x15b;" horiz-adv-x="463" 
d="M130 13.5q-46 21.5 -72.5 61t-29.5 93.5h112q4 -36 30 -57t67 -21q23 0 41.5 7t28.5 19.5t10 27.5q0 22 -13.5 34.5t-34 18t-57.5 12.5q-54 10 -88 22t-58.5 43t-24.5 88q0 43 23.5 77.5t65 53.5t92.5 19q58 0 103.5 -20.5t72 -57t28.5 -85.5h-112q-3 22 -16.5 38.5
t-33 24.5t-39.5 8q-33 0 -53 -14.5t-20 -39.5q0 -21 13 -32.5t33 -16t56 -9.5q56 -8 91 -19.5t61 -44t26 -95.5q0 -47 -24 -82.5t-68.5 -55t-102.5 -19.5q-61 0 -107 21.5zM382 708l-101 -148h-106l75 148h132z" />
    <glyph glyph-name="Scircumflex" unicode="&#x15c;" horiz-adv-x="586" 
d="M158.5 22q-59.5 30 -94 85t-37.5 128h127q5 -59 43 -93.5t100 -34.5q58 0 92.5 23.5t34.5 68.5q0 30 -19 49t-48.5 29.5t-80.5 23.5q-72 18 -117.5 37.5t-78 61.5t-32.5 113q0 57 30.5 101.5t85.5 69t125 24.5q73 0 129.5 -26.5t89 -75.5t35.5 -114h-126q-5 46 -39 74
t-89 28q-52 0 -82 -22t-30 -59q0 -31 19.5 -50t49 -29.5t82.5 -22.5q73 -17 118.5 -35.5t78.5 -60.5t33 -114q0 -64 -33 -111t-92 -72.5t-136 -25.5q-79 0 -138.5 30zM451 756h-106l-56 66l-57 -66h-104l108 140h107z" />
    <glyph glyph-name="scircumflex" unicode="&#x15d;" horiz-adv-x="463" 
d="M130 13.5q-46 21.5 -72.5 61t-29.5 93.5h112q4 -36 30 -57t67 -21q23 0 41.5 7t28.5 19.5t10 27.5q0 22 -13.5 34.5t-34 18t-57.5 12.5q-54 10 -88 22t-58.5 43t-24.5 88q0 43 23.5 77.5t65 53.5t92.5 19q58 0 103.5 -20.5t72 -57t28.5 -85.5h-112q-3 22 -16.5 38.5
t-33 24.5t-39.5 8q-33 0 -53 -14.5t-20 -39.5q0 -21 13 -32.5t33 -16t56 -9.5q56 -8 91 -19.5t61 -44t26 -95.5q0 -47 -24 -82.5t-68.5 -55t-102.5 -19.5q-61 0 -107 21.5zM390 560h-106l-56 66l-57 -66h-104l108 140h107z" />
    <glyph glyph-name="Scedilla" unicode="&#x15e;" horiz-adv-x="586" 
d="M158.5 22q-59.5 30 -94 85t-37.5 128h127q5 -59 43 -93.5t100 -34.5q58 0 92.5 23.5t34.5 68.5q0 30 -19 49t-48.5 29.5t-80.5 23.5q-72 18 -117.5 37.5t-78 61.5t-32.5 113q0 57 30.5 101.5t85.5 69t125 24.5q73 0 129.5 -26.5t89 -75.5t35.5 -114h-126q-5 46 -39 74
t-89 28q-52 0 -82 -22t-30 -59q0 -31 19.5 -50t49 -29.5t82.5 -22.5q73 -17 118.5 -35.5t78.5 -60.5t33 -114q0 -64 -33 -111t-92 -72.5t-136 -25.5q-79 0 -138.5 30zM317 17l-36 -78q6 1 19 1q31 0 54.5 -12t36 -32.5t12.5 -43.5q0 -28 -18 -50t-50 -35t-71 -13
q-33 0 -81 14v64q43 -14 80 -14q25 0 41 9t16 24q0 16 -15.5 25.5t-39.5 9.5q-17 0 -32 -4l-30 27l45 108h69z" />
    <glyph glyph-name="scedilla" unicode="&#x15f;" horiz-adv-x="463" 
d="M130 13.5q-46 21.5 -72.5 61t-29.5 93.5h112q4 -36 30 -57t67 -21q23 0 41.5 7t28.5 19.5t10 27.5q0 22 -13.5 34.5t-34 18t-57.5 12.5q-54 10 -88 22t-58.5 43t-24.5 88q0 43 23.5 77.5t65 53.5t92.5 19q58 0 103.5 -20.5t72 -57t28.5 -85.5h-112q-3 22 -16.5 38.5
t-33 24.5t-39.5 8q-33 0 -53 -14.5t-20 -39.5q0 -21 13 -32.5t33 -16t56 -9.5q56 -8 91 -19.5t61 -44t26 -95.5q0 -47 -24 -82.5t-68.5 -55t-102.5 -19.5q-61 0 -107 21.5zM263 17l-36 -78q6 1 19 1q31 0 54.5 -12t36 -32.5t12.5 -43.5q0 -28 -18 -50t-50 -35t-71 -13
q-33 0 -81 14v64q43 -14 80 -14q25 0 41 9t16 24q0 16 -15.5 25.5t-39.5 9.5q-17 0 -32 -4l-30 27l45 108h69z" />
    <glyph glyph-name="Scaron" unicode="&#x160;" horiz-adv-x="586" 
d="M158.5 22q-59.5 30 -94 85t-37.5 128h127q5 -59 43 -93.5t100 -34.5q58 0 92.5 23.5t34.5 68.5q0 30 -19 49t-48.5 29.5t-80.5 23.5q-72 18 -117.5 37.5t-78 61.5t-32.5 113q0 57 30.5 101.5t85.5 69t125 24.5q73 0 129.5 -26.5t89 -75.5t35.5 -114h-126q-5 46 -39 74
t-89 28q-52 0 -82 -22t-30 -59q0 -31 19.5 -50t49 -29.5t82.5 -22.5q73 -17 118.5 -35.5t78.5 -60.5t33 -114q0 -64 -33 -111t-92 -72.5t-136 -25.5q-79 0 -138.5 30zM230 896l57 -67l56 67h106l-108 -140h-107l-108 140h104z" />
    <glyph glyph-name="scaron" unicode="&#x161;" horiz-adv-x="463" 
d="M130 13.5q-46 21.5 -72.5 61t-29.5 93.5h112q4 -36 30 -57t67 -21q23 0 41.5 7t28.5 19.5t10 27.5q0 22 -13.5 34.5t-34 18t-57.5 12.5q-54 10 -88 22t-58.5 43t-24.5 88q0 43 23.5 77.5t65 53.5t92.5 19q58 0 103.5 -20.5t72 -57t28.5 -85.5h-112q-3 22 -16.5 38.5
t-33 24.5t-39.5 8q-33 0 -53 -14.5t-20 -39.5q0 -21 13 -32.5t33 -16t56 -9.5q56 -8 91 -19.5t61 -44t26 -95.5q0 -47 -24 -82.5t-68.5 -55t-102.5 -19.5q-61 0 -107 21.5zM169 700l57 -67l56 67h106l-108 -140h-107l-108 140h104z" />
    <glyph glyph-name="uni0162" unicode="&#x162;" horiz-adv-x="573" 
d="M9 586v114h555v-114h-211v-586h-132v586h-212zM297 17l-36 -78q6 1 19 1q31 0 54.5 -12t36 -32.5t12.5 -43.5q0 -28 -18 -50t-50 -35t-71 -13q-33 0 -81 14v64q43 -14 80 -14q25 0 41 9t16 24q0 16 -15.5 25.5t-39.5 9.5q-17 0 -32 -4l-30 27l45 108h69z" />
    <glyph glyph-name="uni0163" unicode="&#x163;" horiz-adv-x="403" 
d="M240 504h140v-103h-140v-220q0 -38 19 -57.5t54 -19.5h67v-104h-81q-55 0 -96 21t-63.5 60.5t-22.5 94.5v225h-99v103h99v152h123v-152zM277 17l-36 -78q6 1 19 1q31 0 54.5 -12t36 -32.5t12.5 -43.5q0 -28 -18 -50t-50 -35t-71 -13q-33 0 -81 14v64q43 -14 80 -14
q25 0 41 9t16 24q0 16 -15.5 25.5t-39.5 9.5q-17 0 -32 -4l-30 27l45 108h69z" />
    <glyph glyph-name="Tcaron" unicode="&#x164;" horiz-adv-x="573" 
d="M9 586v114h555v-114h-211v-586h-132v586h-212zM229 896l57 -67l56 67h106l-108 -140h-107l-108 140h104z" />
    <glyph glyph-name="tcaron" unicode="&#x165;" horiz-adv-x="403" 
d="M240 504h140v-103h-140v-220q0 -38 19 -57.5t54 -19.5h67v-104h-81q-55 0 -96 21t-63.5 60.5t-22.5 94.5v225h-99v103h99v152h123v-152zM460 745l-55 -185h-92l31 185h116z" />
    <glyph glyph-name="Tbar" unicode="&#x166;" horiz-adv-x="573" 
d="M353 586v-187h129v-98h-129v-301h-132v301h-130v98h130v187h-212v114h555v-114h-211z" />
    <glyph glyph-name="tbar" unicode="&#x167;" horiz-adv-x="403" 
d="M240 401v-104h133v-86h-133v-30q0 -38 19 -57.5t54 -19.5h67v-104h-81q-55 0 -96 21t-63.5 60.5t-22.5 94.5v35h-107v86h107v104h-99v103h99v152h123v-152h140v-103h-140z" />
    <glyph glyph-name="Utilde" unicode="&#x168;" horiz-adv-x="658" 
d="M185 22q-62 30 -96.5 89t-34.5 142v447h125v-448q0 -70 40.5 -107t109.5 -37t110 37t41 107v448h124v-447q0 -83 -34 -142t-96 -89t-145 -30q-82 0 -144 30zM352 774q-15 6 -35 17q-12 7 -21 11t-19 4q-15 0 -25.5 -9.5t-12.5 -25.5h-80q0 36 14.5 65t40 45.5t55.5 16.5
q21 0 36.5 -6t33.5 -17q13 -8 22 -12t19 -4q15 0 26 10t14 26h79q-1 -38 -16 -67t-40 -44.5t-55 -15.5q-21 0 -36 6z" />
    <glyph glyph-name="utilde" unicode="&#x169;" horiz-adv-x="578" 
d="M400 78q-21 -41 -62 -63.5t-95 -22.5q-56 0 -98.5 25.5t-65.5 70.5t-23 104v312h122v-286q0 -34 13.5 -60.5t37 -41.5t54.5 -15q34 0 60.5 16.5t41.5 45.5t15 66v275h123v-504h-123v78zM313 578q-15 6 -35 17q-12 7 -21 11t-19 4q-15 0 -25.5 -9.5t-12.5 -25.5h-80
q0 36 14.5 65t40 45.5t55.5 16.5q21 0 36.5 -6t33.5 -17q13 -8 22 -12t19 -4q15 0 26 10t14 26h79q-1 -38 -16 -67t-40 -44.5t-55 -15.5q-21 0 -36 6z" />
    <glyph glyph-name="Umacron" unicode="&#x16a;" horiz-adv-x="658" 
d="M185 22q-62 30 -96.5 89t-34.5 142v447h125v-448q0 -70 40.5 -107t109.5 -37t110 37t41 107v448h124v-447q0 -83 -34 -142t-96 -89t-145 -30q-82 0 -144 30zM466 875v-94h-276v94h276z" />
    <glyph glyph-name="umacron" unicode="&#x16b;" horiz-adv-x="578" 
d="M400 78q-21 -41 -62 -63.5t-95 -22.5q-56 0 -98.5 25.5t-65.5 70.5t-23 104v312h122v-286q0 -34 13.5 -60.5t37 -41.5t54.5 -15q34 0 60.5 16.5t41.5 45.5t15 66v275h123v-504h-123v78zM427 679v-94h-276v94h276z" />
    <glyph glyph-name="Ubreve" unicode="&#x16c;" horiz-adv-x="658" 
d="M185 22q-62 30 -96.5 89t-34.5 142v447h125v-448q0 -70 40.5 -107t109.5 -37t110 37t41 107v448h124v-447q0 -83 -34 -142t-96 -89t-145 -30q-82 0 -144 30zM251 772.5q-34 19.5 -53 52t-19 71.5h96q0 -28 15 -44t39 -16t39 16t15 44h96q0 -39 -19 -71.5t-53 -52
t-78 -19.5t-78 19.5z" />
    <glyph glyph-name="ubreve" unicode="&#x16d;" horiz-adv-x="578" 
d="M400 78q-21 -41 -62 -63.5t-95 -22.5q-56 0 -98.5 25.5t-65.5 70.5t-23 104v312h122v-286q0 -34 13.5 -60.5t37 -41.5t54.5 -15q34 0 60.5 16.5t41.5 45.5t15 66v275h123v-504h-123v78zM212 576.5q-34 19.5 -53 52t-19 71.5h96q0 -28 15 -44t39 -16t39 16t15 44h96
q0 -39 -19 -71.5t-53 -52t-78 -19.5t-78 19.5z" />
    <glyph glyph-name="Uring" unicode="&#x16e;" horiz-adv-x="658" 
d="M185 22q-62 30 -96.5 89t-34.5 142v447h125v-448q0 -70 40.5 -107t109.5 -37t110 37t41 107v448h124v-447q0 -83 -34 -142t-96 -89t-145 -30q-82 0 -144 30zM260 757.5q-30 15.5 -47 43t-17 62.5q0 34 17 61.5t47.5 43.5t67.5 16q38 0 69 -16t48 -43.5t17 -61.5
q0 -35 -17 -62.5t-48 -43t-69 -15.5t-68 15.5zM371.5 823q16.5 15 16.5 40q0 24 -16.5 39t-43.5 15q-26 0 -42 -15t-16 -39q0 -25 16 -40t42 -15q27 0 43.5 15z" />
    <glyph glyph-name="uring" unicode="&#x16f;" horiz-adv-x="578" 
d="M400 78q-21 -41 -62 -63.5t-95 -22.5q-56 0 -98.5 25.5t-65.5 70.5t-23 104v312h122v-286q0 -34 13.5 -60.5t37 -41.5t54.5 -15q34 0 60.5 16.5t41.5 45.5t15 66v275h123v-504h-123v78zM221 561.5q-30 15.5 -47 43t-17 62.5q0 34 17 61.5t47.5 43.5t67.5 16q38 0 69 -16
t48 -43.5t17 -61.5q0 -35 -17 -62.5t-48 -43t-69 -15.5t-68 15.5zM332.5 627q16.5 15 16.5 40q0 24 -16.5 39t-43.5 15q-26 0 -42 -15t-16 -39q0 -25 16 -40t42 -15q27 0 43.5 15z" />
    <glyph glyph-name="Uhungarumlaut" unicode="&#x170;" horiz-adv-x="658" 
d="M185 22q-62 30 -96.5 89t-34.5 142v447h125v-448q0 -70 40.5 -107t109.5 -37t110 37t41 107v448h124v-447q0 -83 -34 -142t-96 -89t-145 -30q-82 0 -144 30zM407 904l-101 -148h-106l75 148h132zM575 904l-101 -148h-106l75 148h132z" />
    <glyph glyph-name="uhungarumlaut" unicode="&#x171;" horiz-adv-x="578" 
d="M400 78q-21 -41 -62 -63.5t-95 -22.5q-56 0 -98.5 25.5t-65.5 70.5t-23 104v312h122v-286q0 -34 13.5 -60.5t37 -41.5t54.5 -15q34 0 60.5 16.5t41.5 45.5t15 66v275h123v-504h-123v78zM367 708l-101 -148h-106l75 148h132zM535 708l-101 -148h-106l75 148h132z" />
    <glyph glyph-name="Uogonek" unicode="&#x172;" horiz-adv-x="658" 
d="M185 22q-62 30 -96.5 89t-34.5 142v447h125v-448q0 -70 40.5 -107t109.5 -37t110 37t41 107v448h124v-447q0 -83 -34 -142t-96 -89t-145 -30q-82 0 -144 30zM329 -194q-30 0 -53 11t-35.5 31t-12.5 45q0 32 19.5 61.5t52.5 45.5h78q-32 -23 -45 -41t-13 -35
q0 -14 7.5 -21t21.5 -7q12 0 22 6.5t20 19.5l47 -58q-42 -58 -109 -58z" />
    <glyph glyph-name="uogonek" unicode="&#x173;" horiz-adv-x="578" 
d="M400 78q-21 -41 -62 -63.5t-95 -22.5q-56 0 -98.5 25.5t-65.5 70.5t-23 104v312h122v-286q0 -34 13.5 -60.5t37 -41.5t54.5 -15q34 0 60.5 16.5t41.5 45.5t15 66v275h123v-504h-123v78zM474 -194q-30 0 -53 11t-35.5 31t-12.5 45q0 32 19.5 61.5t52.5 45.5h78
q-32 -23 -45 -41t-13 -35q0 -14 7.5 -21t21.5 -7q12 0 22 6.5t20 19.5l47 -58q-42 -58 -109 -58z" />
    <glyph glyph-name="Wcircumflex" unicode="&#x174;" horiz-adv-x="1012" 
d="M152 700l145 -505l152 505h113l153 -505l146 505h133l-209 -700h-130l-149 495l-149 -495h-129l-210 700h134zM669 756h-106l-56 66l-57 -66h-104l108 140h107z" />
    <glyph glyph-name="wcircumflex" unicode="&#x175;" horiz-adv-x="767" 
d="M136 504l92 -337l99 337h113l99 -337l93 337h122l-160 -504h-109l-101 339l-102 -339h-108l-161 504h123zM547 560h-106l-56 66l-57 -66h-104l108 140h107z" />
    <glyph glyph-name="Ycircumflex" unicode="&#x176;" horiz-adv-x="618" 
d="M2 700h143l164 -286l165 286h142l-241 -409v-291h-132v291zM472 756h-106l-56 66l-57 -66h-104l108 140h107z" />
    <glyph glyph-name="ycircumflex" unicode="&#x177;" horiz-adv-x="500" 
d="M316 24l-78 -228h-117l71 204l-184 504h125l117 -346l116 346h126zM418 560h-106l-56 66l-57 -66h-104l108 140h107z" />
    <glyph glyph-name="Ydieresis" unicode="&#x178;" horiz-adv-x="618" 
d="M2 700h143l164 -286l165 286h142l-241 -409v-291h-132v291zM456 780h-109v114h109v-114zM267 780h-109v113h109v-113z" />
    <glyph glyph-name="Zacute" unicode="&#x179;" horiz-adv-x="593" 
d="M415 587h-368v113h516v-113l-388 -474h388v-113h-536v113zM447 904l-101 -148h-106l75 148h132z" />
    <glyph glyph-name="zacute" unicode="&#x17a;" horiz-adv-x="498" 
d="M312 401h-261v103h401v-103l-275 -297h290v-104h-433v104zM419 708l-101 -148h-106l75 148h132z" />
    <glyph glyph-name="Zdotaccent" unicode="&#x17b;" horiz-adv-x="593" 
d="M415 587h-368v113h516v-113l-388 -474h388v-113h-536v113zM358 779h-132v137h132v-137z" />
    <glyph glyph-name="zdotaccent" unicode="&#x17c;" horiz-adv-x="498" 
d="M312 401h-261v103h401v-103l-275 -297h290v-104h-433v104zM331 583h-132v137h132v-137z" />
    <glyph glyph-name="Zcaron" unicode="&#x17d;" horiz-adv-x="593" 
d="M415 587h-368v113h516v-113l-388 -474h388v-113h-536v113zM234 896l57 -67l56 67h106l-108 -140h-107l-108 140h104z" />
    <glyph glyph-name="zcaron" unicode="&#x17e;" horiz-adv-x="498" 
d="M312 401h-261v103h401v-103l-275 -297h290v-104h-433v104zM207 700l57 -67l56 67h106l-108 -140h-107l-108 140h104z" />
    <glyph glyph-name="longs" unicode="&#x17f;" horiz-adv-x="370" 
d="M18 401v103h99v47q0 51 22.5 89t63 59t94.5 21h90v-104h-76q-32 0 -51.5 -19t-19.5 -52v-545h-123v401h-99z" />
    <glyph glyph-name="uni018F" unicode="&#x18f;" horiz-adv-x="739" 
d="M539 657.5q79 -49.5 122 -133t43 -181.5q0 -99 -40 -180t-115.5 -127.5t-178.5 -46.5q-102 0 -176.5 44t-113.5 118.5t-39 165.5q0 22 3 52h535q-4 67 -33.5 119t-78.5 81.5t-110 29.5q-79 0 -129 -34t-66 -95h-126q12 71 55.5 124.5t112 83t153.5 29.5q103 0 182 -49.5z
M507.5 138.5q53.5 48.5 67.5 139.5h-405q2 -54 26.5 -96.5t69.5 -67t104 -24.5q84 0 137.5 48.5z" />
    <glyph glyph-name="florin" unicode="&#x192;" horiz-adv-x="542" 
d="M396 604.5q-22 -17.5 -30 -58.5l-9 -42h177v-103h-198l-88 -433q-19 -91 -73.5 -131.5t-145.5 -40.5h-71v99l83 -1q34 0 55.5 17.5t29.5 58.5l88 431h-131v103h152l9 44q19 91 73.5 131.5t145.5 40.5h72v-99h-83q-34 1 -56 -16.5z" />
    <glyph glyph-name="Aringacute" unicode="&#x1fa;" horiz-adv-x="675" 
d="M472 163h-270l-60 -163h-136l269 700h124l270 -700h-137zM432 275l-94 256l-94 -256h188zM269 757.5q-30 15.5 -47 43t-17 62.5q0 34 17 61.5t47.5 43.5t67.5 16q38 0 69 -16t48 -43.5t17 -61.5q0 -35 -17 -62.5t-48 -43t-69 -15.5t-68 15.5zM380.5 823q16.5 15 16.5 40
q0 24 -16.5 39t-43.5 15q-26 0 -42 -15t-16 -39q0 -25 16 -40t42 -15q27 0 43.5 15zM503 1122l-101 -148h-106l75 148h132z" />
    <glyph glyph-name="aringacute" unicode="&#x1fb;" horiz-adv-x="525" 
d="M373.5 488.5q49.5 -23.5 77 -66t27.5 -98.5v-324h-121v75q-16 -38 -56.5 -60.5t-94.5 -22.5q-49 0 -87.5 19.5t-59.5 54t-21 77.5q0 48 23.5 84t66.5 55.5t99 19.5h93q18 0 27.5 9t9.5 25q0 37 -27.5 60.5t-75.5 23.5q-31 0 -55 -12t-37 -31.5t-14 -42.5h-110
q3 50 31 90.5t77.5 64t113.5 23.5t113.5 -23.5zM300.5 99.5q27.5 16.5 42 46t14.5 67.5v8h-113q-39 0 -63 -20t-24 -53q0 -29 21.5 -47t56.5 -18q38 0 65.5 16.5zM196 561.5q-30 15.5 -47 43t-17 62.5q0 34 17 61.5t47.5 43.5t67.5 16q38 0 69 -16t48 -43.5t17 -61.5
q0 -35 -17 -62.5t-48 -43t-69 -15.5t-68 15.5zM307.5 627q16.5 15 16.5 40q0 24 -16.5 39t-43.5 15q-26 0 -42 -15t-16 -39q0 -25 16 -40t42 -15q27 0 43.5 15zM430 926l-101 -148h-106l75 148h132z" />
    <glyph glyph-name="AEacute" unicode="&#x1fc;" horiz-adv-x="960" 
d="M924 115v-115h-427v164h-253l-97 -164h-141l434 700h473v-114h-284v-170h218v-114h-218v-187h295zM497 279v314l-185 -314h185zM842 904l-101 -148h-106l75 148h132z" />
    <glyph glyph-name="aeacute" unicode="&#x1fd;" horiz-adv-x="861" 
d="M849 168q-9 -53 -42 -93t-83.5 -61.5t-111.5 -21.5q-65 0 -116 25.5t-86 69.5q-56 -95 -185 -95q-59 0 -101.5 19.5t-64 53.5t-21.5 78q0 50 22.5 86.5t64.5 55.5t102 19h97q16 0 24.5 8.5t8.5 23.5v2q0 24 -13 42.5t-37 29t-54 10.5q-31 0 -54.5 -12t-36.5 -32t-14 -43
h-110q4 50 31.5 91t74.5 64.5t107 23.5q56 0 101.5 -17.5t75.5 -49.5q32 32 75.5 49.5t98.5 17.5q80 0 135.5 -34.5t82.5 -90t27 -118.5q0 -22 -2 -42h-372q7 -61 44 -97t95 -36q47 0 77 19t40 55h120zM518 392q-32 -28 -42 -84h248q-3 32 -18 57.5t-41.5 40t-62.5 14.5
q-52 0 -84 -28zM300 99.5q28 16.5 42.5 46t14.5 67.5v7v3h-113q-43 0 -65 -19.5t-22 -55.5q0 -28 22 -46.5t55 -18.5q38 0 66 16.5zM606 708l-101 -148h-106l75 148h132z" />
    <glyph glyph-name="uni0218" unicode="&#x218;" horiz-adv-x="586" 
d="M158.5 22q-59.5 30 -94 85t-37.5 128h127q5 -59 43 -93.5t100 -34.5q58 0 92.5 23.5t34.5 68.5q0 30 -19 49t-48.5 29.5t-80.5 23.5q-72 18 -117.5 37.5t-78 61.5t-32.5 113q0 57 30.5 101.5t85.5 69t125 24.5q73 0 129.5 -26.5t89 -75.5t35.5 -114h-126q-5 46 -39 74
t-89 28q-52 0 -82 -22t-30 -59q0 -31 19.5 -50t49 -29.5t82.5 -22.5q73 -17 118.5 -35.5t78.5 -60.5t33 -114q0 -64 -33 -111t-92 -72.5t-136 -25.5q-79 0 -138.5 30zM357 -68l-82 -162h-107l51 162h138z" />
    <glyph glyph-name="uni0219" unicode="&#x219;" horiz-adv-x="463" 
d="M130 13.5q-46 21.5 -72.5 61t-29.5 93.5h112q4 -36 30 -57t67 -21q23 0 41.5 7t28.5 19.5t10 27.5q0 22 -13.5 34.5t-34 18t-57.5 12.5q-54 10 -88 22t-58.5 43t-24.5 88q0 43 23.5 77.5t65 53.5t92.5 19q58 0 103.5 -20.5t72 -57t28.5 -85.5h-112q-3 22 -16.5 38.5
t-33 24.5t-39.5 8q-33 0 -53 -14.5t-20 -39.5q0 -21 13 -32.5t33 -16t56 -9.5q56 -8 91 -19.5t61 -44t26 -95.5q0 -47 -24 -82.5t-68.5 -55t-102.5 -19.5q-61 0 -107 21.5zM302 -68l-82 -162h-107l51 162h138z" />
    <glyph glyph-name="uni021A" unicode="&#x21a;" horiz-adv-x="573" 
d="M9 586v114h555v-114h-211v-586h-132v586h-212zM362 -68l-82 -162h-107l51 162h138z" />
    <glyph glyph-name="uni021B" unicode="&#x21b;" horiz-adv-x="403" 
d="M240 504h140v-103h-140v-220q0 -38 19 -57.5t54 -19.5h67v-104h-81q-55 0 -96 21t-63.5 60.5t-22.5 94.5v225h-99v103h99v152h123v-152zM298 -68l-82 -162h-107l51 162h138z" />
    <glyph glyph-name="uni0237" unicode="&#x237;" horiz-adv-x="233" 
d="M177 504v-540q0 -80 -42 -124t-125 -44h-54v98h36q35 0 49 20t14 62v528h122z" />
    <glyph glyph-name="uni0259" unicode="&#x259;" horiz-adv-x="550" 
d="M403 475q58 -37 88.5 -97t30.5 -128q0 -69 -28 -127.5t-84 -94.5t-135 -36q-80 0 -135 34.5t-82 90t-27 118.5q0 22 2 42h371q-7 61 -44 97t-94 36q-48 0 -78 -19t-39 -55h-121q9 53 42 93t83.5 61.5t112.5 21.5q79 0 137 -37zM359 112q32 28 42 84h-248q3 -32 18 -57.5
t41.5 -40t62.5 -14.5q52 0 84 28z" />
    <glyph glyph-name="circumflex" unicode="&#x2c6;" horiz-adv-x="423" 
d="M373 560h-106l-56 66l-57 -66h-104l108 140h107z" />
    <glyph glyph-name="caron" unicode="&#x2c7;" horiz-adv-x="423" 
d="M154 700l57 -67l56 67h106l-108 -140h-107l-108 140h104z" />
    <glyph glyph-name="breve" unicode="&#x2d8;" horiz-adv-x="400" 
d="M122 576.5q-34 19.5 -53 52t-19 71.5h96q0 -28 15 -44t39 -16t39 16t15 44h96q0 -39 -19 -71.5t-53 -52t-78 -19.5t-78 19.5z" />
    <glyph glyph-name="dotaccent" unicode="&#x2d9;" horiz-adv-x="232" 
d="M181 583h-132v137h132v-137z" />
    <glyph glyph-name="ring" unicode="&#x2da;" horiz-adv-x="365" 
d="M114 561.5q-30 15.5 -47 43t-17 62.5q0 34 17 61.5t47.5 43.5t67.5 16q38 0 69 -16t48 -43.5t17 -61.5q0 -35 -17 -62.5t-48 -43t-69 -15.5t-68 15.5zM225.5 627q16.5 15 16.5 40q0 24 -16.5 39t-43.5 15q-26 0 -42 -15t-16 -39q0 -25 16 -40t42 -15q27 0 43.5 15z" />
    <glyph glyph-name="ogonek" unicode="&#x2db;" horiz-adv-x="310" 
d="M151 -194q-30 0 -53 11t-35.5 31t-12.5 45q0 32 19.5 61.5t52.5 45.5h78q-32 -23 -45 -41t-13 -35q0 -14 7.5 -21t21.5 -7q12 0 22 6.5t20 19.5l47 -58q-42 -58 -109 -58z" />
    <glyph glyph-name="tilde" unicode="&#x2dc;" horiz-adv-x="440" 
d="M243 578q-15 6 -35 17q-12 7 -21 11t-19 4q-15 0 -25.5 -9.5t-12.5 -25.5h-80q0 36 14.5 65t40 45.5t55.5 16.5q21 0 36.5 -6t33.5 -17q13 -8 22 -12t19 -4q15 0 26 10t14 26h79q-1 -38 -16 -67t-40 -44.5t-55 -15.5q-21 0 -36 6z" />
    <glyph glyph-name="hungarumlaut" unicode="&#x2dd;" horiz-adv-x="474" 
d="M256 708l-101 -148h-106l75 148h132zM424 708l-101 -148h-106l75 148h132z" />
    <glyph glyph-name="gravecomb" unicode="&#x300;" 
d="M-207 708h133l74 -148h-105z" />
    <glyph glyph-name="acutecomb" unicode="&#x301;" 
d="M-13 708l-101 -148h-106l75 148h132z" />
    <glyph glyph-name="uni0302" unicode="&#x302;" 
d="M-59 560h-106l-56 66l-57 -66h-104l108 140h107z" />
    <glyph glyph-name="tildecomb" unicode="&#x303;" 
d="M-180 578q-15 6 -35 17q-12 7 -21 11t-19 4q-15 0 -25.5 -9.5t-12.5 -25.5h-80q0 36 14.5 65t40 45.5t55.5 16.5q21 0 36.5 -6t33.5 -17q13 -8 22 -12t19 -4q15 0 26 10t14 26h79q-1 -38 -16 -67t-40 -44.5t-55 -15.5q-21 0 -36 6z" />
    <glyph glyph-name="uni0304" unicode="&#x304;" 
d="M-50 679v-94h-276v94h276z" />
    <glyph glyph-name="uni0306" unicode="&#x306;" 
d="M-295 576.5q-34 19.5 -53 52t-19 71.5h96q0 -28 15 -44t39 -16t39 16t15 44h96q0 -39 -19 -71.5t-53 -52t-78 -19.5t-78 19.5z" />
    <glyph glyph-name="uni0307" unicode="&#x307;" 
d="M-61 583h-132v137h132v-137z" />
    <glyph glyph-name="uni0308" unicode="&#x308;" 
d="M-86 584h-109v114h109v-114zM-275 584h-109v113h109v-113z" />
    <glyph glyph-name="uni030A" unicode="&#x30a;" 
d="M-232 561.5q-30 15.5 -47 43t-17 62.5q0 34 17 61.5t47.5 43.5t67.5 16q38 0 69 -16t48 -43.5t17 -61.5q0 -35 -17 -62.5t-48 -43t-69 -15.5t-68 15.5zM-120.5 627q16.5 15 16.5 40q0 24 -16.5 39t-43.5 15q-26 0 -42 -15t-16 -39q0 -25 16 -40t42 -15q27 0 43.5 15z" />
    <glyph glyph-name="uni030B" unicode="&#x30b;" 
d="M-143 708l-101 -148h-106l75 148h132zM25 708l-101 -148h-106l75 148h132z" />
    <glyph glyph-name="uni030C" unicode="&#x30c;" 
d="M-266 700l57 -67l56 67h106l-108 -140h-107l-108 140h104z" />
    <glyph glyph-name="uni0312" unicode="&#x312;" 
d="M-218 568l62 155h107l-29 -155h-140z" />
    <glyph glyph-name="uni0326" unicode="&#x326;" 
d="M-50 -68l-82 -162h-107l51 162h138z" />
    <glyph glyph-name="uni0327" unicode="&#x327;" 
d="M-136 17l-36 -78q6 1 19 1q31 0 54.5 -12t36 -32.5t12.5 -43.5q0 -28 -18 -50t-50 -35t-71 -13q-33 0 -81 14v64q43 -14 80 -14q25 0 41 9t16 24q0 16 -15.5 25.5t-39.5 9.5q-17 0 -32 -4l-30 27l45 108h69z" />
    <glyph glyph-name="uni0328" unicode="&#x328;" 
d="M-135 -194q-30 0 -53 11t-35.5 31t-12.5 45q0 32 19.5 61.5t52.5 45.5h78q-32 -23 -45 -41t-13 -35q0 -14 7.5 -21t21.5 -7q12 0 22 6.5t20 19.5l47 -58q-42 -58 -109 -58z" />
    <glyph glyph-name="uni0335" unicode="&#x335;" 
d="M-67 454v-97h-392v97h392z" />
    <glyph glyph-name="uni0336" unicode="&#x336;" 
d="M-50 620v-99h-702v99h702z" />
    <glyph glyph-name="uni0337" unicode="&#x337;" 
d="M-67 309l-278 -71v98l278 71v-98z" />
    <glyph glyph-name="uni0338" unicode="&#x338;" 
d="M-614 -32l-77 65l564 700l77 -65z" />
    <glyph glyph-name="uni0394" unicode="&#x394;" horiz-adv-x="677" 
d="M7 0l270 700h124l269 -700h-663zM339 527l-155 -415h310z" />
    <glyph glyph-name="uni03A9" unicode="&#x3a9;" horiz-adv-x="735" 
d="M661.5 228q-38.5 -69 -104.5 -113h134v-115h-252v151q58 36 92.5 97t34.5 126t-25 115.5t-70 78.5t-103 28t-103.5 -28t-70.5 -78.5t-25 -115.5q0 -43 15.5 -85.5t44.5 -78t68 -59.5v-151h-253v115h136q-67 45 -106 113.5t-39 151.5q0 93 43.5 168t119.5 117.5t170 42.5
t169.5 -42.5t119 -117.5t43.5 -168q0 -83 -38.5 -152z" />
    <glyph glyph-name="uni03BC" unicode="&#x3bc;" horiz-adv-x="584" 
d="M523 504v-504h-123v78q-16 -41 -52 -63.5t-82 -22.5q-45 0 -88 30v-226h-123v708h123v-286q0 -34 13 -60.5t37 -41.5t55 -15q34 0 60.5 16.5t41.5 45.5t15 66v275h123z" />
    <glyph glyph-name="pi" unicode="&#x3c0;" horiz-adv-x="634" 
d="M38 399v105h558v-105h-94v-399h-118v399h-135v-399h-119v399h-92z" />
    <glyph glyph-name="uni0E3F" unicode="&#xe3f;" horiz-adv-x="627" 
d="M559 318q33 -44 33 -111q0 -64 -30 -111t-85.5 -71.5t-128.5 -24.5h-1v-108h-125v108h-155v700h155v101h125v-101q62 -2 109.5 -23.5t74 -61.5t26.5 -95q0 -46 -25 -83t-60 -55q54 -20 87 -64zM197 426h132q52 0 78.5 21.5t26.5 62.5t-27 62.5t-80 21.5h-130v-168z
M465 214q0 49 -32.5 74.5t-98.5 25.5h-137v-199h137q131 0 131 99z" />
    <glyph glyph-name="Wgrave" unicode="&#x1e80;" horiz-adv-x="1012" 
d="M152 700l145 -505l152 505h113l153 -505l146 505h133l-209 -700h-130l-149 495l-149 -495h-129l-210 700h134zM351 904h133l74 -148h-105z" />
    <glyph glyph-name="wgrave" unicode="&#x1e81;" horiz-adv-x="767" 
d="M136 504l92 -337l99 337h113l99 -337l93 337h122l-160 -504h-109l-101 339l-102 -339h-108l-161 504h123zM229 708h133l74 -148h-105z" />
    <glyph glyph-name="Wacute" unicode="&#x1e82;" horiz-adv-x="1012" 
d="M152 700l145 -505l152 505h113l153 -505l146 505h133l-209 -700h-130l-149 495l-149 -495h-129l-210 700h134zM661 904l-101 -148h-106l75 148h132z" />
    <glyph glyph-name="wacute" unicode="&#x1e83;" horiz-adv-x="767" 
d="M136 504l92 -337l99 337h113l99 -337l93 337h122l-160 -504h-109l-101 339l-102 -339h-108l-161 504h123zM539 708l-101 -148h-106l75 148h132z" />
    <glyph glyph-name="Wdieresis" unicode="&#x1e84;" horiz-adv-x="1012" 
d="M152 700l145 -505l152 505h113l153 -505l146 505h133l-209 -700h-130l-149 495l-149 -495h-129l-210 700h134zM653 780h-109v114h109v-114zM464 780h-109v113h109v-113z" />
    <glyph glyph-name="wdieresis" unicode="&#x1e85;" horiz-adv-x="767" 
d="M136 504l92 -337l99 337h113l99 -337l93 337h122l-160 -504h-109l-101 339l-102 -339h-108l-161 504h123zM531 584h-109v114h109v-114zM342 584h-109v113h109v-113z" />
    <glyph glyph-name="uni1E9E" unicode="&#x1e9e;" horiz-adv-x="631" 
d="M99 591.5q32 55.5 90.5 86t134.5 30.5q68 0 123.5 -27t88.5 -76.5t36 -113.5l-126 -93q80 -20 115 -68.5t35 -122.5q0 -64 -30 -111t-85.5 -71.5t-128.5 -24.5h-90v115h76q67 0 99 25t32 74q0 48 -34.5 74t-100.5 26h-37v84l143 114q-5 41 -36.5 65.5t-79.5 24.5
q-38 0 -67 -18t-44.5 -50.5t-15.5 -76.5v-457h-130v462q0 74 32 129.5z" />
    <glyph glyph-name="Ygrave" unicode="&#x1ef2;" horiz-adv-x="618" 
d="M2 700h143l164 -286l165 286h142l-241 -409v-291h-132v291zM154 904h133l74 -148h-105z" />
    <glyph glyph-name="ygrave" unicode="&#x1ef3;" horiz-adv-x="500" 
d="M316 24l-78 -228h-117l71 204l-184 504h125l117 -346l116 346h126zM100 708h133l74 -148h-105z" />
    <glyph glyph-name="uni2011" unicode="&#x2011;" horiz-adv-x="482" 
d="M434 370v-105h-386v105h386z" />
    <glyph glyph-name="endash" unicode="&#x2013;" horiz-adv-x="570" 
d="M520 370v-105h-472v105h472z" />
    <glyph glyph-name="emdash" unicode="&#x2014;" horiz-adv-x="814" 
d="M747 370v-105h-680v105h680z" />
    <glyph glyph-name="quoteleft" unicode="&#x2018;" horiz-adv-x="270" 
d="M163.5 611.5q-12.5 -14.5 -12.5 -39.5v-117h-116v127q0 41 16.5 72.5t47 49t69.5 17.5h47v-95h-18q-21 0 -33.5 -14.5z" />
    <glyph glyph-name="quoteright" unicode="&#x2019;" horiz-adv-x="270" 
d="M86.5 564q12.5 15 12.5 39v117h116v-127q0 -41 -16.5 -72t-46.5 -48.5t-69 -17.5h-48v94h18q21 0 33.5 15z" />
    <glyph glyph-name="quotesinglbase" unicode="&#x201a;" horiz-adv-x="270" 
d="M86.5 -48.5q12.5 14.5 12.5 39.5v117h116v-127q0 -41 -16.5 -72.5t-46.5 -49t-69 -17.5h-48v95h18q21 0 33.5 14.5z" />
    <glyph glyph-name="quotedblleft" unicode="&#x201c;" horiz-adv-x="486" 
d="M163.5 611.5q-12.5 -14.5 -12.5 -39.5v-117h-116v127q0 41 16.5 72.5t47 49t69.5 17.5h47v-95h-18q-21 0 -33.5 -14.5zM379.5 611.5q-12.5 -14.5 -12.5 -39.5v-117h-116v127q0 41 16.5 72.5t46.5 49t69 17.5h48v-95h-18q-21 0 -33.5 -14.5z" />
    <glyph glyph-name="quotedblright" unicode="&#x201d;" horiz-adv-x="486" 
d="M86.5 564q12.5 15 12.5 39v117h116v-127q0 -41 -16.5 -72t-46.5 -48.5t-69 -17.5h-48v94h18q21 0 33.5 15zM302.5 564q12.5 15 12.5 39v117h116v-127q0 -41 -17 -72t-47 -48.5t-69 -17.5h-47v94h18q21 0 33.5 15z" />
    <glyph glyph-name="quotedblbase" unicode="&#x201e;" horiz-adv-x="485" 
d="M86.5 -48.5q12.5 14.5 12.5 39.5v117h116v-127q0 -41 -16.5 -72.5t-46.5 -49t-69 -17.5h-48v95h18q21 0 33.5 14.5zM301.5 -48.5q12.5 14.5 12.5 39.5v117h116v-127q0 -41 -16.5 -72.5t-46.5 -49t-69 -17.5h-48v95h18q21 0 33.5 14.5z" />
    <glyph glyph-name="dagger" unicode="&#x2020;" horiz-adv-x="500" 
d="M41 401v103h149v246h121v-246h149v-103h-149v-451h-121v451h-149z" />
    <glyph glyph-name="daggerdbl" unicode="&#x2021;" horiz-adv-x="500" 
d="M311 401v-298h149v-103h-149v-246h-121v246h-149v103h149v298h-149v103h149v246h121v-246h149v-103h-149z" />
    <glyph glyph-name="bullet" unicode="&#x2022;" horiz-adv-x="294" 
d="M101 192.5q-21 12.5 -33.5 33.5t-12.5 46t12.5 45.5t33.5 33t47 12.5q24 0 45 -12.5t33 -33t12 -45.5t-12 -46t-33 -33.5t-45 -12.5q-26 0 -47 12.5z" />
    <glyph glyph-name="ellipsis" unicode="&#x2026;" horiz-adv-x="666" 
d="M189 0h-134v129h134v-129zM610 0h-134v129h134v-129zM400 0h-134v129h134v-129z" />
    <glyph glyph-name="perthousand" unicode="&#x2030;" horiz-adv-x="1099" 
d="M684 700l-508 -700h-109l508 700h109zM124 409q-35 21 -54.5 57.5t-19.5 81.5t19.5 81.5t54.5 57.5t79 21t78.5 -21t54 -57.5t19.5 -81.5t-19.5 -81.5t-54 -57.5t-78.5 -21t-79 21zM251.5 490.5q18.5 22.5 18.5 57.5t-18.5 57.5t-48.5 22.5t-48 -22.5t-18 -57.5t18 -57.5
t48 -22.5t48.5 22.5zM472 13q-35 21 -54.5 57.5t-19.5 81.5t19.5 81.5t54.5 57.5t79 21t78.5 -21t54 -57.5t19.5 -81.5t-19.5 -81.5t-54 -57.5t-78.5 -21t-79 21zM599.5 94.5q18.5 22.5 18.5 57.5t-18.5 57.5t-48.5 22.5t-48 -22.5t-18 -57.5t18 -57.5t48 -22.5t48.5 22.5z
M818 13q-35 21 -54.5 57.5t-19.5 81.5t19.5 81.5t54.5 57.5t79 21t78.5 -21t54 -57.5t19.5 -81.5t-19.5 -81.5t-54 -57.5t-78.5 -21t-79 21zM945.5 94.5q18.5 22.5 18.5 57.5t-18.5 57.5t-48.5 22.5t-48 -22.5t-18 -57.5t18 -57.5t48 -22.5t48.5 22.5z" />
    <glyph glyph-name="guilsinglleft" unicode="&#x2039;" horiz-adv-x="385" 
d="M33 346l314 215v-124l-190 -127l190 -127v-124l-314 215v72z" />
    <glyph glyph-name="guilsinglright" unicode="&#x203a;" horiz-adv-x="374" 
d="M50 183l189 127l-189 127v124l313 -215v-72l-313 -215v124z" />
    <glyph glyph-name="fraction" unicode="&#x2044;" horiz-adv-x="259" 
d="M438 700l-508 -700h-109l508 700h109z" />
    <glyph glyph-name="uni2070" unicode="&#x2070;" horiz-adv-x="390" 
d="M64.5 367q-39.5 52 -39.5 150v27q0 97 39.5 149t117.5 52h25q79 0 118.5 -51.5t39.5 -149.5v-27q0 -98 -39.5 -150t-118.5 -52h-25q-78 0 -117.5 52zM256 417.5q20 25.5 20 72.5v80q0 47 -20 72.5t-53 25.5h-16q-33 0 -52.5 -25t-19.5 -73v-80q0 -48 19.5 -73t52.5 -25
h16q33 0 53 25.5z" />
    <glyph glyph-name="uni2074" unicode="&#x2074;" horiz-adv-x="395" 
d="M19 404v76l205 260h96v-260h48v-76h-48v-84h-90v84h-211zM230 631l-123 -151h123v151z" />
    <glyph glyph-name="uni2075" unicode="&#x2075;" horiz-adv-x="362" 
d="M107.5 333.5q-33.5 18.5 -54 48.5t-22.5 63h78q3 -25 22.5 -40.5t48.5 -15.5q33 0 53 19t20 51t-20.5 51.5t-54.5 19.5q-45 0 -65 -33h-74l34 243h236v-77h-169l-14 -83q28 19 65 19q42 0 75 -18t51.5 -50t18.5 -72q0 -42 -20 -74.5t-55.5 -51t-80.5 -18.5
q-39 0 -72.5 18.5z" />
    <glyph glyph-name="uni2076" unicode="&#x2076;" horiz-adv-x="388" 
d="M282 582q33 -19 51.5 -51.5t18.5 -71.5q0 -40 -21 -73t-57 -52t-79 -19q-52 0 -89 26.5t-56 72t-19 103.5q0 71 21.5 122.5t60 78.5t89.5 27q42 0 76 -16t54.5 -44t24.5 -62h-79q-4 22 -24.5 36t-49.5 14q-27 0 -47.5 -16t-32 -43t-13.5 -60q13 21 40.5 34t54.5 13
q43 0 76 -19zM251.5 406.5q21.5 19.5 21.5 52.5q0 31 -21.5 50.5t-56.5 19.5q-34 0 -55.5 -19.5t-21.5 -50.5q0 -33 21 -52.5t56 -19.5t56.5 19.5z" />
    <glyph glyph-name="uni2077" unicode="&#x2077;" horiz-adv-x="317" 
d="M102.5 429q12.5 48 45.5 99l87 135h-213v77h311v-70l-107 -168q-27 -41 -37 -82t-10 -100h-89q0 61 12.5 109z" />
    <glyph glyph-name="uni2078" unicode="&#x2078;" horiz-adv-x="379" 
d="M108.5 331q-36.5 16 -57 45.5t-20.5 67.5q0 35 18.5 61.5t49.5 40.5q-22 15 -36 37t-14 48q0 33 18 59t50 40.5t73 14.5t73 -14.5t49.5 -40.5t17.5 -59q0 -26 -13.5 -48t-37.5 -37q32 -14 50.5 -40.5t18.5 -61.5q0 -38 -20.5 -67.5t-56.5 -45.5t-81 -16t-81.5 16z
M234.5 592q16.5 13 16.5 35t-16.5 35t-44.5 13t-44.5 -13t-16.5 -35t16.5 -35t44.5 -13t44.5 13zM244 405q20 15 20 41t-20 41.5t-54 15.5t-54.5 -15.5t-20.5 -41.5t20.5 -41t54.5 -15t54 15z" />
    <glyph glyph-name="uni2079" unicode="&#x2079;" horiz-adv-x="388" 
d="M106 478q-33 19 -51.5 51.5t-18.5 71.5q0 40 21 73t57 52t79 19q52 0 89 -26.5t56 -72t19 -103.5q0 -71 -21.5 -122.5t-60 -78.5t-89.5 -27q-42 0 -76 16t-54.5 44t-24.5 62h79q4 -22 24.5 -36t49.5 -14q27 0 47.5 16t32 43t13.5 61q-13 -21 -40 -34.5t-55 -13.5
q-43 0 -76 19zM136.5 653.5q-21.5 -19.5 -21.5 -52.5q0 -31 21.5 -50.5t56.5 -19.5q34 0 55.5 19.5t21.5 50.5q0 33 -21 52.5t-56 19.5t-56.5 -19.5z" />
    <glyph glyph-name="Euro" unicode="&#x20ac;" horiz-adv-x="709" 
d="M662 196q-7 -61 -38 -107.5t-82.5 -71.5t-118.5 -25h-46q-113 0 -178.5 59.5t-84.5 173.5h-91v87h83v14v48v18h-83v87h91q20 112 86 170.5t177 58.5h46q66 0 116.5 -24.5t81.5 -69t39 -103.5h-134q-8 38 -36.5 60.5t-70.5 22.5h-36q-56 0 -91 -29.5t-47 -85.5h206v-87
h-213v-80h213v-87h-207q12 -58 47 -88t92 -30h36q44 0 73 24t37 65h133z" />
    <glyph glyph-name="uni20BF" unicode="&#x20bf;" horiz-adv-x="627" 
d="M552.5 83q-39.5 -50 -110.5 -71v-120h-102v108h-87v-108h-101v108h-85v700h85v101h101v-101h85h2v101h101v-118q55 -20 85.5 -62t30.5 -101q0 -46 -25 -83t-60 -55q54 -20 87 -64t33 -111q0 -74 -39.5 -124zM407 572.5q-27 21.5 -80 21.5h-130v-168h132q52 0 78.5 21.5
t26.5 62.5t-27 62.5zM465 214q0 49 -32.5 74.5t-98.5 25.5h-137v-199h137q131 0 131 99z" />
    <glyph glyph-name="uni2113" unicode="&#x2113;" horiz-adv-x="520" 
d="M454.5 77q-26.5 -41 -68.5 -62.5t-95 -21.5q-59 0 -103 21.5t-68 63t-24 99.5v65l-78 -20v109l78 21v150q0 62 26.5 108.5t74.5 72t111 25.5q54 0 95.5 -24.5t65 -69.5t23.5 -104q0 -81 -47.5 -136t-142.5 -81l-77 -20v-84q0 -36 19 -57t56 -21q29 0 47.5 17.5t21.5 47.5
h118q-6 -58 -32.5 -99zM348 439q21 27 21 67t-16.5 63t-46.5 23q-37 0 -59 -28t-22 -81v-101l56 16q46 14 67 41z" />
    <glyph glyph-name="trademark" unicode="&#x2122;" horiz-adv-x="924" 
d="M9 623v77h338v-77h-124v-343h-89v343h-125zM510 700l124 -293l125 293h98v-420h-83v255l-107 -255h-65l-109 255v-255h-82v420h99z" />
    <glyph glyph-name="uni2126" unicode="&#x2126;" horiz-adv-x="735" 
d="M661.5 228q-38.5 -69 -104.5 -113h134v-115h-252v151q58 36 92.5 97t34.5 126t-25 115.5t-70 78.5t-103 28t-103.5 -28t-70.5 -78.5t-25 -115.5q0 -43 15.5 -85.5t44.5 -78t68 -59.5v-151h-253v115h136q-67 45 -106 113.5t-39 151.5q0 93 43.5 168t119.5 117.5t170 42.5
t169.5 -42.5t119 -117.5t43.5 -168q0 -83 -38.5 -152z" />
    <glyph glyph-name="uni2153" unicode="&#x2153;" horiz-adv-x="870" 
d="M108 280v301q-6 -8 -22.5 -13t-32.5 -5h-30v77h29q27 0 41.5 13t19.5 47h84v-420h-89zM705 700l-508 -700h-109l508 700h109zM606 11.5q-36 16.5 -57 48t-21 73.5h86q0 -29 20.5 -45t51.5 -16q32 0 50 15t18 40t-18 39t-50 14h-39v73h37q25 0 40 14.5t15 37.5
q0 22 -16 34.5t-43 12.5q-25 0 -42.5 -14.5t-17.5 -41.5h-81q0 38 19.5 67t52 45.5t71.5 16.5q40 0 73 -15.5t52 -41.5t19 -57q0 -26 -14 -50t-36 -39q68 -32 68 -98q0 -39 -21.5 -68.5t-57.5 -45t-79 -15.5q-44 0 -80 16.5z" />
    <glyph glyph-name="uni2154" unicode="&#x2154;" horiz-adv-x="973" 
d="M44.5 633q18.5 35 53 53.5t81.5 18.5q44 0 78 -16.5t53 -46.5t19 -69q0 -42 -24 -74.5t-76 -59.5l-48 -25q-54 -29 -56 -57h203v-77h-299l-1 62q-1 46 28.5 79.5t68.5 52.5l67 34q23 11 35.5 28t12.5 38q0 27 -17 42.5t-44 15.5q-30 0 -47 -22t-15 -59h-90q-1 47 17.5 82
zM808 700l-508 -700h-109l508 700h109zM709 11.5q-36 16.5 -57 48t-21 73.5h86q0 -29 20.5 -45t51.5 -16q32 0 50 15t18 40t-18 39t-50 14h-39v73h37q25 0 40 14.5t15 37.5q0 22 -16 34.5t-43 12.5q-25 0 -42.5 -14.5t-17.5 -41.5h-81q0 38 19.5 67t52 45.5t71.5 16.5
q40 0 73 -15.5t52 -41.5t19 -57q0 -26 -14 -50t-36 -39q68 -32 68 -98q0 -39 -21.5 -68.5t-57.5 -45t-79 -15.5q-44 0 -80 16.5z" />
    <glyph glyph-name="oneeighth" unicode="&#x215b;" horiz-adv-x="877" 
d="M108 280v301q-6 -8 -22.5 -13t-32.5 -5h-30v77h29q27 0 41.5 13t19.5 47h84v-420h-89zM705 700l-508 -700h-109l508 700h109zM606.5 11q-36.5 16 -57 45.5t-20.5 67.5q0 35 18.5 61.5t49.5 40.5q-22 15 -36 37t-14 48q0 33 18 59t50 40.5t73 14.5t73 -14.5t49.5 -40.5
t17.5 -59q0 -26 -13.5 -48t-37.5 -37q32 -14 50.5 -40.5t18.5 -61.5q0 -38 -20.5 -67.5t-56.5 -45.5t-81 -16t-81.5 16zM732.5 272q16.5 13 16.5 35t-16.5 35t-44.5 13t-44.5 -13t-16.5 -35t16.5 -35t44.5 -13t44.5 13zM742 85q20 15 20 41t-20 41.5t-54 15.5t-54.5 -15.5
t-20.5 -41.5t20.5 -41t54.5 -15t54 15z" />
    <glyph glyph-name="threeeighths" unicode="&#x215c;" horiz-adv-x="982" 
d="M108 291.5q-36 16.5 -57 48t-21 73.5h86q0 -29 20.5 -45t51.5 -16q32 0 50 15t18 40t-18 39t-50 14h-39v73h37q25 0 40 14.5t15 37.5q0 22 -16 34.5t-43 12.5q-25 0 -42.5 -14.5t-17.5 -41.5h-81q0 38 19.5 67t52 45.5t71.5 16.5q40 0 73 -15.5t52 -41.5t19 -57
q0 -26 -14 -50t-36 -39q68 -32 68 -98q0 -39 -21.5 -68.5t-57.5 -45t-79 -15.5q-44 0 -80 16.5zM810 700l-508 -700h-109l508 700h109zM711.5 11q-36.5 16 -57 45.5t-20.5 67.5q0 35 18.5 61.5t49.5 40.5q-22 15 -36 37t-14 48q0 33 18 59t50 40.5t73 14.5t73 -14.5
t49.5 -40.5t17.5 -59q0 -26 -13.5 -48t-37.5 -37q32 -14 50.5 -40.5t18.5 -61.5q0 -38 -20.5 -67.5t-56.5 -45.5t-81 -16t-81.5 16zM837.5 272q16.5 13 16.5 35t-16.5 35t-44.5 13t-44.5 -13t-16.5 -35t16.5 -35t44.5 -13t44.5 13zM847 85q20 15 20 41t-20 41.5t-54 15.5
t-54.5 -15.5t-20.5 -41.5t20.5 -41t54.5 -15t54 15z" />
    <glyph glyph-name="fiveeighths" unicode="&#x215d;" horiz-adv-x="972" 
d="M107.5 293.5q-33.5 18.5 -54 48.5t-22.5 63h78q3 -25 22.5 -40.5t48.5 -15.5q33 0 53 19t20 51t-20.5 51.5t-54.5 19.5q-45 0 -65 -33h-74l34 243h236v-77h-169l-14 -83q28 19 65 19q42 0 75 -18t51.5 -50t18.5 -72q0 -42 -20 -74.5t-55.5 -51t-80.5 -18.5
q-39 0 -72.5 18.5zM800 700l-508 -700h-109l508 700h109zM701.5 11q-36.5 16 -57 45.5t-20.5 67.5q0 35 18.5 61.5t49.5 40.5q-22 15 -36 37t-14 48q0 33 18 59t50 40.5t73 14.5t73 -14.5t49.5 -40.5t17.5 -59q0 -26 -13.5 -48t-37.5 -37q32 -14 50.5 -40.5t18.5 -61.5
q0 -38 -20.5 -67.5t-56.5 -45.5t-81 -16t-81.5 16zM827.5 272q16.5 13 16.5 35t-16.5 35t-44.5 13t-44.5 -13t-16.5 -35t16.5 -35t44.5 -13t44.5 13zM837 85q20 15 20 41t-20 41.5t-54 15.5t-54.5 -15.5t-20.5 -41.5t20.5 -41t54.5 -15t54 15z" />
    <glyph glyph-name="seveneighths" unicode="&#x215e;" horiz-adv-x="857" 
d="M102.5 389q12.5 48 45.5 99l87 135h-213v77h311v-70l-107 -168q-27 -41 -37 -82t-10 -100h-89q0 61 12.5 109zM685 700l-508 -700h-109l508 700h109zM586.5 11q-36.5 16 -57 45.5t-20.5 67.5q0 35 18.5 61.5t49.5 40.5q-22 15 -36 37t-14 48q0 33 18 59t50 40.5t73 14.5
t73 -14.5t49.5 -40.5t17.5 -59q0 -26 -13.5 -48t-37.5 -37q32 -14 50.5 -40.5t18.5 -61.5q0 -38 -20.5 -67.5t-56.5 -45.5t-81 -16t-81.5 16zM712.5 272q16.5 13 16.5 35t-16.5 35t-44.5 13t-44.5 -13t-16.5 -35t16.5 -35t44.5 -13t44.5 13zM722 85q20 15 20 41t-20 41.5
t-54 15.5t-54.5 -15.5t-20.5 -41.5t20.5 -41t54.5 -15t54 15z" />
    <glyph glyph-name="arrowleft" unicode="&#x2190;" horiz-adv-x="720" 
d="M686 212h-468l170 -171l-65 -65l-289 289l290 289l65 -66l-172 -171h469v-105z" />
    <glyph glyph-name="arrowup" unicode="&#x2191;" horiz-adv-x="647" 
d="M547 292l-171 171v-468h-105v467l-171 -171l-66 66l290 289l289 -288z" />
    <glyph glyph-name="arrowright" unicode="&#x2192;" horiz-adv-x="720" 
d="M686 265l-289 -289l-65 65l170 171h-468v105h469l-172 171l65 66z" />
    <glyph glyph-name="arrowdown" unicode="&#x2193;" horiz-adv-x="647" 
d="M613 285l-290 -289l-289 288l66 66l171 -171v468h105v-467l171 171z" />
    <glyph glyph-name="arrowboth" unicode="&#x2194;" horiz-adv-x="1053" 
d="M1019 265l-289 -289l-65 65l170 171h-468v105h469l-172 171l65 66zM686 212h-468l170 -171l-65 -65l-289 289l290 289l65 -66l-172 -171h469v-105z" />
    <glyph glyph-name="arrowupdn" unicode="&#x2195;" horiz-adv-x="647" 
d="M547 176l66 -66l-290 -289l-289 288l66 66l171 -171v618l-171 -171l-66 66l289 288l290 -289l-66 -66l-171 171v-616z" />
    <glyph glyph-name="uni2196" unicode="&#x2196;" horiz-adv-x="594" 
d="M486 -5l-331 331l-1 -242h-92v408h410l-1 -92h-242l331 -331z" />
    <glyph glyph-name="uni2197" unicode="&#x2197;" horiz-adv-x="591" 
d="M529 492v-408h-92l-1 241l-331 -330l-74 74l331 331h-242v92h409z" />
    <glyph glyph-name="uni2198" unicode="&#x2198;" horiz-adv-x="594" 
d="M532 407v-409h-408v92l241 1l-331 331l74 74l331 -330v241h93z" />
    <glyph glyph-name="uni2199" unicode="&#x2199;" horiz-adv-x="594" 
d="M228 88h242v-93l-408 1v409h93l-1 -243l331 332l75 -75z" />
    <glyph glyph-name="partialdiff" unicode="&#x2202;" horiz-adv-x="609" 
d="M184.5 24q-58.5 32 -92.5 87t-34 121t31 120.5t85.5 86.5t124.5 32q32 0 64.5 -11.5t59 -31.5t40.5 -45q-2 72 -33 126.5t-80.5 84t-104.5 29.5q-35 0 -69 -12.5t-63 -37.5l-60 88q38 32 86 49t101 17q86 0 164 -45.5t127 -138t49 -225.5q0 -97 -31 -170.5t-91.5 -114.5
t-144.5 -41q-70 0 -128.5 32zM386 117.5q32 16.5 49.5 46.5t17.5 69q0 38 -17.5 67.5t-49.5 46t-74 16.5q-41 0 -73 -16.5t-49 -46t-17 -67.5q0 -39 17 -69t49 -46.5t73 -16.5q42 0 74 16.5z" />
    <glyph glyph-name="uni2206" unicode="&#x2206;" horiz-adv-x="677" 
d="M7 0l270 700h124l269 -700h-663zM339 527l-155 -415h310z" />
    <glyph glyph-name="product" unicode="&#x220f;" horiz-adv-x="675" 
d="M608 700v-700h-136v586h-269v-586h-136v700h541z" />
    <glyph glyph-name="summation" unicode="&#x2211;" horiz-adv-x="552" 
d="M258 350l-219 241v109h469v-114h-307l176 -186v-100l-176 -185h307v-115h-469v109z" />
    <glyph glyph-name="minus" unicode="&#x2212;" horiz-adv-x="640" 
d="M573 370v-105h-506v105h506z" />
    <glyph glyph-name="radical" unicode="&#x221a;" horiz-adv-x="582" 
d="M24 282v115h190l76 -233l164 536h124l-227 -700h-120l-96 282h-111z" />
    <glyph glyph-name="infinity" unicode="&#x221e;" horiz-adv-x="905" 
d="M134.5 189.5q-46.5 24.5 -71 68.5t-24.5 101t24.5 101t71 69t108.5 25q59 0 116 -27.5t94 -81.5q36 54 93 81.5t116 27.5q62 0 108 -25t71 -69.5t25 -100.5t-25 -100.5t-71 -69t-108 -24.5q-59 0 -116 27.5t-93 80.5q-37 -54 -94 -81t-116 -27q-62 0 -108.5 24.5z
M328 289.5q36 24.5 64 69.5q-28 45 -64 69.5t-75 24.5q-46 0 -74 -25t-28 -69t28 -69t74 -25q39 0 75 24.5zM725.5 290q27.5 25 27.5 69t-27.5 69t-73.5 25q-39 0 -75 -24.5t-64 -69.5q28 -45 64 -69.5t75 -24.5q46 0 73.5 25z" />
    <glyph glyph-name="integral" unicode="&#x222b;" horiz-adv-x="414" 
d="M387 616h-76q-32 0 -51.5 -19t-19.5 -52v-580q0 -51 -22.5 -89t-63 -59t-94.5 -21h-90v103h76q32 0 51.5 19.5t19.5 52.5v580q0 51 22.5 89t63 59t94.5 21h90v-104z" />
    <glyph glyph-name="approxequal" unicode="&#x2248;" horiz-adv-x="677" 
d="M393.5 112q-20.5 6 -35.5 14.5t-37 22.5q-24 16 -40.5 24t-35.5 8q-27 0 -43.5 -20.5t-19.5 -55.5h-115q3 58 26.5 102t62 68t85.5 24q35 0 61.5 -11.5t57.5 -32.5q26 -16 41 -23.5t33 -7.5q25 0 41.5 19t20.5 57h114q-3 -59 -26.5 -103t-61.5 -67.5t-84 -23.5
q-24 0 -44.5 6zM393.5 364q-20.5 6 -35.5 14.5t-37 22.5q-24 16 -40.5 24t-35.5 8q-27 0 -43.5 -20.5t-19.5 -55.5h-115q3 58 26.5 102t62 68t85.5 24q35 0 61.5 -11.5t57.5 -32.5q26 -16 41 -23.5t33 -7.5q25 0 41.5 19t20.5 57h114q-3 -59 -26.5 -103t-61.5 -67.5
t-84 -23.5q-24 0 -44.5 6z" />
    <glyph glyph-name="notequal" unicode="&#x2260;" horiz-adv-x="630" 
d="M405 357l-57 -119h225v-105h-275l-58 -122h-112l58 122h-119v105h169l57 119h-226v105h275l58 121h113l-58 -121h118v-105h-168z" />
    <glyph glyph-name="lessequal" unicode="&#x2264;" horiz-adv-x="483" 
d="M443 129l-399 200v105l399 200v-124l-270 -129l270 -128v-124zM442 0h-404v105h404v-105z" />
    <glyph glyph-name="greaterequal" unicode="&#x2265;" horiz-adv-x="483" 
d="M40 510v124l399 -200v-105l-399 -200v124l269 128zM445 0h-405v105h405v-105z" />
    <glyph glyph-name="lozenge" unicode="&#x25ca;" horiz-adv-x="588" 
d="M238 700h112l193 -350l-193 -350h-112l-193 350zM294 593l-132 -243l132 -243l131 243z" />
    <glyph glyph-name="uni25CF" unicode="&#x25cf;" horiz-adv-x="788" 
d="M84 529.5q48 82.5 130.5 130.5t179.5 48t179.5 -48t130.5 -130.5t48 -179.5q0 -98 -48 -180t-130.5 -130t-179.5 -48t-179.5 48t-130.5 130t-48 180q0 97 48 179.5z" />
    <glyph glyph-name="uniFEFF" unicode="&#xfeff;" 
d="M0 0z" />
    <glyph glyph-name="NULL" 
d="M0 0z" />
    <glyph glyph-name="i.loclTRK" horiz-adv-x="233" 
d="M178 504v-504h-123v504h123zM182 583h-132v137h132v-137z" />
    <glyph glyph-name="germandbls.calt" horiz-adv-x="631" 
d="M99 591.5q32 55.5 90.5 86t134.5 30.5q68 0 123.5 -27t88.5 -76.5t36 -113.5l-126 -93q80 -20 115 -68.5t35 -122.5q0 -64 -30 -111t-85.5 -71.5t-128.5 -24.5h-90v115h76q67 0 99 25t32 74q0 48 -34.5 74t-100.5 26h-37v84l143 114q-5 41 -36.5 65.5t-79.5 24.5
q-38 0 -67 -18t-44.5 -50.5t-15.5 -76.5v-457h-130v462q0 74 32 129.5z" />
    <glyph glyph-name="T_T.dlig" horiz-adv-x="998" 
d="M9 586v114h555v-114h-211v-586h-132v586h-212zM434 586v114h555v-114h-211v-586h-132v586h-212z" />
    <glyph glyph-name="T_h.dlig" horiz-adv-x="1082" 
d="M937.5 486.5q42.5 -25.5 66 -70.5t23.5 -104v-312h-123v286q0 34 -13 60.5t-37 41.5t-55 15q-34 0 -60.5 -16.5t-41.5 -45.5t-15 -66v-275h-123v586h-206v-586h-132v586h-212v114h673v-274q21 41 62 63.5t95 22.5q56 0 98.5 -25.5z" />
    <glyph glyph-name="T_i.dlig" horiz-adv-x="714" 
d="M9 586v114h555v-114h-211v-586h-132v586h-212zM659 504v-504h-123v504h123z" />
    <glyph glyph-name="zero.inferior" horiz-adv-x="390" 
d="M64.5 47q-39.5 52 -39.5 150v27q0 97 39.5 149t117.5 52h25q79 0 118.5 -51.5t39.5 -149.5v-27q0 -98 -39.5 -150t-118.5 -52h-25q-78 0 -117.5 52zM256 97.5q20 25.5 20 72.5v80q0 47 -20 72.5t-53 25.5h-16q-33 0 -52.5 -25t-19.5 -73v-80q0 -48 19.5 -73t52.5 -25h16
q33 0 53 25.5z" />
    <glyph glyph-name="one.inferior" horiz-adv-x="241" 
d="M108 0v301q-6 -8 -22.5 -13t-32.5 -5h-30v77h29q27 0 41.5 13t19.5 47h84v-420h-89z" />
    <glyph glyph-name="two.inferior" horiz-adv-x="350" 
d="M44.5 353q18.5 35 53 53.5t81.5 18.5q44 0 78 -16.5t53 -46.5t19 -69q0 -42 -24 -74.5t-76 -59.5l-48 -25q-54 -29 -56 -57h203v-77h-299l-1 62q-1 46 28.5 79.5t68.5 52.5l67 34q23 11 35.5 28t12.5 38q0 27 -17 42.5t-44 15.5q-30 0 -47 -22t-15 -59h-90q-1 47 17.5 82
z" />
    <glyph glyph-name="three.inferior" horiz-adv-x="372" 
d="M108 11.5q-36 16.5 -57 48t-21 73.5h86q0 -29 20.5 -45t51.5 -16q32 0 50 15t18 40t-18 39t-50 14h-39v73h37q25 0 40 14.5t15 37.5q0 22 -16 34.5t-43 12.5q-25 0 -42.5 -14.5t-17.5 -41.5h-81q0 38 19.5 67t52 45.5t71.5 16.5q40 0 73 -15.5t52 -41.5t19 -57
q0 -26 -14 -50t-36 -39q68 -32 68 -98q0 -39 -21.5 -68.5t-57.5 -45t-79 -15.5q-44 0 -80 16.5z" />
    <glyph glyph-name="four.inferior" horiz-adv-x="395" 
d="M19 84v76l205 260h96v-260h48v-76h-48v-84h-90v84h-211zM230 311l-123 -151h123v151z" />
    <glyph glyph-name="five.inferior" horiz-adv-x="362" 
d="M107.5 13.5q-33.5 18.5 -54 48.5t-22.5 63h78q3 -25 22.5 -40.5t48.5 -15.5q33 0 53 19t20 51t-20.5 51.5t-54.5 19.5q-45 0 -65 -33h-74l34 243h236v-77h-169l-14 -83q28 19 65 19q42 0 75 -18t51.5 -50t18.5 -72q0 -42 -20 -74.5t-55.5 -51t-80.5 -18.5
q-39 0 -72.5 18.5z" />
    <glyph glyph-name="six.inferior" horiz-adv-x="388" 
d="M282 262q33 -19 51.5 -51.5t18.5 -71.5q0 -40 -21 -73t-57 -52t-79 -19q-52 0 -89 26.5t-56 72t-19 103.5q0 71 21.5 122.5t60 78.5t89.5 27q42 0 76 -16t54.5 -44t24.5 -62h-79q-4 22 -24.5 36t-49.5 14q-27 0 -47.5 -16t-32 -43t-13.5 -60q13 21 40.5 34t54.5 13
q43 0 76 -19zM251.5 86.5q21.5 19.5 21.5 52.5q0 31 -21.5 50.5t-56.5 19.5q-34 0 -55.5 -19.5t-21.5 -50.5q0 -33 21 -52.5t56 -19.5t56.5 19.5z" />
    <glyph glyph-name="seven.inferior" horiz-adv-x="317" 
d="M102.5 109q12.5 48 45.5 99l87 135h-213v77h311v-70l-107 -168q-27 -41 -37 -82t-10 -100h-89q0 61 12.5 109z" />
    <glyph glyph-name="eight.inferior" horiz-adv-x="379" 
d="M108.5 11q-36.5 16 -57 45.5t-20.5 67.5q0 35 18.5 61.5t49.5 40.5q-22 15 -36 37t-14 48q0 33 18 59t50 40.5t73 14.5t73 -14.5t49.5 -40.5t17.5 -59q0 -26 -13.5 -48t-37.5 -37q32 -14 50.5 -40.5t18.5 -61.5q0 -38 -20.5 -67.5t-56.5 -45.5t-81 -16t-81.5 16z
M234.5 272q16.5 13 16.5 35t-16.5 35t-44.5 13t-44.5 -13t-16.5 -35t16.5 -35t44.5 -13t44.5 13zM244 85q20 15 20 41t-20 41.5t-54 15.5t-54.5 -15.5t-20.5 -41.5t20.5 -41t54.5 -15t54 15z" />
    <glyph glyph-name="nine.inferior" horiz-adv-x="388" 
d="M106 158q-33 19 -51.5 51.5t-18.5 71.5q0 40 21 73t57 52t79 19q52 0 89 -26.5t56 -72t19 -103.5q0 -71 -21.5 -122.5t-60 -78.5t-89.5 -27q-42 0 -76 16t-54.5 44t-24.5 62h79q4 -22 24.5 -36t49.5 -14q27 0 47.5 16t32 43t13.5 61q-13 -21 -40 -34.5t-55 -13.5
q-43 0 -76 19zM136.5 333.5q-21.5 -19.5 -21.5 -52.5q0 -31 21.5 -50.5t56.5 -19.5q34 0 55.5 19.5t21.5 50.5q0 33 -21 52.5t-56 19.5t-56.5 -19.5z" />
    <glyph glyph-name="zero.tf" horiz-adv-x="659" 
d="M119.5 77.5q-62.5 85.5 -62.5 248.5v48q0 163 62.5 248.5t190.5 85.5h40q128 0 191 -85.5t63 -248.5v-48q0 -163 -63 -248.5t-191 -85.5h-40q-128 0 -190.5 85.5zM438 153.5q34 46.5 34 137.5v118q0 91 -33.5 138t-94.5 47h-28q-60 0 -93.5 -47t-33.5 -138v-118
q0 -91 33.5 -137.5t93.5 -46.5h28q60 0 94 46.5z" />
    <glyph glyph-name="one.tf" horiz-adv-x="659" 
d="M544 115v-115h-431v115h162v400q-9 -13 -34 -20t-49 -7h-55v114h50q43 0 65.5 21.5t28.5 76.5h126v-585h137z" />
    <glyph glyph-name="two.tf" horiz-adv-x="659" 
d="M111 590.5q30 56.5 86.5 87t132.5 30.5q71 0 126.5 -27t86.5 -76t31 -114q0 -142 -166 -224l-108 -54q-37 -19 -62.5 -44t-25.5 -54h362v-115h-492l-1 97q0 53 25 96.5t61.5 74t75.5 49.5l112 56q86 42 86 119q0 49 -30 78t-81 29q-37 0 -63 -17.5t-39.5 -49.5t-12.5 -75
h-133q-1 77 29 133.5z" />
    <glyph glyph-name="three.tf" horiz-adv-x="659" 
d="M200.5 20q-59.5 28 -94 80t-34.5 121h128q0 -36 17.5 -61.5t47.5 -39t67 -13.5q58 0 92.5 27t34.5 74q0 46 -34.5 72t-92.5 26h-64v110h62q31 0 54.5 11.5t36 32.5t12.5 47q0 40 -30 63.5t-80 23.5q-49 0 -79 -26.5t-31 -77.5h-125q1 66 33.5 115.5t86.5 76t118 26.5
q66 0 120 -25t84.5 -68.5t30.5 -94.5q0 -49 -24 -89.5t-64 -61.5q53 -19 85 -62.5t32 -101.5q0 -65 -35 -113.5t-94 -74t-129 -25.5q-72 0 -131.5 28z" />
    <glyph glyph-name="four.tf" horiz-adv-x="659" 
d="M38 148v115l346 437h144v-437h90v-115h-90v-148h-132v148h-358zM396 542l-227 -279h227v279z" />
    <glyph glyph-name="five.tf" horiz-adv-x="659" 
d="M206 20q-55 28 -88.5 77t-36.5 109h125q6 -47 38 -73t83 -26q40 0 69.5 15.5t46 43.5t16.5 67q0 38 -16.5 67.5t-46 45.5t-68.5 16q-44 0 -74.5 -16t-46.5 -46h-114l58 400h393v-114h-295l-24 -158q22 20 55 32t73 12q68 0 122.5 -31.5t85.5 -86t31 -121.5
q0 -69 -34.5 -124t-95 -86t-135.5 -31q-66 0 -121 28z" />
    <glyph glyph-name="six.tf" horiz-adv-x="659" 
d="M474.5 436q55.5 -31 86.5 -84.5t31 -120.5t-34.5 -121.5t-93.5 -86t-132 -31.5q-85 0 -146.5 43t-93 118.5t-31.5 171.5q0 120 35.5 206.5t99.5 131.5t147 45q70 0 126 -26t89.5 -71.5t41.5 -101.5h-124q-8 40 -43 64.5t-85 24.5q-46 0 -82 -28t-57.5 -77t-24.5 -110
q14 24 40.5 43t58.5 30t64 11q72 0 127.5 -31zM400 122.5q28 15.5 43.5 44t15.5 64.5t-15.5 64t-44 43.5t-64.5 15.5q-37 0 -65.5 -15.5t-44.5 -43.5t-16 -64t16 -64.5t44.5 -44t65.5 -15.5t65 15.5z" />
    <glyph glyph-name="seven.tf" horiz-adv-x="659" 
d="M209.5 120q8.5 55 30.5 111.5t61 118.5l149 236h-369v114h515v-104l-182 -290q-32 -51 -50 -98.5t-24.5 -96.5t-7.5 -111h-131q0 65 8.5 120z" />
    <glyph glyph-name="eight.tf" horiz-adv-x="659" 
d="M191.5 18q-59.5 26 -93.5 74.5t-34 112.5q0 59 33 104t86 68q-40 24 -64.5 61t-24.5 82q0 54 29.5 97t82 67t119.5 24t119.5 -24t82 -67t29.5 -97q0 -45 -24.5 -82t-65.5 -61q55 -22 87 -67t32 -105q0 -64 -34 -112.5t-93 -74.5t-133 -26t-133.5 26zM403.5 452
q29.5 23 29.5 63t-29.5 63t-78.5 23t-78 -23t-29 -63t29 -63t78 -23t78.5 23zM420 133q35 27 35 75q0 31 -16 54.5t-45 36t-69 12.5q-39 0 -69 -12.5t-46.5 -36t-16.5 -54.5q0 -47 36 -74.5t96 -27.5t95 27z" />
    <glyph glyph-name="nine.tf" horiz-adv-x="659" 
d="M185.5 267q-55.5 31 -86.5 85t-31 121q0 66 34.5 120.5t94 86t131.5 31.5q85 0 146.5 -43t93 -118.5t31.5 -171.5q0 -120 -35.5 -206.5t-99.5 -131.5t-147 -45q-70 0 -126 26t-89.5 71.5t-41.5 101.5h124q8 -40 43 -64.5t85 -24.5q46 0 82 28t57.5 77.5t24.5 110.5
q-14 -25 -40.5 -44t-58.5 -30t-64 -11q-72 0 -127.5 31zM260 581q-28 -16 -43.5 -44t-15.5 -65q0 -35 15.5 -63t44 -43.5t64.5 -15.5q37 0 65.5 15.5t44.5 43.5t16 63q0 37 -16 65t-44.5 44t-65.5 16t-65 -16z" />
    <glyph glyph-name="zero.dnom" horiz-adv-x="390" 
d="M64.5 47q-39.5 52 -39.5 150v27q0 97 39.5 149t117.5 52h25q79 0 118.5 -51.5t39.5 -149.5v-27q0 -98 -39.5 -150t-118.5 -52h-25q-78 0 -117.5 52zM256 97.5q20 25.5 20 72.5v80q0 47 -20 72.5t-53 25.5h-16q-33 0 -52.5 -25t-19.5 -73v-80q0 -48 19.5 -73t52.5 -25h16
q33 0 53 25.5z" />
    <glyph glyph-name="one.dnom" horiz-adv-x="239" 
d="M108 0v301q-6 -8 -22.5 -13t-32.5 -5h-30v77h29q27 0 41.5 13t19.5 47h84v-420h-89z" />
    <glyph glyph-name="two.dnom" horiz-adv-x="333" 
d="M44.5 353q18.5 35 53 53.5t81.5 18.5q44 0 78 -16.5t53 -46.5t19 -69q0 -42 -24 -74.5t-76 -59.5l-48 -25q-54 -29 -56 -57h203v-77h-299l-1 62q-1 46 28.5 79.5t68.5 52.5l67 34q23 11 35.5 28t12.5 38q0 27 -17 42.5t-44 15.5q-30 0 -47 -22t-15 -59h-90q-1 47 17.5 82
z" />
    <glyph glyph-name="three.dnom" horiz-adv-x="372" 
d="M108 11.5q-36 16.5 -57 48t-21 73.5h86q0 -29 20.5 -45t51.5 -16q32 0 50 15t18 40t-18 39t-50 14h-39v73h37q25 0 40 14.5t15 37.5q0 22 -16 34.5t-43 12.5q-25 0 -42.5 -14.5t-17.5 -41.5h-81q0 38 19.5 67t52 45.5t71.5 16.5q40 0 73 -15.5t52 -41.5t19 -57
q0 -26 -14 -50t-36 -39q68 -32 68 -98q0 -39 -21.5 -68.5t-57.5 -45t-79 -15.5q-44 0 -80 16.5z" />
    <glyph glyph-name="four.dnom" horiz-adv-x="395" 
d="M19 84v76l205 260h96v-260h48v-76h-48v-84h-90v84h-211zM230 311l-123 -151h123v151z" />
    <glyph glyph-name="five.dnom" horiz-adv-x="341" 
d="M107.5 13.5q-33.5 18.5 -54 48.5t-22.5 63h78q3 -25 22.5 -40.5t48.5 -15.5q33 0 53 19t20 51t-20.5 51.5t-54.5 19.5q-45 0 -65 -33h-74l34 243h236v-77h-169l-14 -83q28 19 65 19q42 0 75 -18t51.5 -50t18.5 -72q0 -42 -20 -74.5t-55.5 -51t-80.5 -18.5
q-39 0 -72.5 18.5z" />
    <glyph glyph-name="six.dnom" horiz-adv-x="366" 
d="M282 262q33 -19 51.5 -51.5t18.5 -71.5q0 -40 -21 -73t-57 -52t-79 -19q-52 0 -89 26.5t-56 72t-19 103.5q0 71 21.5 122.5t60 78.5t89.5 27q42 0 76 -16t54.5 -44t24.5 -62h-79q-4 22 -24.5 36t-49.5 14q-27 0 -47.5 -16t-32 -43t-13.5 -60q13 21 40.5 34t54.5 13
q43 0 76 -19zM251.5 86.5q21.5 19.5 21.5 52.5q0 31 -21.5 50.5t-56.5 19.5q-34 0 -55.5 -19.5t-21.5 -50.5q0 -33 21 -52.5t56 -19.5t56.5 19.5z" />
    <glyph glyph-name="seven.dnom" horiz-adv-x="310" 
d="M102.5 109q12.5 48 45.5 99l87 135h-213v77h311v-70l-107 -168q-27 -41 -37 -82t-10 -100h-89q0 61 12.5 109z" />
    <glyph glyph-name="eight.dnom" horiz-adv-x="379" 
d="M108.5 11q-36.5 16 -57 45.5t-20.5 67.5q0 35 18.5 61.5t49.5 40.5q-22 15 -36 37t-14 48q0 33 18 59t50 40.5t73 14.5t73 -14.5t49.5 -40.5t17.5 -59q0 -26 -13.5 -48t-37.5 -37q32 -14 50.5 -40.5t18.5 -61.5q0 -38 -20.5 -67.5t-56.5 -45.5t-81 -16t-81.5 16z
M234.5 272q16.5 13 16.5 35t-16.5 35t-44.5 13t-44.5 -13t-16.5 -35t16.5 -35t44.5 -13t44.5 13zM244 85q20 15 20 41t-20 41.5t-54 15.5t-54.5 -15.5t-20.5 -41.5t20.5 -41t54.5 -15t54 15z" />
    <glyph glyph-name="nine.dnom" horiz-adv-x="388" 
d="M106 158q-33 19 -51.5 51.5t-18.5 71.5q0 40 21 73t57 52t79 19q52 0 89 -26.5t56 -72t19 -103.5q0 -71 -21.5 -122.5t-60 -78.5t-89.5 -27q-42 0 -76 16t-54.5 44t-24.5 62h79q4 -22 24.5 -36t49.5 -14q27 0 47.5 16t32 43t13.5 61q-13 -21 -40 -34.5t-55 -13.5
q-43 0 -76 19zM136.5 333.5q-21.5 -19.5 -21.5 -52.5q0 -31 21.5 -50.5t56.5 -19.5q34 0 55.5 19.5t21.5 50.5q0 33 -21 52.5t-56 19.5t-56.5 -19.5z" />
    <glyph glyph-name="zero.numr" horiz-adv-x="390" 
d="M64.5 327q-39.5 52 -39.5 150v27q0 97 39.5 149t117.5 52h25q79 0 118.5 -51.5t39.5 -149.5v-27q0 -98 -39.5 -150t-118.5 -52h-25q-78 0 -117.5 52zM256 377.5q20 25.5 20 72.5v80q0 47 -20 72.5t-53 25.5h-16q-33 0 -52.5 -25t-19.5 -73v-80q0 -48 19.5 -73t52.5 -25
h16q33 0 53 25.5z" />
    <glyph glyph-name="one.numr" horiz-adv-x="241" 
d="M108 280v301q-6 -8 -22.5 -13t-32.5 -5h-30v77h29q27 0 41.5 13t19.5 47h84v-420h-89z" />
    <glyph glyph-name="two.numr" horiz-adv-x="350" 
d="M44.5 633q18.5 35 53 53.5t81.5 18.5q44 0 78 -16.5t53 -46.5t19 -69q0 -42 -24 -74.5t-76 -59.5l-48 -25q-54 -29 -56 -57h203v-77h-299l-1 62q-1 46 28.5 79.5t68.5 52.5l67 34q23 11 35.5 28t12.5 38q0 27 -17 42.5t-44 15.5q-30 0 -47 -22t-15 -59h-90q-1 47 17.5 82
z" />
    <glyph glyph-name="three.numr" horiz-adv-x="372" 
d="M108 291.5q-36 16.5 -57 48t-21 73.5h86q0 -29 20.5 -45t51.5 -16q32 0 50 15t18 40t-18 39t-50 14h-39v73h37q25 0 40 14.5t15 37.5q0 22 -16 34.5t-43 12.5q-25 0 -42.5 -14.5t-17.5 -41.5h-81q0 38 19.5 67t52 45.5t71.5 16.5q40 0 73 -15.5t52 -41.5t19 -57
q0 -26 -14 -50t-36 -39q68 -32 68 -98q0 -39 -21.5 -68.5t-57.5 -45t-79 -15.5q-44 0 -80 16.5z" />
    <glyph glyph-name="four.numr" horiz-adv-x="395" 
d="M19 364v76l205 260h96v-260h48v-76h-48v-84h-90v84h-211zM230 591l-123 -151h123v151z" />
    <glyph glyph-name="five.numr" horiz-adv-x="362" 
d="M107.5 293.5q-33.5 18.5 -54 48.5t-22.5 63h78q3 -25 22.5 -40.5t48.5 -15.5q33 0 53 19t20 51t-20.5 51.5t-54.5 19.5q-45 0 -65 -33h-74l34 243h236v-77h-169l-14 -83q28 19 65 19q42 0 75 -18t51.5 -50t18.5 -72q0 -42 -20 -74.5t-55.5 -51t-80.5 -18.5
q-39 0 -72.5 18.5z" />
    <glyph glyph-name="six.numr" horiz-adv-x="388" 
d="M282 542q33 -19 51.5 -51.5t18.5 -71.5q0 -40 -21 -73t-57 -52t-79 -19q-52 0 -89 26.5t-56 72t-19 103.5q0 71 21.5 122.5t60 78.5t89.5 27q42 0 76 -16t54.5 -44t24.5 -62h-79q-4 22 -24.5 36t-49.5 14q-27 0 -47.5 -16t-32 -43t-13.5 -60q13 21 40.5 34t54.5 13
q43 0 76 -19zM251.5 366.5q21.5 19.5 21.5 52.5q0 31 -21.5 50.5t-56.5 19.5q-34 0 -55.5 -19.5t-21.5 -50.5q0 -33 21 -52.5t56 -19.5t56.5 19.5z" />
    <glyph glyph-name="seven.numr" horiz-adv-x="317" 
d="M102.5 389q12.5 48 45.5 99l87 135h-213v77h311v-70l-107 -168q-27 -41 -37 -82t-10 -100h-89q0 61 12.5 109z" />
    <glyph glyph-name="eight.numr" horiz-adv-x="379" 
d="M108.5 291q-36.5 16 -57 45.5t-20.5 67.5q0 35 18.5 61.5t49.5 40.5q-22 15 -36 37t-14 48q0 33 18 59t50 40.5t73 14.5t73 -14.5t49.5 -40.5t17.5 -59q0 -26 -13.5 -48t-37.5 -37q32 -14 50.5 -40.5t18.5 -61.5q0 -38 -20.5 -67.5t-56.5 -45.5t-81 -16t-81.5 16z
M234.5 552q16.5 13 16.5 35t-16.5 35t-44.5 13t-44.5 -13t-16.5 -35t16.5 -35t44.5 -13t44.5 13zM244 365q20 15 20 41t-20 41.5t-54 15.5t-54.5 -15.5t-20.5 -41.5t20.5 -41t54.5 -15t54 15z" />
    <glyph glyph-name="nine.numr" horiz-adv-x="388" 
d="M106 438q-33 19 -51.5 51.5t-18.5 71.5q0 40 21 73t57 52t79 19q52 0 89 -26.5t56 -72t19 -103.5q0 -71 -21.5 -122.5t-60 -78.5t-89.5 -27q-42 0 -76 16t-54.5 44t-24.5 62h79q4 -22 24.5 -36t49.5 -14q27 0 47.5 16t32 43t13.5 61q-13 -21 -40 -34.5t-55 -13.5
q-43 0 -76 19zM136.5 613.5q-21.5 -19.5 -21.5 -52.5q0 -31 21.5 -50.5t56.5 -19.5q34 0 55.5 19.5t21.5 50.5q0 33 -21 52.5t-56 19.5t-56.5 -19.5z" />
    <glyph glyph-name="colon.cap" horiz-adv-x="273" 
d="M189 448h-134v129h134v-129zM189 91h-134v129h134v-129z" />
    <glyph glyph-name="bullet.case" horiz-adv-x="304" 
d="M101 290.5q-21 12.5 -33.5 33.5t-12.5 46t12.5 45.5t33.5 33t47 12.5q24 0 45 -12.5t33 -33t12 -45.5t-12 -46t-33 -33.5t-45 -12.5q-26 0 -47 12.5z" />
    <glyph glyph-name="emdash.alt" horiz-adv-x="1135" 
d="M1067 370v-105h-1000v105h1000z" />
    <glyph glyph-name="percent.part" horiz-adv-x="405" 
d="M124 13q-35 21 -54.5 57.5t-19.5 81.5t19.5 81.5t54.5 57.5t79 21t78.5 -21t54 -57.5t19.5 -81.5t-19.5 -81.5t-54 -57.5t-78.5 -21t-79 21zM251.5 94.5q18.5 22.5 18.5 57.5t-18.5 57.5t-48.5 22.5t-48 -22.5t-18 -57.5t18 -57.5t48 -22.5t48.5 22.5z" />
    <glyph glyph-name="percent.part2" horiz-adv-x="752" 
d="M124 409q-35 21 -54.5 57.5t-19.5 81.5t19.5 81.5t54.5 57.5t79 21t78.5 -21t54 -57.5t19.5 -81.5t-19.5 -81.5t-54 -57.5t-78.5 -21t-79 21zM251.5 490.5q18.5 22.5 18.5 57.5t-18.5 57.5t-48.5 22.5t-48 -22.5t-18 -57.5t18 -57.5t48 -22.5t48.5 22.5zM472 13
q-35 21 -54.5 57.5t-19.5 81.5t19.5 81.5t54.5 57.5t79 21t78.5 -21t54 -57.5t19.5 -81.5t-19.5 -81.5t-54 -57.5t-78.5 -21t-79 21zM599.5 94.5q18.5 22.5 18.5 57.5t-18.5 57.5t-48.5 22.5t-48 -22.5t-18 -57.5t18 -57.5t48 -22.5t48.5 22.5z" />
    <glyph glyph-name="uni030C.alt" 
d="M-42 745l-55 -185h-92l31 185h116z" />
    <glyph glyph-name="uni0335.alt" 
d="M-67 448v-85h-363v85h363z" />
    <glyph glyph-name="uni0338.alt" 
d="M-469 -30l-55 45l420 519l54 -45z" />
    </font>
</defs>
</svg>
